<?xml version="1.0" encoding="utf-8"?>
<!-- Generator: Adobe Illustrator 23.0.3, SVG Export Plug-In . SVG Version: 6.00 Build 0)  -->
<svg version="1.1" id="Layer_1" xmlns="http://www.w3.org/2000/svg" xmlns:xlink="http://www.w3.org/1999/xlink" x="0px" y="0px"
	 viewBox="0 0 800 700" style="enable-background:new 0 0 800 700;" xml:space="preserve">
<style type="text/css">
	.st0{fill:#FFFFFF;}
	.st1{fill-rule:evenodd;clip-rule:evenodd;fill:#FFFFFF;}
</style>
<path class="st0" d="M569.9,395.7l-22.1,58.4l-22.1-58.4h-13.4l-9.5,84h12.6l7-61.1l21.3,58.1h8.1l21.3-58.1l7,61.1h12.6l-9.5-84
	H569.9z M424.1,437.8c0-16.7,11.3-31.5,28.7-31.5c17.4,0,28.7,14.8,28.7,31.5c0,16.7-11.3,31.5-28.7,31.5
	C435.4,469.3,424.1,454.5,424.1,437.8z M410.4,437.8c0,24.5,19.3,43.6,42.4,43.6c23.1,0,42.4-19,42.4-43.6
	c0-24.5-19.3-43.6-42.4-43.6C429.7,394.2,410.4,413.3,410.4,437.8z M358,405.9h9.4c10.4,0,18.1,4.7,18.1,14.8
	c0,10.1-7.7,15.1-18.1,15.1H358V405.9z M405.8,479.8l-27.6-34.4c12.4-2.4,20.4-11.5,20.4-25c0-16-11.2-24.6-27.6-24.6h-25.7v84H358
	V446h6l25.8,33.7H405.8z"/>
<path class="st0" d="M751.7,502.5v84h44.8v-11.1h-32.2V550h31v-11.1h-31v-25.3h32.2v-11.1H751.7z M695.3,512.7h9.4
	c10.4,0,18.1,4.7,18.1,14.8c0,10.1-7.7,15.1-18.1,15.1h-9.4V512.7z M743.2,586.6l-27.6-34.4c12.4-2.4,20.4-11.5,20.4-25
	c0-16-11.2-24.6-27.6-24.6h-25.7v84h12.6v-33.7h6l25.8,33.7H743.2z M614.7,502.5v11.1h23.1v72.9h12.6v-72.9h23.3v-11.1H614.7z
	 M568.6,553l12.9-33.4l12.9,33.4H568.6z M575.6,502.5l-33.4,84h13.5l8.6-22.5h34.4l8.6,22.5h13.5l-33.4-84H575.6z M493.1,502.5v84
	h44.8v-11.1h-32.2V550h31v-11.1h-31v-25.3h32.2v-11.1H493.1z M413.3,502.5v84h12.6V550h37.9v36.6h12.6v-84h-12.6v36.4h-37.9v-36.4
	H413.3z M345.3,502.5v11.1h23.1v72.9h12.6v-72.9h23.3v-11.1H345.3z"/>
<path class="st0" d="M557.8,631.9c0,9.2,6,16.5,17.7,21.3c12.5,5,20.9,9.2,20.9,17.3c0,9.9-8.8,12.8-16.2,12.8
	c-10.2,0-16.6-5.2-20.5-11.5l-8.5,7.6c3.5,7.2,12.5,15.6,29.7,15.6c15.7,0,29-7.7,29-25.3c0-14.7-14.2-20.8-27.1-26
	c-7.3-2.9-12.8-6.3-12.8-12.3c0-6.3,4.7-12.1,13.5-12.1c8.7,0,13.5,3.7,16.2,7.6l7.8-7.2c-3.6-5.5-10.9-11.9-24.7-11.9
	C569.9,607.8,557.8,617.5,557.8,631.9 M487.7,609.3v11.1h23.1v72.9h12.6v-72.9h23.3v-11.1H487.7z M443.2,619.5h9.4
	c10.4,0,18.1,4.7,18.1,14.8c0,10.1-7.7,15.1-18.1,15.1h-9.4V619.5z M491.1,693.4l-27.6-34.4c12.4-2.4,20.4-11.5,20.4-25
	c0-16-11.2-24.6-27.6-24.6h-25.7v84h12.6v-33.7h6l25.8,33.7H491.1z M371.7,659.8l12.9-33.4l12.9,33.4H371.7z M378.8,609.3l-33.4,84
	h13.5l8.6-22.5h34.4l8.6,22.5H424l-33.4-84H378.8z"/>
<path class="st1" d="M208.1,192.9l-80.9-31.8l80.9-31.8V192.9z M76,601.3v-14c0-24.4,5.8-52.4,38-52.4c31.8,0,37.2,28.1,37.2,52.4
	v14H76z M83.4,235.6l166.4,67.8H83.4V235.6z M3.8,203.2l63.6,25.9H3.8v239.4h30.6c-20.7,21.6-30.6,53.3-30.6,89v134.6h282.8v-90.8
	h-60.3l60.3-46.8V443.8l-71.5,61c-16.5-38.8-50.8-65.6-104-65.6c-9.9,0-19.2,1-27.7,2.8v-47.7h203.1v-75.9v-15V3.8L3.8,119V203.2z"
	/>
</svg>
