<?xml version="1.0" encoding="utf-8"?>
<!-- Generator: Adobe Illustrator 23.0.3, SVG Export Plug-In . SVG Version: 6.00 Build 0)  -->
<svg version="1.1" id="Layer_1" xmlns="http://www.w3.org/2000/svg" xmlns:xlink="http://www.w3.org/1999/xlink" x="0px" y="0px"
	 viewBox="0 0 48 48" style="enable-background:new 0 0 48 48;" xml:space="preserve">
<style type="text/css">
	.st0{fill:#FFFFFF;}
</style>
<path class="st0" d="M32.8,18H28v-4c0-2.1,0.2-3.4,3.1-3.4h1.7c1.1,0,2-0.9,2-2V6.1c0-1-0.8-1.9-1.8-2C31.8,4,30.6,4,29.4,4
	C24,4,20,7.3,20,13.4V18h-4c-1.1,0-2,0.9-2,2v4c0,1.1,0.9,2,2,2l4,0v16c0,1.1,0.9,2,2,2h4c1.1,0,2-0.9,2-2V26l4.3,0
	c1,0,1.9-0.8,2-1.8l0.5-4C34.9,19,34,18,32.8,18z"/>
</svg>
