<?xml version="1.0" encoding="utf-8"?>
<!-- Generator: Adobe Illustrator 23.0.3, SVG Export Plug-In . SVG Version: 6.00 Build 0)  -->
<svg version="1.1" id="Layer_1" xmlns="http://www.w3.org/2000/svg" xmlns:xlink="http://www.w3.org/1999/xlink" x="0px" y="0px"
	 viewBox="0 0 480 240" style="enable-background:new 0 0 480 240;" xml:space="preserve">
<style type="text/css">
	.st0{fill-rule:evenodd;clip-rule:evenodd;fill:#FFFFFF;}
</style>
<path class="st0" d="M346.4,163.1l21.8-55.4l21.8,55.4H346.4z M66.6,72.6h9.6c16.7,0,35.9,4,35.9,26c0,21.8-19.2,25.5-35.9,25.5
	h-9.6V72.6z M317.1,77.6l-46.4,114v-114H317.1z M339.4,23.1l-17.8,43.6V23.1H157.6v21c-14.8-14.2-36.5-21-61-21H4.3v193.8h62.2
	v-41.3l32.1,41.3h75.9l-41.8-49c26.6-11.3,45-34.8,45-71.3c0-6.8-0.7-13.1-1.9-19h32.7v139.2h52h10.2H476L397.1,23.1H339.4z"/>
</svg>
