<?xml version="1.0" encoding="utf-8"?>
<!-- Generator: Adobe Illustrator 23.0.3, SVG Export Plug-In . SVG Version: 6.00 Build 0)  -->
<svg version="1.1" id="Layer_1" xmlns="http://www.w3.org/2000/svg" xmlns:xlink="http://www.w3.org/1999/xlink" x="0px" y="0px"
	 viewBox="0 0 480 160" style="enable-background:new 0 0 480 160;" xml:space="preserve">
<style type="text/css">
	.st0{fill:#FEFEFE;}
</style>
<path class="st0" d="M444.6,69.3c-1.4-1.3-2.6-2.4-3.8-3.4c-1.6-1.2-3.1-2.3-4.6-3.5c-1.5-1.2-3-2.3-4.6-3.5c-2.2-1.6-4.2-3.1-6-4.7
	V54c0.4-0.3,1.6,0.1,1.1-1.1c-0.9-0.1-1.6,0-2.1,0.1l-0.3-0.3c-0.7-0.6-1.3-1.2-1.9-1.8l0.1-0.1l0,0l-0.3-0.1c-1-1-2-2-2.8-2.9
	c-0.3-0.3-0.5-0.5-0.7-0.8c0.2-0.2,0.4-0.3,0.7-0.5c-0.5,0-0.8,0-1.2,0c-1.1-1.3-2.1-2.6-3.2-4.1c-1.8-2.8-3-6.2-3.6-9.9
	c-0.1-1.2,0-2.3,0.2-3.6c0.2-2,0.7-3.8,1.5-5.7c1.9-0.1,1.8-1.7,1.1-2.1c0.5-1,1.2-2,2-2.9c1.1-1.7,2.6-2.9,4.8-3.8
	c1.2-0.5,2.3-0.8,3.4-1c1.2-0.2,2.2-0.1,3.4,0.2c0.9,0.1,1.6,0.2,1.9,0.3c1.2,0.1,2.1,0.4,3,0.8c0.9,0.4,1.8,0.8,2.7,1.2
	c1.7,0.9,1.7,1.8,0,2.6c-0.8,0.3-1.5,0.7-2.2,1.1c-0.8,0.4-1.6,0.7-2.4,1c-0.6,0.2-1.1,0.6-1.7,1c-0.5,0.7-1,1.4-1.6,2.1
	c-0.5,0.6-0.8,1.4-1,2.2c-0.1,0.4-0.2,0.7-0.3,1s-0.2,0.6-0.4,1c-0.5,1.2-0.5,2.6,0,4.2c0.2,0.5,0.5,1,0.7,1.4s0.5,0.9,1,1.2
	c0.1,0.1,0.2,0.2,0.2,0.4c0.6,0.9,1.3,1.7,2.1,2.3c0.9,0.7,1.7,1.4,2.3,2.1c0.3,0.2,0.6,0.5,0.9,0.7c0.4,0.2,0.7,0.4,1,0.6
	c1.7,1.3,3.3,2.4,5.1,3.5c1.7,1.1,3.4,2.2,5.1,3.6c1,0.7,1.9,1.5,2.7,2.2c0.8,0.8,1.7,1.6,2.6,2.3c0.6,0.5,1.2,1,1.7,1.6
	c0.5,0.7,1.1,1.2,1.7,1.7c0.4,0.3,0.7,0.6,1.1,0.8c0.4,0.2,0.7,0.5,1.1,0.8c0.9-0.6,1.7-1.3,2.3-2.1c0.4-0.3,0.7-0.7,1.2-1.1
	c0.8-0.7,1.6-1.4,2.1-2.1c0.6-0.8,1.2-1.6,1.8-2.4c0.6-0.6,1.1-1.1,1.6-1.6c0.6-0.5,1.1-1.1,1.6-1.7c0.9-1,1.8-2,2.6-2.8
	c0.9-0.9,1.7-2,2.2-3.1c0.2-0.2,0.4-0.4,0.5-0.6c0.2-0.2,0.4-0.4,0.6-0.7c0.5-0.6,1.2-0.8,2-0.5c0.5,0.1,1,0.2,1.4,0.2
	c0.5,0,1,0.1,1.6,0.1c0.9,0.2,1.1,0.8,0.6,1.6l-0.5,0.6c-0.3,0.3-0.4,0.8-0.5,1.3c0,0.5-0.3,0.9-0.8,1.2c-0.5,0.1-0.9,0.4-1.2,0.8
	c-0.3,0.3-0.7,0.7-1.1,1.1c-0.6,0.4-1,0.9-1.3,1.5c-0.3,0.5-0.6,1.1-1.1,1.6c-0.2,0.2-0.4,0.5-0.6,0.7c-0.2,0.3-0.4,0.5-0.6,0.8
	c-0.4,0.4-0.8,1-1.5,1.8c-0.4,0.8-1,1.7-1.8,2.4c-0.4,0.3-0.7,0.6-0.9,0.9c-0.3,0.3-0.5,0.7-0.5,1.3c0,0.1-0.1,0.2-0.3,0.4
	c-0.1,0.1-0.3,0.2-0.4,0.3c-0.5,0.4-0.9,0.7-1,0.8c-0.5,0.6-1,1.2-1.4,1.8c-0.4,0.5-0.9,1.1-1.4,1.7c-0.7,0.5-0.6,1.1,0.1,1.8
	c0.3,0.3,0.5,0.6,0.8,0.9c0.2,0.3,0.5,0.6,0.8,1c0.2,0.2,0.4,0.4,0.4,0.6c0.1,0.2,0.3,0.4,0.5,0.6c1,0.9,1.7,1.9,2.1,2.9
	c0.5,1.1,1.1,2.2,1.8,3.3c0.4,1.3,0.6,2.3,0.6,3.3c-0.1,1.2,0.2,2.1,0.7,3.2c1,1.5,1.6,3,1.9,4.9c0.3,1.8,0.4,3.6,0.3,5.5
	c-0.1,1.8-0.2,3.5-0.5,5.3c-2.1,0.1-2-2-4.8-1.1c-0.2,0.8,0,2.1-1.1,2.1c-5.8-0.1-1.7,2,1.1,1.1c0.8-0.2,1.1-2.9,3.2-2.1
	c0,0.7,0.9,1.1,1.5,0.8c-0.2,1.7-0.5,3.3-0.8,4.7c-0.7,2.9-1.9,5.5-3.3,7.5c-0.3,0.1-0.5,0.3-0.6,0.7c-0.1,0.2-0.3,0.4-0.5,0.6
	c-2.1,2.2-4.3,4.6-6.7,7.1c-1.5,1.8-3.5,2.9-6.2,3.6c-2.6,0.8-5,1.2-7,1.3c-2.4,0.1-4.7-0.3-6.5-1.2c-2-0.9-3.8-2.1-5.7-3.5
	c-0.2-0.4-0.6-0.6-1.1-0.7c-0.3-0.2-0.7-0.4-1-0.6c-0.4-0.3-0.7-0.6-1-1c-0.4-0.5-0.9-0.9-1.5-1.2c-0.4-0.3-0.8-0.8-1.1-1.7
	c-1.1-4-1.1-8.3,0-12.8c1.2-4.6,3-8.7,5.7-12.5c0.4-0.5,0.8-1,1.1-1.5s0.6-1.1,0.9-1.7c0.5-0.6,1-1.2,1.4-1.8
	c0.3-0.6,0.8-1.2,1.3-1.8c1.2-1.4,2.2-2.6,3.3-4c1.1-1.3,2.1-2.6,3.1-4.1c0.2-0.2,0.5-0.5,0.7-0.7C444.2,69.8,444.4,69.6,444.6,69.3
	z M88.5,144.9c1.1,0,2.1,0,3.2,0c1.3-5-5.8-4.9-1.1-2.1C89.4,143,88.1,143.2,88.5,144.9z M88.5,120.6c-0.1,0.3-2,1.1-1.1,2.1
	C88,123.5,90.8,116.6,88.5,120.6z M42,115.3c2.3-1.5,3.9,2.7,4.2,0c-1.3-0.2-0.7-1.2,0-2.1C44.4,113.5,40.9,112.2,42,115.3z
	 M181.5,113.3c1.3-1.2,0.3-0.8-1.1,0C179,114.1,180.3,114.4,181.5,113.3z M178.4,93.2c-0.5-1.9,1.6-2.7,0-3.2
	C172.6,92.3,175,91.4,178.4,93.2z M177.3,82.6c1.2-2.2,1.1-2.2-1.1-1.1C175.1,78.4,175.1,83.1,177.3,82.6z M102.3,72
	c-1.4,0-1-1.9-2.1-2.1c0,1.4-1.9,1-2.1,2.1c1.5,0.4,1.8,1.3,3.1,0C101.2,72.6,102.1,73.3,102.3,72z M216.4,62.5
	c-1.3,0.3-0.3,1.8,1.1,1.1c0.8-0.4,1.7-1.9,0-1.1C217.2,62.6,216.7,62.4,216.4,62.5z M317.9,52c0.1,0-0.1,1,0,1c-0.5,0-2-1.2-2.1-1
	C313.2,53.6,322.4,55.1,317.9,52z M427.8,49.8c3,4.5,7.7-4.3,3.2-1.1C434.5,51.4,427.8,46.6,427.8,49.8z M375,38.2
	c0.4-1.2,1.3-2.5,0-1.1c-3.8-0.1,2.2-3.5-1.1-3.2c0,1.5-1.9,1-2.1,2.1C373.4,36.4,373.5,37.8,375,38.2z M61.1,12.8
	c-1.2-0.4-2.5-1.3-1.1,0c-0.3,3.7-4-2.6-4.3,1.1C57.1,15.3,60.9,15.5,61.1,12.8z M66.3,140.7c1.2-0.1,1.7,1.6,2.1,0
	C68.4,139.7,66.5,139.5,66.3,140.7z M113.9,129.1c0.7,0,1.4,0,2.1,0c1.2-1.6,1.1-2.5-1.1-3.1C114.9,127.4,114.5,128.2,113.9,129.1z
	 M453.2,117.5c1.5-3.4-6.3-2.6-6.3-1.1C450.1,115.6,450,118.3,453.2,117.5z M107.5,114.3c1.3-0.1,3,0.2,3.2-1
	C109.5,113.4,107.7,113.1,107.5,114.3z M456.3,110.1c-1.2,0.1-1.6-1.6-2.1,0C454.3,111.1,456.1,111.4,456.3,110.1z M460.6,105.9
	c1.3-0.2,3,0.2,3.1-1.1C462.6,105,460.8,104.6,460.6,105.9z M45.1,104.8c-1.3,0.2-3-0.2-3.1,1.1C43.2,105.7,44.9,106.1,45.1,104.8z
	 M362.3,103.7c0,1.4-1.9,1-2.1,2.1C361.4,108.4,365.2,104.7,362.3,103.7z M168.8,102.7c0,1.1,1.9,1.4,2.1,0
	C169.8,102.8,169.3,101.2,168.8,102.7z M367.6,100.6C363.3,96.9,365.1,103.9,367.6,100.6L367.6,100.6z M208,99.5
	c0.3,2.9,1.9,1.9,4.2,4.2c0.1-2,3.5-0.7,3.2-3.1C211.8,101.9,209.7,96.4,208,99.5z M214.3,98.5c-1.3-0.2-2.4-1.9-3.2,0
	C212.4,98.7,213.5,100.3,214.3,98.5z M157.2,95.2c0.5,3-3.9-2.6-4.2,1.1C153.2,100,160.4,97.5,157.2,95.2z M127.6,92.1
	c0-1.1-1.9-1.4-2.1,0C126.7,92,127.1,93.7,127.6,92.1z M364.4,90c0.7,0.4,4.1,2.6,4.3,0C368,89.7,364.6,87.3,364.4,90z M208,89
	c-0.7,0-1.5,0-2.1,0c0,0.7,0,1.4,0,2.1c0.7,0,1.5,0,2.1,0C208,90.4,208,89.7,208,89z M323.2,89C320.6,92.5,326.7,86.4,323.2,89
	L323.2,89z M461.7,81.6C459.1,85.1,465.2,79,461.7,81.6L461.7,81.6z M441.6,80.5c0-1.1-1.9-1.4-2.1,0
	C440.6,80.4,441.1,82.1,441.6,80.5z M456.3,78.3c-1.5-0.4-1.8-1.3-3.1,0c0.2,0.9,0,2.1,1.1,2.1C454.3,79.1,456.1,79.5,456.3,78.3z
	 M457.4,73.1c0.3,1.3,1.2,0.7,2.1,0C459.6,72,457.7,71.8,457.4,73.1z M174.1,68.9c2.6,0.1,5.2,0.2,5.3-2.1
	C177.4,67.2,173,65.3,174.1,68.9z M455.4,62.5c1.2-0.1,1.7,1.6,2.1,0C457.4,61.5,455.6,61.2,455.4,62.5z M70.5,63.6
	c2.1,0,1.4,2.8,4.2,2.1c-0.1-2-0.7-3.5-2.1-4.2C72.7,62.8,70.8,62.4,70.5,63.6z M46.2,49.8c-0.7,0-1.4,0-2.1,0c0,0.7,0,1.4,0,2.1
	c0.8,0,1.5,0,2.1,0C46.2,51.2,46.2,50.5,46.2,49.8z M265.1,49.8c0,1.1,1.9,1.3,2.1,0C266,49.9,265.5,48.3,265.1,49.8z M424.7,47.7
	C422.2,51.3,428.2,45.2,424.7,47.7L424.7,47.7z M364.4,45.6c0.3,1.3,1.2,0.6,2.1,0C366.5,44.6,364.7,44.3,364.4,45.6z M470.1,43.5
	C477,45.7,475.4,39.7,470.1,43.5L470.1,43.5z M321,40.3C318.5,43.9,324.6,37.7,321,40.3L321,40.3z M368.7,39.3
	c0.2,1.3,1.2,0.6,2.1,0C370.7,38.2,368.9,37.9,368.7,39.3z M368.7,26.6C364.4,22.9,366.1,29.9,368.7,26.6L368.7,26.6z M430,19.2
	c1.3-0.2,3,0.2,3.1-1.1C431.9,18.3,430.2,17.9,430,19.2z M74.7,16c0.3,1.3,1.2,0.7,2.1,0C76.9,14.9,75,14.7,74.7,16z M40.9,12.8
	C35.5,15.4,44.6,15.6,40.9,12.8L40.9,12.8z M140,81.5c-0.7,0.8-1.4,1.6-2,2.4c-1,1.2-2,2.4-3,3.6c-1,1.1-2.2,2-3.6,2.5
	c0.3-1.6-4.1-1.5-3.8-0.1c0,0,1.9,0.4,2.7,0.7c-0.1,0.1-0.1,0.2-0.2,0.3c-0.9,0.6-1.8,1.2-2.6,1.9s-1.8,1.4-2.6,2
	c-1.2,1-1.6,2.1-1.2,3.4c1,3.7,1.4,7.3,1.1,11c-0.2,0.5-0.3,1-0.2,1.5c0,0.5,0,1-0.1,1.4c0.1,0.4,0.1,0.7,0.1,1
	c0.1,0.3-0.2,0.5-0.7,0.7c-0.2,0.2-0.3,0.3-0.3,0.6c0,0.2,0,0.4-0.1,0.6c-0.5,1.3-0.9,2.5-1.2,3.9c-0.4,1.4-1,2.6-1.7,4
	c-0.6,0.9-1.2,1.9-1.9,2.7c-0.7,1-1.4,1.9-2,2.8c-0.2,0.4-0.4,0.8-0.7,1.1c-0.2,0.4-0.5,0.9-0.8,1.4c-0.7,1.3-1.7,2.4-2.8,3.4
	c-1.1,1-2.3,2-3.6,2.7c-2,1.5-3.8,3-5.8,4.7c-1.8,1.8-3.8,2.9-6.1,3.8c-1.2,0.5-2.2,0.9-3.4,1.4c-1.2,0.4-2.3,0.7-3.5,0.8
	c-0.3,0-0.7,0.1-1.1,0.3c-0.7,0.6-1.5,0.9-2.4,1.2c-1,0.2-1.9,0.4-2.6,0.7c-0.8,0.4-1.7,0.4-2.7,0.1c-1.4-0.2-2.6-0.4-3.9-0.5
	c-1.4-0.1-2.6-0.2-4.1-0.2c-0.9-0.1-1.8-0.2-2.6-0.3c-1-0.1-1.9-0.4-2.7-0.9c-0.2-0.1-0.4-0.3-0.6-0.5c-0.2-0.1-0.4-0.3-0.5-0.5
	c-0.8-2.7-1.1-5.5-0.8-8.1c0.2-2.5,1.4-5.1,3.4-7.5c1.9-2.1,3.8-4.1,6-6l0.7-0.5h1.8v-1.5c1.5-1.1,2.9-2.1,4.6-3.2
	c3.4-2.1,6.8-4.4,10.2-6.5c3.3-2.2,6.7-4.4,10.2-6.7c0.1,0,0.2,0,0.3-0.1c0-0.1,0.1-0.2,0.2-0.2c1.2-0.5,1.9-1.1,2.1-1.8
	c0.1-0.4,0.2-0.7,0.2-1.1c0.2,0.5,0.4,0.9,0.9,1c2-1,0.3-3.3-1.1-3.1c-0.2-1.9-0.6-3.6-1-5.4c0.8,0.3,2.1,0.4,3.1-1.1l0,0
	c-1.9-0.3-2.8-0.2-3.3,0c-0.1-0.5-0.2-1.1-0.4-1.6c-0.7-2.8-1.9-5.6-3.4-8.3c-1.2-2.1-2.4-4.2-4-6.1c-1.5-2-3.1-3.9-4.8-5.8
	c-0.6-0.7-1.3-1.2-2.1-1.6c-0.8-0.4-1.7-0.7-2.5-1c-2.5-0.8-5-1.4-7.4-2c-2.5-0.5-5-0.9-7.6-1.1c-3-0.3-6.2-0.4-9.7,0
	c-1.1,0.1-2.1,0.3-3.1,0.5c-1,0.3-2.1,0.5-3.2,0.6c-0.8,0.1-1.8,0.2-2.7,0.3c-0.9,0.1-1.9,0.2-2.6,0.4c-0.7,0.1-1.3,0.3-1.9,0.5
	c-0.7,0.2-1.3,0.4-2,0.6c-0.2,0.2-0.4,0.5-0.5,1.2c-0.2,0.5-0.3,0.9-0.3,1.4c0,0.5-0.1,0.9-0.1,1.4c0,0.7,0.2,2.1,0.4,4.2
	c0.2,2.1,0.4,4.5,0.6,7c0.3,2.5,0.4,5,0.6,7.5c0.1,2.4,0.1,4.4,0,5.8c0,0.9,0,1.8,0.2,2.6c0.4,1.5,0.6,2.9,0.7,4.4
	c0.1,1.4,0.1,2.8,0,4.4c-0.2,0.8-0.2,1.3,0,1.7c0.4,1.1,0.6,2.2,0.6,3.3s-0.1,2.2-0.3,3.3c-0.1,0.5-0.1,0.9-0.2,1.2
	c0,0.4,0,0.8-0.1,1.2c0.1,1-0.3,1.5-1.2,1.7c-0.2,0-0.5,0-0.8-0.2c-0.4-0.1-0.6-0.3-0.9-0.5c-0.1,0.1-0.2,0-0.2,0
	c-0.1,0-0.2-0.1-0.3,0c-0.1,0.1-0.4,0.1-1,0c-0.5-0.1-1.2-0.3-1.9-0.5c-0.7-0.3-1.4-0.6-2.1-1c-0.6-0.4-1-0.9-1.2-1.5
	c-0.6-1.9-1.1-3.7-1.5-5.5c-0.2-1-0.3-2-0.3-2.9c0.2,0.3,0.8,0.6,1.6,0.2c0.8-0.4,1.7-1.9,0-1.1c-0.3,0.1-0.8-0.1-1.1,0
	c-0.2,0.1-0.4,0.2-0.5,0.4c0-0.7,0-1.5,0.1-2.1c0.2-1.1,0.4-2.1,0.6-3.3c0.3-1.2,0.3-2.2,0-3.3c-0.7-2.6-1.4-6-2.1-9.8
	c-0.7-3.8-1.3-7.8-2-12.1c-0.5-3.2-1-6.5-1.5-9.8c1.1-0.3,2-1.9,3.2-1.2c0.3,0.1-1.9,2.8,0,3.1c4.5,0.4,2.7-4.9,2.1-5.3
	c0.5,1.6-3.6,1.1-3.1,0c-0.1,0.2,2.9-0.7,2.1-1.1c-1.5-0.7-3.9,1.5-4.9,0.2c-0.6-3.7-1-7.2-1.4-10.3c-0.5-3.5-0.8-6.5-1-8.9
	l-0.1-1.1c0.8,0.1,1.5-0.2,2-1c-0.5-0.1-1.3-0.4-2.1-0.8c-0.1-0.8-0.1-1.4-0.1-1.8c0-0.1,0-0.3,0.1-0.4c0-0.1,0-0.2,0-0.4
	c-0.2-1.8-0.2-3.5,0.3-5.3c0.4-1.7,0.7-3.5,0.9-5.3c0.1-0.5,0.1-1.1,0-2.1c1.8-1,3.9-1.5,6.2-1.2c2.4,0.2,4.4,1,6.1,2.3
	c0.6,0.5,1,1.1,1.2,1.7c0.2,0.6,0.4,1.3,0.6,2c0.1,0.7,0.3,1.5,0.7,2.2c0.7,2,1.3,4,1.6,6.1s0.3,4.1,0.2,6.2c-0.2,2.4-0.3,5-0.3,7.4
	c0,2.1,0,4.2-0.1,6.3c-1.7-0.4-3.1-0.4-3.5,1.9c1.6-0.6,2.6-0.5,3.4-0.4c0,0.4,0,0.8,0,1.2c0,0.5-0.1,1.1-0.1,1.6
	c0.4,0.1,0.7,0.2,0.7,0.2c1.8-0.3,3.5-0.6,5.2-0.9c1.7-0.2,3.4-0.7,5.1-1.3c2.4-0.9,4.8-2,7-3.2c2.1-1.4,4.2-2.8,6.1-4.4
	c1-0.9,1.8-1.8,2.1-2.7c0.5-1,1-2,1.4-2.9c0.2-0.7,0.3-1.1,0.4-1.2c0.2-0.2,0.4-0.5,0.6-0.8c2.3,0.3,3.8-0.3,4.1-2.1
	c-1.5,0.1-2.7,0.5-3.5,1.2c0.1-0.3,0.2-0.6,0.3-0.9c0.2-1,0.3-1.9,0.5-2.9c0-1.1,0.2-2.1,0.6-3.2c0.4-0.9,0.6-1.7,0.7-2.4
	c0.1-0.9,0.2-1.8,0.4-2.6c0-1-0.1-1.9-0.3-2.7c1.7,0.6,4.6,0,4.5-1.1c-2.9,0.8-2.7-1.4-5.1-1.1c-0.5-1.6-1.4-2.9-2.4-4.3
	c-2.6-3-6.1-4.8-10.4-5.5c-1.8-0.2-3.4-0.4-5.2-0.6c-1.5-0.2-2.8-0.3-4.4-0.4c-0.2-0.9-1.6-1.1-2-0.1c-1.9-0.2-3.6-0.2-5.5-0.1
	c-2.1,0-4.3,0.1-6.4,0.1c-2.4,0-4.9,0.1-7.2,0.3c-0.9,0.2-1.9,0.3-2.9,0.5c-1,0.1-2,0.3-2.9,0.6s-1.9,0.7-2.8,1.1
	c-1.3,0.1-2.7-0.2-2.9,1c0.2,0,0.4,0,0.6,0l-0.3,0.1c-1.8,0.9-3.4,1.9-5,2.9c-0.9,0.8-1.8,1.5-2.5,2.2c-0.8,0.7-1.4,1.6-1.9,2.4
	c-0.5,1.3-1.1,2.4-1.7,3.5c-0.5,0.9-0.9,1.8-1.3,2.6c-0.8,0.2-1.1,0.4-0.2,0.8l-0.1,0.1c-0.4,1.1-0.7,2.2-0.8,3.4
	c-0.1,1,0.1,1.9,0.7,2.8l-0.3,0.2l0,0c-1.4,1.9-0.3,1.1,0.5,0.2c0.1,0.1,0.1,0.2,0.2,0.3c0.3,0.3,0.4,0.6,0.5,0.9
	c0.1,0.4,0.2,0.7,0.4,1.1c0.9,1.8,2.3,3.1,4.5,3.9c0.3,0.1,0.7,0.3,0.9,0.4c0.3,0.2,0.7,0.3,1,0.5c-1.2,1.1-2.4,1.3-3.8,0.6
	c-2.9-1.4-5.1-3.1-6.5-5.3c-0.7-0.7-1.2-1.4-1.6-2.2c-0.4-0.8-0.8-1.6-1.3-2.3c-0.2-0.1-0.3-0.5-0.3-0.9c-0.1-3.5,0.4-6.8,1.6-10
	c1.2-3.1,3.4-6,6.7-8.4c5.7-4.3,12-7.5,19-9.8c2.5-0.9,5.1-1.6,7.6-2.1c2.6-0.5,5.3-1,7.9-1.4c1.5-0.3,2.8-0.4,4.2-0.5
	c1.3-0.1,2.7-0.2,4.2-0.2c1.5-0.1,2.8-0.1,4.1-0.1c1.4,0.1,2.8,0.1,4.3,0.1c2.9,0,5.7,0.3,8.4,1c2.6,0.7,5.3,1.6,7.8,2.6
	c1.1,0.4,2.1,0.9,2.9,1.4c-0.1,0.1-0.2,0.3-0.3,0.6c1.1-0.1,1.6,1.2,2,0.4c1.8,1.1,3.2,2.3,4.5,3.8c0.7,0.6,1.2,1.3,1.8,1.9
	c0.5,0.7,1.1,1.3,1.7,2c0.3,0.5,0.6,1.2,0.9,2.1c0.2,0.7,0.3,1.5,0.5,2.1c0.2,0.8,0.3,1.5,0.2,2.2c-0.1,1-0.1,2,0.1,2.9
	c0.2,1,0.4,2,0.5,2.9c0.1,1.8,0,3.4-0.5,5.1v0.1c-0.5,0.2-0.8,0.4-1,0.9c0.2,0.2,0.4,0.3,0.6,0.5c-0.4,1.2-0.8,2.3-1.3,3.5
	c-0.5,1.1-1,2.1-1.6,3c-0.5,1-1.1,2.1-1.7,3c-2,3.6-4.6,6.6-7.7,9.1c-0.4,0.4-0.7,0.7-0.8,1c0.3,0.2,0.7,0.3,1.1,0.5
	c2,0.4,3.7,0.9,5.4,1.3c1.8,0.4,3.5,0.8,5.4,1.2c3.1,0.7,6,1.8,8.5,3.2c2.4,1.5,4.8,3.2,7,5.2c1.3,1.1,2.5,2.2,3.7,3.4
	c1.2,1.1,2.2,2.3,3.2,3.7c0.6,0.9,1.2,1.9,1.8,2.8c0.5,1,1.1,2,1.7,2.8c0.4,0.7,0.8,1.4,1.2,1.9c0.3,0.6,0.7,1.2,1.1,1.9
	c0.4,0.6,0.8,1.2,1.2,1.7c0.3,0.6,0.7,1.2,1.1,1.9c0.3-0.1,0.8-0.4,1.4-0.8c1.8-1.4,3.5-2.8,5.3-4.3c1.8-1.5,3.3-3,4.7-4.8
	c0.4-0.5,0.9-1,1.4-1.4c0.5-0.4,1-0.8,1.5-1.2c1.3-1.1,2.5-2.1,3.7-3.2l0.4-0.4l0.7-2.8c0.2-1,0.5-2.1,0.9-3c0.3-1,0.5-2.1,0.7-3
	c0.8-4,2.5-7.7,5.1-11.1c0.8-1,1.7-2.1,2.4-3.4c0.6-0.9,1.4-1.7,2.2-2.3s1.9-1.2,2.8-1.7l3.9-1.9c1.3-0.6,2.4-1,3.6-1.1
	c1.2-0.2,2.3-0.5,3.5-0.9c0.7,0,1.2-0.2,1.6-0.3c1-0.5,1.9-0.7,2.8-0.8c1,0,2,0,3,0.1c0.8,0.1,1.5,0.3,2.1,0.7
	c0.6,0.4,1.3,0.9,1.9,1.5c0.4,0.6,0.8,1,1.2,1.5c0.5,0.5,0.8,0.9,1.1,1.5c1.2,1.7,1.1,3.3-0.3,4.8c-0.3,0.3-0.9,0.6-1.7,0.6
	c-0.4,0.2-0.8,0-1.1-0.7c-0.3-1.3-0.9-2.3-1.8-3.1c-0.9-0.9-1.8-1.7-2.7-2.5l-0.5-0.5c-2.1-0.4-4-0.3-5.8,0.4
	c-1.6,0.5-2.9,1.1-4.2,1.9c-1.4,0.8-2.3,2-3.1,3.5c-1.1,2.1-2,4.5-2.5,6.8c-0.6,2.4-1.3,4.8-2.1,7c-0.4,1.1-0.7,2.2-0.9,3.3
	c-0.3,1.2-0.6,2.2-1,3.4c-0.7,2.6-1.2,5.3-1.5,7.8c-0.4,2.5-0.1,5.1,0.8,7.7c0.5,1.5,1.7,2.6,3.5,3.4c1.9,0.8,3.5,0.7,4.9-0.1
	c1.9-1.1,3.4-2.8,4.9-5.4c1.5-2.6,2.6-4.8,3.5-6.6c0.2-0.6,0.3-1.2,0.4-1.9c0-0.6,0.1-1.2,0.3-1.9c0.9,1,2.2,1.2,2.5-0.4
	c-1.3,0.2-1.9-0.4-2.2-1c0-0.3,0.1-0.6,0.1-0.8c0-0.8,0.2-1.4,0.4-2c0.1-1,0.3-2.1,0.7-3c0.3-1,0.6-2.1,0.9-3
	c0.2-1.1,0.5-2.1,0.8-3.2c0.4-1,0.6-2.1,0.7-3.1c0.5-1.9,1.4-2.8,2.6-3.1c0.6-0.2,1.1-0.4,1.6-0.6c0.6-0.1,1.1-0.2,1.7-0.4
	c1.3-0.2,2.1,0.2,2.6,1.4l0.6,0.9c0.3,0.9,0.2,1.7-0.2,2.4c-0.4,0.7-0.4,1.5,0.2,2.3c0.1,0.4,0.2,0.8,0.2,1.2
	c-0.1,0.4-0.1,0.8,0,1.3c0.1,1.7,0,3.6-0.4,5.8c-0.3,2.1-0.6,4.1-0.8,6c-0.2,2-0.3,3.7-0.3,5.2c0,1.6-0.1,3.3-0.3,5.3
	c-0.2,0.7-0.3,1.3-0.3,2c-0.1,0.6-0.2,1.2-0.2,1.9c-0.2,1.3-0.3,2.4-0.3,3.7s-0.1,2.5-0.2,3.8c-0.1,0.6-0.1,1.1-0.1,1.7
	c-0.1,0.5,0,1,0,1.5c0,0.4,0,1,0,2c-0.1,0.9,0,1.9,0.1,2.7c0.1,0.9,0.5,1.6,1,2c0.6,0.5,1.5,0.4,2.6-0.3c0.6-0.4,1.6-1.4,2.9-2.7
	c1.3-1.4,2.1-2.3,2.5-2.9c0.8-1.3,1.8-2.9,2.8-4.8c1.1-2,2-3.6,2.5-5.2c1.1-2.8,2.3-6.2,3.8-10.1c1.4-3.6,2.5-6.7,3.6-9.5
	c0.1-1.6,0.4-3,0.7-4.5c0.4-1.9,0.7-3.8,0.8-5.8c0.1-0.3,0.1-0.4,0.1-0.5c0,0,0.1-0.2,0.2-0.4c0.1-0.9,0.3-1.9,0.5-2.8
	c0.2-1,0.5-2,0.9-2.8c0.4-1.1,0.8-2.1,1.2-3.1c0.3-1,0.7-2,1.1-2.8c0.4-1,0.8-1.8,1.1-2.4c0.4-0.7,0.8-1.5,1.2-2.2
	c0.2-0.5,0.2-0.8,0.2-0.9c0.5-0.9,1.1-1.7,1.8-2.3c0.6-0.7,1.4-1.4,2.1-2c1.1-0.7,2.1-1.3,3.1-1.9c1-0.5,2-1.1,3-1.7
	c0.6-0.2,1.2-0.5,1.8-0.7c0.6-0.1,1.3-0.4,1.9-0.7c0.6-0.1,1.2-0.3,1.9-0.4c0.7-0.2,1.3-0.3,1.9-0.5c0.4-0.1,1.1-0.3,2-0.4
	c1.8-0.4,3.5-0.5,5.1-0.2c1.6,0.3,3.2,0.7,4.9,1.3c0.2,0.1,0.5,0.2,0.8,0.3c0.3,0.1,0.5,0.3,0.8,0.5c0.6,0.3,0.9,0.7,1,1.4
	c0.1,0.3,0.2,0.6,0.4,1c0.1,0.3,0.2,0.6,0.4,0.9c0.3,0.5,0.5,1.1,0.7,1.6c0.2,0.5,0.3,1.1,0.2,1.8c-0.2,0.3-0.2,0.5,0.1,0.9
	c0.1,0.8,0,1.7-0.2,2.3c-0.3,0.8-0.5,1.5-0.8,2.1c-0.4,0.7-1.1,1.2-2.1,1.6c-0.9,0.4-1.7,0.5-2.2,0.4c-0.5-0.2-0.7-0.5-0.6-0.8
	c0.1-0.6,0.1-1.1,0.1-1.7c-0.1-0.5,0-1.1,0.2-1.7c0.2-0.7,0.2-1.3,0-1.9c-0.1-0.6-0.3-1.2-0.5-1.9c0-0.5-0.3-1-0.9-1.5
	c-0.4-0.2-0.8-0.4-1.1-0.7c-0.4-0.2-0.9-0.4-1.5-0.6c-0.6-0.1-1.1-0.3-1.5-0.5c-0.4-0.1-0.9-0.3-1.5-0.5c-0.7-0.2-1.3-0.2-1.7,0.2
	c-0.4,0.4-0.8,0.8-1.2,1.1s-0.8,0.6-1.2,1c-0.5,0.4-0.8,0.8-1,1.3c-0.5,2-1.4,3.7-2.6,5.4c-1,1.3-1.7,2.7-2.1,4.5
	c-0.1,0.9-0.3,1.7-0.6,2.3c-0.3,0.8-0.5,1.6-0.7,2.4c-0.2,0.5-0.3,0.9-0.3,1.2c-0.1,1.2-0.3,2.2-0.5,3.3c-0.2,1-0.4,2.1-0.7,3.2
	c-0.2,0.7-0.3,1.4-0.5,2.1c-0.2,0.8-0.3,1.6-0.4,2.2c0,0.3,0,0.5-0.1,0.9c-0.1,0.3-0.2,0.6-0.3,0.9c-0.4,1.6-0.7,3.1-0.8,4.8
	c0,0.9-0.1,1.8-0.2,2.5c-0.1,0.9-0.3,1.7-0.4,2.5c-0.1,0.2-0.2,0.4-0.2,0.7c0,1.3,0,2.3,0,3.4c0.1,1.1,0.1,2.2,0.2,3.3
	c-0.1,0.5,0.1,1.2,0.3,2.1c0.1,0.5,0.1,0.8,0.1,0.8c-0.2,0.7-0.1,1.4,0.1,2c0.2,0.7,0.3,1.3,0.4,2v0.4c-1.1,0-2.5,0.5-3.3,0.2
	c-0.7-0.2-0.8-2.1-2.1-2.1c-1.2,0.1-4.1,1.4-3.1,3.1c4.4-1.8,6.2,0.1,8.8,2.1c0.1,0.5,0.3,1,0.5,1.4c0.3,0.3,0.5,0.7,0.5,1.1
	c0.1,0.4,0.3,0.7,0.6,1.2c0.1,0.4,0.3,0.8,0.4,1.3c0.2,0.4,0.4,0.9,0.6,1.4c0.4,0.7,1,1.4,1.7,2c1.3,0.7,2.3,0.8,3.3,0.3
	c0.6-0.3,1.1-0.5,1.5-0.5c1.4-0.4,2.8-1,4.1-1.7s2.5-1.5,3.9-2.3c0.5-0.4,1-0.8,1.4-1.3c0.4-0.5,0.9-1.1,1.3-1.7
	c0.6-0.8,1.2-1.6,1.9-2.3c0.6-0.7,1.2-1.4,1.9-2.1c0.8-1,1.7-2,2.4-2.9c0.9-1,1.7-2.1,2.5-2.9c1.1-1.5,2.2-2.9,3.3-4.3
	c1.1-1.4,2.1-2.7,3-4.2c-0.1-0.4-0.2-0.8-0.2-1.2h0.1c0-3.2,6.6,1.6,3.1-1.1c0.1-1.6-2.1-1.5-3.5-0.9c-0.1-1.1-0.1-2.2-0.1-3.4
	c0.1-2,0.4-4,0.8-6.1c0.2,0.1,0.5,0,0.8-0.2c0.1-0.2-0.1-0.5-0.6-0.8c0.1-0.4,0.2-0.9,0.3-1.3c0.5-2.1,1.1-4,1.8-6
	c0.8-1.9,1.5-3.8,2.2-5.8c0.3-1.1,1-2.2,2-3.3c0.5-0.6,1-1.3,1.5-2c0.4-0.7,0.9-1.4,1.4-2.1c0.6-0.7,1.1-1.2,1.7-1.7
	c0.6-0.4,1.2-0.9,1.7-1.4c0.9-0.8,1.8-1.5,2.6-2.1c1-0.7,1.9-1.4,2.8-2.1c0.7-0.5,1.5-0.8,2.4-0.8c1.8,0.1,3.3,0.4,4.9,1.2
	c0.1,0.7,0,1.5-0.4,2.1c-3-0.7-2.7,1.6-1.3,1.7c-0.1,0.2-0.2,0.3-0.2,0.5c-0.2,0.5-0.4,1-0.7,1.4c-1.6-0.8-3.7-1.6-1,0
	c0.1,0.1,0.2,0.3,0.4,0.6l-0.1,0.1c-0.2,0.6-0.5,1.1-0.8,1.5c-0.3,0.4-0.6,0.9-0.8,1.4c-0.2,0.7-0.5,1.4-0.7,2.1
	c-0.3,0.8-0.5,1.6-0.6,2.4c-0.4,1.8-0.7,3.6-1,5.4s-0.7,3.5-1.1,5.3c-0.4,1.3-0.7,2.4-0.9,3.6c-0.2,1.2-0.4,2.3-0.7,3.6
	c-0.2,1.3-0.6,2.3-1,3.4c-0.4,1.1-0.7,2.2-0.9,3.5c0.1,0.1,0,0.4-0.2,0.8c-0.7,1-1,2-1.1,3c-0.1,1,0,2.1,0.2,3.1
	c0.2,1.2,0.3,2.3,0.5,3.4c0.1,1.1,0.3,2.1,0.7,3.3c0,0.8,0.5,1.4,1.3,1.8c0.4,0.3,0.8,0.6,1.2,0.9c0.4,0.3,0.8,0.6,1.2,0.9
	c0.9,0.6,1.7,0.6,2.5,0.2c1.5-0.7,2.8-1.4,4.1-2c1.3-0.6,2.5-1.4,3.7-2.5c0.5-0.5,1.2-0.9,1.9-1.4c0.7-0.5,1.3-1,1.8-1.6
	c0.5-0.3,0.8-0.6,1.1-1c0.2-0.4,0.5-0.7,0.9-1.1c1.3-1.6,2.3-3.1,3.1-4.6c0.1-0.1,0.2-0.2,0.2-0.3c0.3-1.1,0.7-2.1,1.3-2.9
	c0.1-0.3,0.2-0.5,0.1-0.6c0-0.2,0.1-0.4,0.2-0.6c-0.6-0.2-1.2-0.4-1.6-0.7c-0.5-0.3-1.1-0.5-1.7-0.8c-3.1-1.7-5.8-3.5-7.8-5.7
	c-0.5-0.5-1-1-1.4-1.6c-0.5-0.6-0.9-1.1-1.3-1.6c-1.3-2-2.1-3.9-2.3-6c-0.4-2.1-0.3-4.2,0.1-6.3c0.1-1.4,0.4-2.6,0.9-3.8
	s1-2.4,1.4-3.6c0.1-0.3,0.2-0.4,0.2-0.4c0.7-0.3,1.2-0.7,1.6-1.3s1-1,1.8-1.2c0.3-0.1,0.8-0.2,1.3-0.3c-0.2,0.2-0.2,0.7-0.2,1.4
	c-6.1-0.3-0.7,2.4,1.1,0c0.1-0.8-0.1-1.4-0.4-1.6l0.3-0.1c1.2-0.4,2.2-0.4,3.2,0h0.1c-0.3,0.8-0.1,1.6,1,1.7c0.6,0,1.1-0.3,1.5-0.7
	L288,46c1.3,0.6,2.5,1.1,3.9,1.7c1.4,0.6,2.4,1.5,3.1,2.6c0.7,1,1.2,1.9,1.6,2.7c-0.3,0-0.6,0-0.9-0.1c0.3-1.7-1.5-2.8-2.1-1
	c0.4,1.2,2,1.7,3.2,1.8c0.4,0.8,0.5,1.8,0.6,2.7c0.2,0.5,0.3,1,0.4,1.4c0.1,0.3,0.2,0.7,0.3,1.2c0.3,0.9,0.6,2,0.7,3.1
	c0.2,1.1,0.2,2.1,0.2,3.1c-0.1,0.9-0.3,1.7-0.6,2.3c-0.4,0.7-0.6,1.5-0.6,2.1c-0.2,0.6-0.3,1.2-0.3,1.7c0.1,0.6,0,1.2-0.2,1.9
	c0.3,0,0.5,0,0.7,0.1c0.1,0.1,0.3,0.1,0.6,0.1c0.5-0.1,1.1-0.2,1.7-0.3c0.5-0.1,1.1-0.2,1.7-0.4c3.3-0.9,6.4-2.4,9.4-4.5
	c1.3-0.9,2.5-1.9,3.7-2.9V65c-0.2-1.4-0.4-2.7-0.5-4l-0.1-1.7h0.3c1.8-1,0.8-1.9-0.5-2.3v-0.1c0-0.5-0.1-1-0.1-1.4
	c0-0.4-0.1-0.8-0.3-1.4l-0.1-1.1c0.1-2.2,0.1-4.5,0-6.7c0-2.2,0-4.6,0-6.8c0-1.3,0-2.6,0-4c0.1-1.4,0.1-2.7,0.3-4
	c0-0.6,0.1-1.2,0.2-1.8c0-0.6,0.2-1.2,0.4-1.8c0-0.8,0.5-1.3,1.6-1.7c2.1-0.6,4.2-0.5,6.1,0.2c0.2-0.1,0.4,0,0.4,0.3
	c0.2,0.4,0.6,0.7,1,0.9c0.4,0.1,0.8,0.3,1.2,0.5c0.1,0.3,0.2,0.7,0.4,1c0.1,0.4,0.3,0.8,0.4,1.1c0.3,0.2,0.4,0.3,0.4,0.3
	c1.4,0.5,2.2,1.6,2.5,3.1c0.1,1,0.2,2,0.2,3c0,1,0.2,2,0.7,2.9c0.2,0.8,0.6,1.7,1,2.4c0.4,0.7,0.5,1.6,0.4,2.4
	c-0.1,1.2-0.1,2.3,0,3.3c0,1.1-0.1,2.1-0.2,3.2c-0.1,0.8-0.2,1.5-0.2,2.2c-0.7,0.2-1,0.8-0.8,1.9c0.2,0,0.5,0,0.7,0
	c-0.1,1.2,0,2.3,0.2,3.6c0,0.5,0.2,1,0.4,1.4c0.2,0.5,0.3,0.9,0.3,1.5c0.1,0.5,0.1,1.1,0,1.8c-0.1,0.6,0,1.2,0.1,1.7
	c0.3,1.5,0.4,2.9,0.4,4.4c0,0.6,0.1,1.3,0.1,1.9c0.1,0.6,0.2,1.2,0.3,1.9c0.4-0.1,0.6-0.2,0.6-0.4c0-0.1,0.1-0.3,0.2-0.6
	c0.6-1.3,1.2-2.5,1.7-3.8c0.5-1.3,1.1-2.6,1.7-3.9c0.2-0.4,0.4-0.8,0.5-1.2c0.2-0.3,0.3-0.7,0.5-1.2c0.2-0.5,0.5-1.3,0.9-2.3
	c0.2-0.6,0.4-1.3,0.6-1.9c0.3-0.7,0.5-1.4,0.8-2c0.3-0.5,0.7-1.2,1.1-2.1l4.8-10.3l0.6-1.1c1.2-0.1,2.6,0.1,2.8-1.1
	c-0.8,0.1-1.8,0-2.4,0.2l0.4-0.7c0.5-0.9,1-1.8,1.5-2.7c0.5-0.9,1-1.8,1.6-2.6c0.5-0.9,1.1-1.8,1.6-2.7c1.2-1.8,2.3-3.2,3.4-4.3
	c2.1-2.3,5-3.5,8.5-3.7l4-0.4c1.2-0.3,2.4,0,3.6,0.7c0.6,0.5,1.2,1,1.7,1.4c0.6,0.5,1.2,0.9,1.8,1.4c0.7,0.8,1.1,1.4,1,1.9
	c-0.1,0.6,0,1,0.1,1.4c0.1,0.4,0.4,0.8,0.6,1.4c0.7,1.6,1.2,3.5,1.4,5.9c0.3,2.3,0.4,4.5,0.3,6.3c-0.1,0.8-0.1,1.6-0.2,2.2
	c-0.1,0.8-0.2,1.6-0.3,2.3c-0.7,3.8-1.3,7.5-2,11.2c-0.7,3.7-1.3,7.5-1.8,11.4c-0.5,3.8-0.8,7.7-0.8,11.6s0.1,7.8,0.2,11.6
	c-0.1,0.7-0.1,1.5-0.1,2.1c0,0.7,0,1.4,0.2,2.1c0,0.3-0.1,0.7-0.2,1.2c0,0.3,0,0.6,0.1,0.7c0.1,0.2,0.3,0.5,0.7,0.9l0.4-0.6
	c0.3-0.2,0.4-0.4,0.4-0.5c0.1-0.2,0.2-0.3,0.4-0.6c0.9-1.6,1.9-3.2,2.7-4.9c0.9-1.6,1.7-3.2,2.4-4.8c1.1-2.3,2.1-4.6,3-6.7
	c1-2.1,2-4.4,2.9-6.6c0.2-0.4,0.4-0.9,0.6-1.3c0.5,0.3,1.4,0.1,1.6-0.8c-0.5,0-0.8-0.2-1.1-0.4c0.6-1,1.2-2.1,1.9-3.1
	c0.6-1,1.2-2,1.7-3c0.5-1.1,1-2.1,1.5-3.2c0.5-0.9,0.9-1.8,1.2-2.6c0.2-0.4,0.3-0.7,0.5-1.1c1,0.2,2.1,0.5,1.8,0.8
	c1.5-1.5,0.2-2.1-1.1-2.1l0.1-0.2c0.3-0.6,0.6-1.2,0.9-1.8c0.3-0.6,0.6-1.2,0.9-1.8c0.1-0.2,0.2-0.5,0.3-0.8v2.3
	c2.1,0.2,3.1-0.6,3.2-2.3v0.4c-0.1,1.5-0.4,2.8-0.9,4c-0.4,1.1-0.7,2.1-0.9,3.1c-0.2,1-0.5,2-1,2.8c-0.4,0.9-0.8,1.8-1.1,2.5
	c-0.4,0.9-0.8,1.7-1.3,2.4c-1.2,2.3-2.2,4.7-3.2,7c-0.8,2-1.6,3.8-2.3,5.7c-0.3-0.2-0.6,0-1,0.8c0.1,0,0.1,0.3,0.3,0.8
	c-1.2,2.5-2.2,5.2-3.3,7.8c-1.1,2.6-2.5,5.2-4.3,7.7c-1.7,2.3-4,4.5-6.7,6.3c-2.8,1.9-5.8,2.7-8.8,2.5c-2-0.2-3.4-1.3-4.5-3.1
	c-0.2-0.6-0.6-1.3-0.9-1.9c-0.1-0.2-0.2-0.5-0.3-0.7c0-0.2,0-0.3-0.1-0.5H359c-0.1-0.3-0.2-0.6-0.3-0.9c-0.9-3.4-1.5-7-1.8-10.7
	l-0.3-3.4c0.6,0.1,1.4,0.2,1.4,0.3c2.6,1.3,0.1-1.1-1.5-1.3c-0.1-5.9,0.3-11.9,1.2-18c0.2-1.3,0.3-2.5,0.4-3.8
	c0.2-1.2,0.3-2.4,0.4-3.7c0.2-1.5,0.3-3.1,0.4-4.7c0.2-1.7,0.3-3.3,0.5-4.8c0.1-1.3,0.2-2.4,0.4-3.7c0.1-1.3,0.2-2.5,0.4-3.7
	c0.1-1.6,0.2-3,0.3-4.4c0.1-1.4,0.1-2.8,0-4.3v-0.9c-0.9,0.5-1.6,0.9-2.1,1.4c-0.2,0.2-0.4,0.5-0.6,0.9c-0.2,0.3-0.4,0.6-0.5,0.9
	c0,0.4-0.2,0.7-0.4,0.9c-0.2,0.3-0.3,0.5-0.4,0.6c0,0.2-0.2,0.4-0.4,0.7c-1.2,0.9-2.1,2.1-2.7,3.6c-0.7,1.6-1.4,2.9-2.1,4.2
	c-0.9,1.7-1.9,3.2-2.8,4.8c-1.1,1.5-2.1,3-3,4.7c-0.9,1.6-1.8,3-2.3,4.6c-0.7,1.6-1.4,3.1-2.1,4.7c-0.6,1.5-1.2,2.9-1.9,4.4
	c-0.7,1.5-1.3,2.9-1.8,4.4c0.1,0.1,0,0.1-0.1,0.1c-0.5,0.7-0.9,1.3-1,2.1c-0.1,0.7-0.2,1.5-0.4,2.2c-0.1,0.5-0.2,1-0.4,1.5
	c-0.2,0.5-0.4,1-0.6,1.4c-0.2,0.6-0.4,1.1-0.6,1.6s-0.1,0.9,0.1,1.5c0.1,0.2,0,0.5-0.2,1c-0.2,0.6-0.5,1.2-0.8,1.8
	c-0.3,0.7-0.6,1.4-0.8,2.1c-0.3,0.6-0.8,0.8-1.5,0.8c-0.7-0.1-1.4,0-2.1,0.6c-0.3,0.3-0.5,0.5-0.6,0.5c-0.7,0-1.3,0.1-1.8,0.5
	c-0.5,0.3-1,0.6-1.6,0.9c-0.9,0.5-1.7,0.8-2.4,0.8c-0.8,0-1.7-0.1-2.5-0.2c-0.6-0.1-1.2-0.6-1.7-1.5c-0.1-0.3-0.2-0.7-0.3-1
	c0-0.2,0-0.5-0.1-0.7c0.2,0,0.4,0,0.7,0c0.5-1-0.2-1.6-1.1-1.9c-0.1-0.2-0.1-0.5-0.1-0.7c-0.2-0.8-0.2-1.6-0.3-2.3s-0.2-1.4-0.3-1.7
	c0-0.2,0-0.4,0-0.7c0.1-0.3,0-0.6-0.1-0.8c-0.4-1.4-0.6-2.7-0.7-4.1c-0.1-1.3-0.2-2.6-0.3-4.1c-0.1-0.6-0.1-1.1-0.3-1.5
	c-0.2-0.8-0.3-1.8-0.4-2.7l-0.1-1.3c-0.2,0.1-0.3,0.2-0.5,0.2c-1.5,0.8-2.9,1.6-4.2,2.5c-1.3,1-2.6,1.8-4.2,2.5
	c-1.3,0.7-2.5,1.2-3.7,1.6c-1.8-2.9-7.6-2.6-10.3-1c0.8,1.8,1.1,3,1.3,4l-0.1,0.2c-0.4,0.8-0.8,1.7-1,2.4c-0.3,0.8-0.6,1.7-0.9,2.5
	c-0.5,1.3-1.2,2.2-2.1,3.1c-0.9,0.9-1.7,1.9-2.2,2.9c-0.6,0.7-1.1,1.4-1.6,2.1c-0.5,0.8-1.1,1.5-1.8,2c-0.7,0.6-1.4,1.2-2,1.9
	c-0.6,0.6-1.2,1.2-2,1.9c-1,0.6-2,1.3-2.9,2c-0.1,0.1-0.2,0.2-0.4,0.3c0.1-0.2,0-0.5-0.2-1c0.2,0.4-6.1-3.4-3.2-1.1
	c0.1,0.1,2.3,2.1,3.1,2.2c-0.8,0.4-1.7,0.6-2.5,0.7c-1.3,0-2.5-0.2-3.8-0.7c-1.3-0.5-2.5-0.9-3.6-1.3c-2-0.8-3.8-1.9-5.8-3
	c1.8,0,2.9-0.7,3.1-2.2c-1.5-0.3-2.1-1.5-4.3-1v2.4l0,0c-2.2-1.7-4.1-3.4-5.5-5.5c-0.7-1.2-1.2-2.3-1.6-3.6c-0.1-0.3-0.2-0.7-0.3-1
	c-0.2,0.2-0.3,0.5-0.5,0.8c-0.4,0.7-0.9,1.4-1.4,2l-0.1,0.2c-0.7,1.4-1.7,2.5-2.7,3.5c-1.1,1-2.1,2.1-3,3.2l-1.4,2.1
	c-0.8,1.3-1.7,2.5-2.6,3.6c-0.9,1.2-2.1,2.1-3.3,3.1c-1.5,1.1-3,2.1-4.6,3.2c-1.6,1.1-3.2,2-5.1,2.7c-1.5,0.6-2.8,1.1-4.3,1.7
	c-1.4,0.5-2.9,1-4.4,1.4c-1.2,0.1-2.1,0.1-2.5,0c-1-0.4-1.7-0.6-2.1-0.6c-1.7-0.6-3.3-1.5-4.7-2.6c-0.6-0.6-0.9-0.9-1-1
	c-1.2-0.9-2.1-1.9-2.7-3c-0.7-1.1-1.3-2.2-1.9-3.5c-0.2-0.4-0.4-0.8-0.5-1.1c-0.1-0.3-0.2-0.7-0.5-1.1c-0.4-1.1-0.7-2.2-0.8-3.5
	c-0.2-1.3-0.3-2.6-0.4-3.9s-0.2-2.5-0.3-3.7c-0.3-1.1-0.5-2.1-0.4-2.9v-0.3l-0.2,0.5c-0.9,2.6-2,5.4-3.1,8.3c-1.1,2.9-2.4,5.8-4,8.5
	c-1.5,2.8-3.3,5.4-5.3,7.6c-2.1,2.2-4.4,4.1-7.1,5.4c-1.4,0.6-3,0.9-5.1,0.9c-2,0-3.6-0.4-4.8-1.3c-0.7-0.4-1.3-0.9-1.7-1.7
	c-1.3-1.6-2.1-3.3-2.4-5.2c-0.3-1.9-0.5-3.8-0.6-5.8c0-1.5,0-3,0-4.5c0-1.6,0.1-3.1,0.2-4.6l-0.1-1.5c-0.3,0.2-0.5,0.4-0.7,0.6
	c-0.2,0.2-0.4,0.4-0.6,0.7c-1,1-2,1.9-3.1,2.7c-1.1,0.8-2.4,1.4-4,1.7c-1,0.2-2,0.5-2.9,0.9c-0.9,0.4-1.9,0.7-2.8,0.9h-0.2
	c0.1-0.1,0.2-0.3,0.3-0.5c0-1.1-1.9-1.4-2.1,0c0.7-0.1,1.1,0.4,1.5,0.6c-1.7,0.2-3.3,0.2-4.9-0.2c-1.7-0.3-3.2-1.3-4.6-2.9
	c-0.2-0.2-0.4-0.4-0.6-0.7h1.2c1.2-1.9-1.1-2.6-2.3-2.2l-0.2-0.4c-1.3-3.6-1.7-7.1-1.2-10.8C139.9,83,140,82.3,140,81.5z M32.3,68.8
	v-0.3c0,0.1,0.1,0.2,0.2,0.4C32.4,68.8,32.4,68.8,32.3,68.8z M216.7,97.4L216.7,97.4c0,0.2,0,0.4,0,0.5c-0.2-0.1-0.3-0.3-0.3-0.5
	C216.4,97.5,216.6,97.4,216.7,97.4z M396.6,55.1c0.3-0.5,0.5-1,0.7-1.5c0.1-0.4,0.2-0.7,0.4-1c0.8-0.2,1.6-0.4,2.2-0.6v0.1
	c-0.3,0.6-0.5,1.2-0.5,1.7c0,0.5-0.1,1-0.1,1.5v-0.2H396.6z M399.7,49.9c0.3,0,0.7,0.1,1.1,0.2l-0.1,0.1
	C400.4,50.1,400,50,399.7,49.9z M103.7,119.6c0.5-1.4,0.9-2.6,1.3-3.8c0.3-1.3,0.4-2.5,0.4-3.9l-0.5-0.2c-1.1,0.7-2.3,1.5-3.6,2.1
	c-1.3,0.7-2.4,1.5-3.5,2.2c-1.8,1.2-3.4,2.3-5.1,3.5c-1.7,1.3-3.3,2.4-5.1,3.7c-1.5,1-2.7,1.9-4.1,2.7c-1.3,0.9-2.6,1.8-4.1,2.7
	c-0.8,0.5-1.6,1.1-2.1,1.7c-0.7,0.6-1.4,1.2-2.2,1.7c-1.8,1.6-2.6,3.6-2.6,5.9c-0.1,1-0.1,1.9,0.2,2.6c0.2,0.8,0.5,1.7,0.8,2.5
	c0,0.1,0,0.2,0.1,0.3c0,0.1,0.1,0.1,0.1,0.2c0.6,0.7,1.6,1.2,2.8,1.5c1.4,0.4,2.5,0.4,3.7,0c0.3-0.1,0.6-0.2,0.9-0.3
	c0.1,0.2,0.1,0.3,0.1,0.2c0.3,1,0.5,0.9,1.1,0c-0.3,0.5-0.5,0.2-0.6-0.4c1.9-0.7,3.7-1.5,5.5-2.4c4.1-2.3,7.4-5.6,10-9.6
	c0.4-0.6,0.7-1.3,1-1.9c0.2-0.6,0.6-1.3,1.1-2C100.8,125.8,102.3,122.8,103.7,119.6z M291.1,73c0.3-0.5,0.6-0.9,0.9-1.3
	c0-0.1,0.1-0.2,0.1-0.3c2.7,1.9,2.5-3.3,0-1.1v-0.1c0-0.4,0-0.8,0.1-1c0.6-0.8,1-1.9,1.1-3c0.1-1.3,0-2.2-0.2-3.1
	c-0.2-1.2-0.4-2.4-0.5-3.9c-0.2-1.5-0.7-2.7-1.5-3.9c-0.4-0.4-0.7-0.9-1.1-1.3c1.2-0.1,2.4,0,2.5-1.1c-1,0.2-2.3,0-2.9,0.5
	c-0.4-0.6-0.7-1.3-1-2.1v-0.2c-0.3-0.1-0.4-0.2-0.5-0.3c-0.1-0.1-0.2-0.1-0.4-0.1c-0.5,0.1-0.8,0.3-0.8,0.8
	c-0.1,0.2-0.2,0.5-0.2,0.8c-0.1,0.2-0.1,0.3-0.1,0.5c-0.7-0.5-0.6-1.8-1.6-2c-0.7,1.3,0.1,2.9,1,3.2c-0.5,1.5-0.9,3-1,4.7
	c0,0.2-0.1,0.5-0.3,1c-0.8,2.1-0.9,4.2,0,6.2c0.8,2.1,2,3.8,3.4,5.3c0.5,0.4,1,0.8,1.4,1.1C290,72.8,290.5,73,291.1,73z M404.4,14.3
	c-0.5-0.2-0.9-0.4-1.3-0.6c-0.4-0.2-1-0.3-1.6-0.3c-0.5-0.3-0.8-0.3-1,0c-0.5,0.2-1,0.2-1.7,0.1c-0.6-0.1-1.3-0.2-1.9-0.2
	c-2.8-0.5-5,0.4-6.2,2.7c0.3,1.6,0.7,3.1,0.9,4.7c0.3,1.6,0.7,3.1,1.2,4.7c1,1,1.8,1.9,2.2,2.5c0.2,0,0.3,0.1,0.5,0.3
	c0.8,0,1.7,0,2.5,0.1c0.3,0,0.6-0.1,0.8-0.1c-1.1,2.1-3.2,4.4-3.6,5.4c-0.1,0.3-0.1,0.5-0.1,0.7l0,0c0.3,0.3,0.5,0.7,0.8,0.9
	c0.6-0.1,1.2,0.3,1.2,0.9l0.4,0.2c0.6-0.3,1.1-0.7,1.5-1.2c0.4-0.6,0.9-1,1.5-1.3c1.5-1,2.4-2.5,2.8-4.6c0.5-0.8,0.8-2.1,1-4.1
	c0-0.3,0.2-6.7,0.2-6.7c-0.2-0.7-0.2-1.4,0-2.1C404.6,15.7,404.6,15,404.4,14.3z M448.3,73.5c-0.8,0.4-1.4,1-2,1.6
	c-0.5,0.7-1,1.4-1.5,2c-0.5,0.6-0.8,1.1-1.1,1.5c-0.4,0.4-0.8,0.9-1.3,1.4c-0.3,0.4-0.7,0.7-1.1,1.1c-0.3,0.4-0.7,0.8-1,1.3
	c-0.1,0.3-0.5,0.8-1.1,1.3c-1.2,1-2.1,2.1-3,3.1c-0.8,1.1-1.6,2.1-2.4,3.3c-0.4,0.6-0.8,1.2-1.1,1.7c-0.4,0.6-0.7,1.2-0.8,1.9v0.1
	c-0.5,0.5-0.7,1.1-0.8,1.6c-0.1,0.6-0.2,1.2-0.4,1.7c-0.1,0.7-0.3,1.4-0.3,2c-0.1,0.4-0.2,0.8-0.2,1.3c-0.3,0.1-0.4,0.3-0.5,0.7
	c0.1,0,0.2-0.1,0.3-0.1v0.1c-0.1,0.4-0.1,0.8-0.2,1.1H430c-1.9,4.2-2.3,3.4-3.2,7.3c2.1-0.2,2.3,1.2,4.3,1.1
	c-0.1-0.4-0.2-0.8-0.2-1.2c0.3,0.4,0.6,0.7,1,0.9c0.7,0.4,1.5,0.5,2.3,0.2c0.6-0.1,1.2-0.3,1.9-0.6c0.2-0.1,0.4-0.2,0.6-0.2
	c0.3,0,0.5-0.1,0.7-0.3c2.1-0.5,3.7-1.4,5.2-2.6c0.9-0.7,1.8-1.3,2.5-2c0.8-0.6,1.6-1.3,2.4-1.9c0.6-0.5,1.3-0.9,2.1-1.3
	c0.1,0,0.3-0.1,0.5-0.2c0.2,0.7,0.2,1.6,0,2.7c4.2-0.1,2.7-1.9,1.4-3.6c0.4-0.4,0.9-0.8,1.4-1.2c0.3-0.4,0.6-0.9,1-1.5
	c2.4,0.4,4.4,1,0.2-0.8c0.6-2.2,0.8-4.3,0.5-6.2c-0.1-1.8-0.3-3.5-0.6-5.2c-0.3-1.8-0.8-3.3-1.5-4.9c-0.2-0.2-0.2-0.5-0.3-0.7
	c0-0.2-0.1-0.4-0.2-0.6c-0.6-2-1.7-3.7-3.1-5.4C448.8,73.8,448.7,73.7,448.3,73.5z"/>
</svg>
