<?xml version="1.0" encoding="utf-8"?>
<!-- Generator: Adobe Illustrator 23.0.3, SVG Export Plug-In . SVG Version: 6.00 Build 0)  -->
<svg version="1.1" id="Layer_1" xmlns="http://www.w3.org/2000/svg" xmlns:xlink="http://www.w3.org/1999/xlink" x="0px" y="0px"
	 viewBox="0 0 650 374" style="enable-background:new 0 0 650 374;" xml:space="preserve">
<style type="text/css">
	.st0{fill-rule:evenodd;clip-rule:evenodd;fill:#FEFEFE;}
	.st1{fill:#FEFEFE;}
</style>
<path class="st0" d="M570,223.3c-13.8,18-31.5,33.9-52.4,47.3c6.7,4.4,13.4,7.1,17.6,17c3.4,8,0.2,3.9,7.2,8.2
	c14.1,8.6,5.1,27.6,1.9,44.8c-7.5,6.1-14.4,14.1-16.8,23.2c-2.3,8.7-1.1,7.6,6.3,8.7l9.5,1.4c24.8-0.7,18-5.6,26.5-23.9
	c7.6-2.8-6.3,7.4,8.7,0.1l-0.5-23.9c-0.3-37.1,6.5-41.4,5.3-50c-2.2-15-14.6-13-7.3-42c-0.9,0.9-2.1,1.3-3.2,0.2
	c0.6-1.6,2-2.3,3.9-2.6c0.9-3.4,1.9-6.5,3.1-9.4h-8.1c0.1,0.1,0.1,0.1,0.2,0.2l0,0C571,223.8,570.4,223.8,570,223.3z M543.9,364.3
	C543.9,364.3,543.9,364.3,543.9,364.3C543.9,364.3,543.9,364.3,543.9,364.3z M543,365.3c-0.6-0.1,0.5-1,0.8-1
	c-0.4-0.6-3.4-3.6-1.8-0.8C542.5,364.2,541.9,365.1,543,365.3z M555.7,364.3c-0.7-0.2-1.8,0-1.8-0.9c1.5-0.1,3.2,0.2,2.8-1.8
	c-2.2-0.4-2,1.6-4.5,0.8C550.7,365.4,558.4,365.9,555.7,364.3z M565.7,314.4c1.8-1.7,4.2-2.5,5.5-4.6
	C569.3,309.8,564.2,314.4,565.7,314.4z M543.9,295.3c0.3,0.1,0.9,1.7,1.8,0.9C546.4,295.7,540.4,293.3,543.9,295.3z M578.4,280.8
	c0.1,0-0.1,0.9,0,0.9c-0.4-0.1-1.7-1-1.8-0.9C574.4,282.2,582.3,283.5,578.4,280.8z M558.5,278.9
	C558.5,278.9,558.5,278.9,558.5,278.9C558.5,278.7,556.7,278.4,558.5,278.9z M562.1,278c-0.5-0.8-2.9,0.6-3.5,0.8
	c0,0.1,0,0.1-0.1,0.1C558.5,279,563.2,279.7,562.1,278z M575.7,341.6c-0.6,0-1.2,0-1.8,0c0,0.7,0,1.3,0,1.8c0.6,0,1.2,0,1.8,0
	C575.7,342.9,575.7,342.3,575.7,341.6z M555.7,315.2c-1.1,0.2-2.6-0.1-2.7,0.9C554,316.1,555.5,316.3,555.7,315.2z M566.6,309
	c-1.1,0.1-2.6-0.2-2.7,0.8C564.9,309.7,566.4,310,566.6,309z M565.7,304.3v0.9c-0.4,0.1-3.4,0.3-2.7,0.9
	C564.2,307.4,569,304.8,565.7,304.3z M564.8,295.3c1.1-0.1,1.4,1.3,1.8,0C566.6,294.3,565,294.2,564.8,295.3z M555.7,284.4
	c-1,1.8,1.4,4.4,1.8,1.8C556.4,286.2,556.7,284.6,555.7,284.4z M576.6,279.8c1.6,0.1,2.4-0.7,2.8-1.8
	C577.9,278.1,576.2,277.9,576.6,279.8z M569.4,276.2c1-0.2,2.5,0.2,2.7-0.9C571,275.5,569.5,275.1,569.4,276.2z M543.9,275.3
	c1.1-0.2,2.6,0.2,2.8-0.9C545.5,274.5,544,274.2,543.9,275.3z M567.5,229C564.8,232,570.9,231.7,567.5,229L567.5,229z"/>
<path class="st0" d="M565.9,66.6c-8.2-6.8-17.2-12-26.8-15.9c16.8,13.2,28.6,30.5,36.8,48.3c0.6,0.3,0.6,0.7,0.5,1.1
	c0.8,1.8,1.5,3.6,2.3,5.5c9.4,15.4,14.5,32.1,14.5,49.5c0,5.5-0.5,11-1.5,16.3c0,27.4-1.3,19.7-3.6,29.7h8.3
	c0.7-3.9,1.3-8.2,1.8-12.9c-0.3,0-0.4,0,0-0.1c0.1-0.6,0.1-1.3,0.2-1.9c0.9-4.9,2-9.2,3.2-13.3c-0.1-0.1-0.3-0.2-0.3-0.3l0,0
	c0.2-0.3,0.4-0.5,0.7-0.7c1.1-3.8,2.2-7.3,3.2-10.7c-0.1-0.1-0.2-0.3-0.3-0.3c-0.2-0.8,0.1-1,0.7-1.1c2.5-9,4.1-17.6,2.2-29.1
	c8.6,5.1,4.4,0,10.1,9.9l0.1,0.1c1.1,0,2.4,0.7,1.5,2h-0.4c0.9,2.1,1.2,3.6,2,7.1c2.4,13.8,15.4,29.5,24.7,39
	c0.1-0.4,1.3-0.8,2.6-0.9c3.2-10.8-0.9-14.4-4-23.8c-2.9-9.1-2.4-15.4-3.9-23.2c-0.9,0.8-2.2,1.5-2.7,1.8c-1.8-0.9,1.2-2.1,2.3-3.5
	c-0.1-0.4-0.2-0.8-0.3-1.1l-0.5-0.5c-4.7-14.3-6.1-16.6-14.4-20.1c-0.3,0.8-1.7,0.5-2.6,0.7c0.1-0.9,1.1-0.8,2-0.9
	c-2.6-1-5.8-2.3-10-3.9l-5-2.1c0.2,1.1-0.8,2.5-2.4,2.4c-0.3-1.6,0.3-2.2,0.7-3.1l-1.6-0.7l-4.5-3.9c16.6-8,24.9-16.4,17-31.5
	c-4.3-8.2-4.7-11.8-13.2-14.4c-5.4-1.8-7.6-1.4-13,0.8c-6.5,2.9-11.4,11.5-14.3,17.8l-1.9,0.3L565.9,66.6z M646.2,189.3
	c0.3,0.4,0.8,0.8,1.2,1.2c0.2-0.4,0.3-0.8,0.4-1.3C647.2,189.4,646.6,189.4,646.2,189.3z M584.8,99c-0.3,5.3,3.8,5.1,7.2,3.6
	c0.3-0.1-0.2-1.7,0-1.8c1.5-0.7,6.5,0.1,2.8-1.8c-2.5,2.7-5-0.9-7.3-0.9C586.2,98,585.8,101.2,584.8,99z M594.8,148.1
	c-0.3,0.1-0.7-0.1-0.9,0c-1.1,0.3-0.3,1.5,0.9,0.9C595.5,148.6,596.1,147.4,594.8,148.1z M624.8,143.5c1.3,0,2.4,0,3.6,0
	c-0.3,1.4,1.3,2.4,1.8,0.9c-1.2-0.4-1.8-1.2-1.8-2.8c2.5,0.1,3.2,1.8,1.8-0.9C627.9,141.2,626,142,624.8,143.5z M602,139.8
	c2.9,0.2,5-0.3,6.4-1.8C605,139.4,603.2,137.1,602,139.8z M592,138.1c2.1-0.3,3.5,0.2,4.5,0.9c0.3-5,4.7-0.2,5.5-1.8
	c-2.4-1-3.4-3.3-6.3-3.6C596.9,137.4,593.1,136.4,592,138.1z M597.5,88c0.2,0.1,0.9,1.7,1.8,0.9C600,88.5,594,86,597.5,88z
	 M643,169.9c1-0.2,2.5,0.2,2.7-0.9C644.6,169.1,643.1,168.8,643,169.9z M628.4,159c0,1.2-1.1,1.3-0.8,2.7
	C629.7,163.1,630.1,158.6,628.4,159z M595.7,159c-1.1,0.1-1.4-1.3-1.8,0C593.9,159.9,595.5,160.1,595.7,159z M603.9,158
	c0,0.9,1.6,1.2,1.8,0C604.7,158.1,604.3,156.7,603.9,158z M631.1,149c1.6,0,2.4-0.8,2.7-1.8C632.3,147.1,631.6,147.8,631.1,149z
	 M608.4,140.8c-1,0.2-2.6-0.2-2.7,0.9C606.7,141.5,608.2,141.8,608.4,140.8z M626.6,139.8c-1.6,0-2.4,0.8-2.8,1.8
	C625.4,141.8,626.2,141,626.6,139.8z M592,129c-0.6,0-1.2,0-1.8,0c0,0.6,0,1.2,0,1.8c0.6,0,1.2,0,1.8,0C592,130.2,592,129.6,592,129
	z M601.2,129c1-0.2,2.5,0.1,2.7-0.9C602.8,128.2,601.3,127.9,601.2,129z M603.9,125.3C601.7,128.4,606.9,123.1,603.9,125.3
	L603.9,125.3z M611.2,119.9c0-0.9,0-1.8,0-2.7c-1.1,0.1-2.6-0.2-2.8,0.9C609.8,118.2,609.2,120.4,611.2,119.9z M593.9,104.4
	c0-0.6,0-1.2,0-1.8c-1.1,0.2-2.2,0.3-1.8,1.8C592.7,104.4,593.3,104.4,593.9,104.4z M595.7,95.3c-2.5-2.4-4.4,0.9-6.4,1.8
	C591.4,99.1,595.3,97.8,595.7,95.3z M611.2,94.4C614.2,97.2,613.9,91.1,611.2,94.4L611.2,94.4z M578.4,93.5c-0.6-0.5-4.3-2.1-4.5,0
	C576.2,92.3,577.7,96.2,578.4,93.5z M595.7,92.6c0.6,0,1.2,0,1.8,0c0-0.6,0-1.2,0-1.8c-0.6,0-1.2,0-1.8,0
	C595.7,91.4,595.7,92,595.7,92.6z M615.7,87.1c0,0.9,1.6,1.2,1.8,0C616.5,87.3,616.1,85.9,615.7,87.1z M608.4,85.4
	c0-0.9-1.6-1.2-1.8,0C606.8,86.4,607.6,85.9,608.4,85.4z M582,79c2.1-0.3,3.5,0.2,4.5,0.9C588,77.1,581.9,77.5,582,79z M610.2,67.1
	c1.3-0.2,3.4,0.3,3.6-0.9C612.5,66.4,610.5,66,610.2,67.1z M594.7,73.2c-2.4,1.5-4,3.2-4.8,5c-0.8,0-1.4,0.2-1.5,0.8
	c0.4-0.1,0.8-0.1,1.3-0.1c-0.5,1.8-0.1,3.8,1.3,5.6c2.8,3.8,14.4,3.5,14.5-3C605.6,75,601.5,68.9,594.7,73.2z"/>
<path class="st0" d="M456.3,299c-0.7,3.9-2.7,8.8-6.9,15.1L436,330.2c0.6-0.5,1.5-0.2,1.5,0.6c-0.8,0.5-1.6,1.1-1.8,0
	c0-0.2,0.1-0.3,0.1-0.3l-5.6,6.7c0.3,0,0.7,0,1-0.1c-0.2,0.8-0.8,0.8-1.7,0.8l-5.3,6.4l1.2,6.9c5.1,2.2,13.3,5.7,20.7,5.7
	c0.1-0.2,0.3-0.3,0.5-0.7l0,0c1.8-1.3,0.6,0.1-0.1,0.7c3.9,0,7.6-1.1,10.3-3.9c-0.3-0.1-0.8-0.2-1.2-0.4l0,0
	c1.4-2.2,2.6-2.7,3.3-2.4c2.2-6.5,0.4-7.6,4.4-12.7c7.6-9.8-0.6-0.5,5.3-3.7c4.9-2.7,1.4,1.3,4.9-2.4c2.8-3.3,12.1-30.6,17-39.2
	c1.9-3.3,3-6,3.6-8.3C482.2,289.6,469.6,294.8,456.3,299z M455.7,333.5c0.7-0.3,1.3-1.6,0-0.9c-0.3,0.2-0.7-0.1-0.9,0
	C453.7,332.9,454.5,334,455.7,333.5z M441.2,328c-0.8,0.6,1.7,0.8,1.8,0.9C445.6,330.2,442.1,327.2,441.2,328z M436.7,335.3
	c0,0.9,1.6,1.1,1.8,0C437.4,335.4,437,334,436.7,335.3z M460.3,330.8c0.2,1.1,1,0.5,1.8,0C462.1,329.9,460.5,329.6,460.3,330.8z
	 M475.7,324.4c-1.6,0.2-4.5-0.9-3.6,1.8C474.2,326.4,475.5,326,475.7,324.4z M483,302.6c-1.6-0.1-2.4,0.7-2.8,1.8
	C481.8,304.4,482.6,303.7,483,302.6z"/>
<path class="st0" d="M239.6,21.7c-19.8,6.6-38.2,15.9-60.1,22.7c-22.7,7.1-50.3,4.5-76.3,13c-4.9,1.6-9.2,2.6-13.2,3.3h0.3
	c-0.5,0.8-0.9,1.5-0.9,2.8c-1.8-0.5-1.9-1.3-1.1-2.4c-2.4,0.3-4.5,0.6-6.5,0.8C72,62.6,64,60.3,53.9,65c-5.3,2.4-10.9,7.1-18,16
	l-0.3,2.5c0.4,0,0.8,0,1.3-0.1c-0.1,0.7-0.7,0.8-1.3,0.8l-0.1,0.3C32.1,87.1,25,99,19.7,109.6c-1.3,2.7-2.5,5-3.4,7
	c0.6-0.3,1.4-0.4,1.4-1.3c1,0.2,0.5,0.9,0,0.9c-0.2,0.8,0.3,0.8,0.8,0.9c0,0.8-1.1,0.7-1.8,0.9c0.2-0.8-0.3-0.8-0.8-0.9
	c-4.4,9.6-2,9.1,13.2,1.8c16.4-7.8,29.7-19.4,34.7-22.2l-0.9,8.1c-6.7,3.4-4.6-0.7-7.6,4.4c0.3,0,0.2,0.1-0.3,0.6l-0.9,1.5
	c-0.3,0.6-0.6,1.1-0.8,1.8c0.3-0.6,0.8,0.4,1.7,0.3c-0.3,1.1-1.7,1-1.8,0.2c-1.1,4.8,1.9,9.9,2.2,12.4c0,0.3-0.1,1.3-0.1,1.6
	l-0.6,3.8c-2.9,2.3-7.6,8.3-12.5,15.4c0.2,0.2,0.3,0.3,0.5,0.5c-0.2,0-0.3-0.1-0.4-0.2c-0.1,0-0.2-0.1-0.2-0.2
	c-0.7,0.9-1.3,1.9-2,2.9c1.4,0.2,1.4,2-0.5,2.8c-0.3,0.1-0.8,0.2-1.4,0.1c-4.5,6.9-9,14-12,19.1c0.3,0,0.4,0,0.7,0
	c-0.1,0.5-0.6,0.7-1.2,0.8c-0.8,1.4-1.6,2.7-2.1,3.7l-7.1,3.3c-0.8,0.2-1.4,0.3-2.1,0.6c2.4,1.3-1.8,2.4-2.1,3.4
	c-2.1-0.5,0.7-2.4,1.6-3.3c-2.6,0.8-4.4,1.3-5.9,2.1c-2.7,1.3-4.2,3.3-7.3,7.8c0.2,3.4,0.6,6,1.3,8.1c1.3-0.8,3.2-1.7,5.7-2.9
	c2.8,0.6-3,1.3-3.7,2.7c-0.2,0.3,0.3,1.7,0,1.8c0,0-0.6,0.2-1.3,0.3c1.7,4,4.3,7.1,7.2,13.4c9.2,8.5,21.3,6.7,37.1,8.3
	c5.5,4,40.6,12.8,46.9,13.2l42.1,8.5l20.6,3.3c13.3,5.9,29.1,9.7,34.7,23.4l1.3,7.2c-0.8,17,2.1,31.2,1.3,45.9
	c-1,17.8-4.8,15.9-11.2,29.6l-3.9,11.3c0.3-0.1,0.7-0.1,1.2,0c-1.6,1.8,0.7,1.8-0.9,3.6c-0.6,0-1.1-0.3-1.3-0.6
	c-0.8,2.2-0.3,1.7,3.4,2.9c5,1.7,7.6,2.8,11.2,2c-0.5-0.5-0.1-0.4,0.6-0.1c1.9-0.5,4.2-1.4,7.2-3c2.8-1,3.3-1.9,3.1-4.7
	c0.8-0.5,4.2-2.1,4.9-2.5c0.8-0.3,2.4,0.1,2.9-1.3c0.1-0.3,0.3-0.6,0.4-0.8c-0.2-0.1-0.3-0.1-0.5-0.1c0.3-1.4,2.3-1.2,2.6-0.4
	c0.3-0.3,0.7-1.3,0.9-3.4l1.7-14l2.3-2c2.7-2.4,2.4-1.6,2.9-5.1c1.9-16.3,0.9-11.8,8.2-28.1l0.2-0.5c-0.2,0.1-0.4,0-0.6-0.1
	c-0.4-1.6,0.9-1.4,1.5-2.1c3.3-8.6,5-19.2,8.9-27.6l12.8,1.6c-18.5-6.5-35.3-14.5-50.1-23.8c-2.4-1.4-4.6-2.9-6.9-4.5
	c-1.3,1.1-3.4,2.2-3.5,1c-2-1.1,1.8,0.6,1.2-2.6c-7.9-5.5-15.1-11.5-21.6-17.8c-0.1,0.1-0.3-0.1-0.5-0.5l-0.1-0.1
	c-21.9-21.7-34.6-47.3-34.6-74.7c0-4.2,0.3-8.4,0.9-12.5c-1.6,0.8-1.7-2.4,0.2-1.5c1.7-10,5-19.7,9.8-29c-2.4-0.9-2.4,2-4.4,0.6
	c0.6-2.5,3-1.8,4.6-0.8c4.6-9,10.7-17.5,18-25.6c-1.2-0.3-1.4-1.6-2.7-1.8c0.3-1.3,2.3-0.8,3.7-0.9c-0.5,0.8-1,1.4-0.9,2.7
	c5.7-6.3,12.2-12.3,19.3-18c-1-0.2-1.8-0.8-1.2-2c0.7,0.6,1.5,0.8,2.6,0.9c2-1.5,4-3.1,6.1-4.5c-1.1-0.3-2.2-0.3-2.4,0.9
	c-2.1-0.6,2.8-3.4,4.4-2.4c0.9-0.7,1.9-1.3,2.9-1.9c0.2-0.2,0.3-0.3,0.6-0.4c1.5-1,2.9-1.9,4.4-2.9c4.3-2.7,8.6-5.2,13.3-7.6
	C222.7,38.9,230.6,30,239.6,21.7z M39.3,151l-0.5,0.8C39.1,151.8,39.2,151.4,39.3,151z M194.4,248.9l-0.6-0.4
	c0.1,0.2,0.1,0.3,0.1,0.4H194.4z M183,363.4c0.7-0.5-5.3-2.9-1.8-0.9C181.4,362.7,182.1,364.2,183,363.4z M279.4,352.5
	c2.1,2.1,4-0.6,5.5-1.8C283.2,351.6,280.3,351,279.4,352.5z M203.9,344.4c0.3-2.2-1.3,0.9-0.8,0.9c-0.3,0-0.8,0.1-0.9,0
	c-3.9-1.5,0.8,0.9,0.9,0.9C203,346.2,203.9,344.4,203.9,344.4z M270.3,326.2c3.9-1.8-0.6-0.1-0.9,0
	C266.4,327.2,268.6,327,270.3,326.2z M279.4,303.5c0.7-0.5-5.3-2.9-1.8-0.9C277.8,302.7,278.5,304.3,279.4,303.5z M227.6,280.8
	c-1.6,0.1-2.1-0.9-1.8-2.8c-2.6-1.2-5.5,1.7-2.7,2.8C223.3,278,226.8,283.9,227.6,280.8z M157.6,240.7c-1.3,0.8-0.2,1,0.9,0
	C159.6,239.8,158.8,240.1,157.6,240.7z M163.1,239.9c2.6,1.3-0.9-1.7-1.8-0.9C160.5,239.5,163,239.8,163.1,239.9z M146.7,239
	c-2,1.3-3.4-2.4-3.6,0c1.1,0.2,0.6,1,0,1.8C145.2,241,146.5,240.5,146.7,239z M155.8,227.1c0-0.6,0-1.2,0-1.8
	c1.3-0.2,3.4,0.3,3.6-0.8c-1.8-2.3-1.3-1.5-2.8,0C155.7,225.4,153.1,227.1,155.8,227.1z M137.6,214.4c1.4,0.8,1.3,0.7,2.7,0
	C142.7,213.4,136.4,213.6,137.6,214.4z M72.2,204.4c0,1.5-2.5,0.5-2.7,1.8C70.5,208.4,74.2,204.8,72.2,204.4z M114.9,203.5
	c0.3,0.1-4.7-2.4-1.8,0.9C113.2,203,118,204.2,114.9,203.5z M55.8,202.6c-2-2.1-3.9,0.6-5.5,1.8c2.3,0.2,2.9-1.4,4.6-1.8
	C54.9,203.1,55.6,203.6,55.8,202.6z M94.9,200.8c-0.9-1.1-0.7-0.3,0,0.9C95.7,202.9,95.8,201.9,94.9,200.8z M91.3,193.5
	c0.8-2.2-4.1-2.9-3.7-1.8C89.4,191.7,88.8,194.1,91.3,193.5z M16.8,188c-0.8,0.7,1.7,0.8,1.8,0.9C21.1,190.3,17.7,187.3,16.8,188z
	 M115.8,185.3c-0.2-0.8-4.9-3.1-0.9,0C114.7,185.2,116.1,186.7,115.8,185.3z M25.8,180.8C20.5,178.2,23.5,183,25.8,180.8L25.8,180.8
	z M95.8,168c0.9,0.1,2.3-0.4,0.9-0.9c-1.2,0.1-1.3,1.2-2.8,0.9c0-0.5-0.8-1-0.9,0c1.3,0,0.8,1.6,1.8,1.8c0.3-1.7,1.5,0.5,1.8-0.9
	C96.2,168.9,95.7,168.8,95.8,168z M108.5,166.2c-0.9-0.7,2.3-0.6,1.8,0c1.5-2.1-1.8-0.8-1.8-0.8
	C107.7,165.5,107.8,165.8,108.5,166.2z M73.1,161.7c1.4,2.8-5.5,1.6-1.8,3.7C72.1,163.7,77.2,163.2,73.1,161.7z M58.6,159.9
	c0.2,0.1,0.8,1.6,1.8,0.9C61,160.3,55,157.9,58.6,159.9z M54.9,155.4c0.1,1.1,0.3,2.1,1.8,1.8c-0.3-2-2.2-3.4-3.6-3.6
	c0.5,0.1-0.8,1.8-0.9,1.8c-1.8,0.6-4.1-3.1-3.6,0c1.1,0.4,2,0.9,2.7,1.8C47.2,159.1,53.8,156.3,54.9,155.4z M55.8,150.7
	C50.6,148.1,53.4,153,55.8,150.7L55.8,150.7z M79.5,147.1c0.6-0.5-5.3-2.9-1.8-0.9C77.8,146.4,78.5,147.9,79.5,147.1z M104,141.7
	c-1.2,0.8-0.1,0.9,0.9,0C106,140.8,105.1,141,104,141.7z M42.6,147.3c1.5,1.6,2.6,3.6,5,2.6C47.6,146.7,44.5,148,42.6,147.3z
	 M132.2,140.8c-1.9-1-1.9-0.9-0.9,0.9C128.6,142.7,132.7,142.7,132.2,140.8z M121.3,140.8c-1.3,0.1-2-0.4-2.7-0.9
	c-0.1,1.3,0.4,2,0.8,2.8c-0.5,0-1,0.8,0,0.9C119.5,142.1,121.8,142.8,121.3,140.8z M95.8,138.1c0.7-0.3,1.3-1.6,0-0.9
	c-0.3,0.1-0.7-0.1-0.9,0C93.8,137.5,94.6,138.7,95.8,138.1z M87.6,131.7c0.6,2.8-5.7,2.3,0,2.7C87.6,133.1,91.5,131.5,87.6,131.7z
	 M62.2,125.3C59.7,123.9,58.5,124.7,62.2,125.3L62.2,125.3z M94,117.2C98.3,117.2,91.7,113.9,94,117.2L94,117.2z M138.5,117.2
	C143,115.9,140,112.9,138.5,117.2L138.5,117.2z M104,114.4c-0.2,0.2-0.7-0.1-0.8,0c-1.2,0.3-0.3,1.5,0.8,0.9
	C104.6,115,105.4,113.7,104,114.4z M114,111.7c0.3,0.1,1.5,1.8,2.8,0.9C117.2,112.2,108.1,109.6,114,111.7z M68.5,107.2
	c2.9-2.4,3.5,2.4,5.5,0c-1.2-2.8-3.9-3.6-5.5-1.8C66.7,107.4,70.3,110.4,68.5,107.2z M48.6,99.9c0.7-0.2,1.8,0,1.8-0.9
	c-1.9-0.2-2.9,0.8-2.7,2.8c1.3-0.1,2,0.4,2.7,0.8C50.7,100.8,49.2,100.8,48.6,99.9z M106.7,97.2c0.3-0.2-0.9-1.8-0.9-1.8
	c-1.5-0.4-6.5,0.6,0,0.9C106,96.3,105.8,97.6,106.7,97.2z M76.7,95.3c-0.3-0.7-1.6-1.4-0.8,0c0.1,0.3-0.1,0.7,0,0.9
	C76.1,97.4,77.4,96.5,76.7,95.3z M100.4,94.4c0.2-0.1-3.5,1.7-0.9,2.8C100.9,95.2,102.4,93,100.4,94.4z M109.4,93.5
	c1.3,0.9,1.8,2.4,3.7,2.8c0.3-0.6,2.3-3.5,0-3.7c-0.2,1.1-1.4,1-2.8,0.9C110.3,93,109.6,92.5,109.4,93.5z M91.3,92.6
	c1-1.8,0.9-1.9-0.9-0.8C89.4,89.1,89.4,93.1,91.3,92.6z M114.9,91.7c-0.8-2.2,3.2-3.9,0.9-4.6c-0.1,0.6-0.2,1.1-0.9,0.9
	c0-0.5-0.1-1.1-0.9-0.9c0,1.3,0.5,2,0.9,2.8C111.9,89.2,113.5,91.7,114.9,91.7z M151.2,85.4c-1-2.2-4.7,1.4-2.7,1.8
	C148.5,85.7,151.1,86.6,151.2,85.4z M41.3,78.1c0-1.2,1.6-0.8,1.8-1.8C39.6,74.5,40.6,77,41.3,78.1z M72.2,74.4c1.6,3,7.4-1.7,4.5,0
	C74.1,74.7,73.3,70.8,72.2,74.4z M80.4,69.9C75.1,70.3,77.9,73.2,80.4,69.9L80.4,69.9z M174,68.1c1.3,1.4,3.7,0.7,4.5-0.9
	C176.2,68.7,175.3,66.1,174,68.1z M170.4,59.9c1.8-0.8,4.2-0.3,3.6-0.9C173.5,58.3,170.3,56.3,170.4,59.9z M185.8,57.2
	c1.5-0.1,3.9,1.5,1.8,0C188.5,54.9,182.4,56.9,185.8,57.2z M203.1,364.3c-1.1,0.2-2.6-0.2-2.8,0.9
	C201.4,365.1,202.9,365.4,203.1,364.3z M273.9,363.4v0.9c-0.4,0.1-3.4,0.3-2.7,0.9C272.4,366.4,277.3,363.9,273.9,363.4z
	 M259.4,363.4c-1.3,0.5-4.7-1-4.5,0.9C256.2,363.8,259.6,365.4,259.4,363.4z M256.7,359.8C253,356.6,254.5,362.8,256.7,359.8
	L256.7,359.8z M205.8,356.2c-1.1,0.1-2.6-0.2-2.7,0.8C204.1,357,205.6,357.2,205.8,356.2z M270.3,344.4
	C270.6,348,274.3,344.2,270.3,344.4L270.3,344.4z M188.5,343.4c1.1-0.2,2.6,0.2,2.8-0.9C190.2,342.7,188.7,342.4,188.5,343.4z
	 M273.9,344.4c0.3-2.8-2.9-1.9-4.5-2.8c0.1,1.3-0.4,2-0.9,2.8C271.2,343.5,271.3,343.5,273.9,344.4z M214,335.3
	c-2.1-0.3-3.4,0.2-3.7,1.8C212,337,213.3,336.5,214,335.3z M274.9,328c-0.6,0-1.2,0-1.8,0c0,0.6,0,1.2,0,1.8c0.7,0,1.3,0,1.8,0
	C274.9,329.2,274.9,328.6,274.9,328z M209.4,328.9c1.4-2.3-3-2.7-2.7-0.9c0.6,0.1,1.1,0.2,0.9,0.9
	C208.2,328.9,208.8,328.9,209.4,328.9z M270.3,314.4C268.1,317.4,273.3,312.1,270.3,314.4L270.3,314.4z M219.5,312.6
	c0.2,1.1,1,0.6,1.8,0C221.2,311.6,219.6,311.4,219.5,312.6z M298.5,298.9c0-0.8-1.6-1.1-1.8,0C296.8,300.1,297.7,299.5,298.5,298.9z
	 M223.1,298c1.1-0.2,2.6,0.2,2.7-0.9C224.7,297.3,223.2,297,223.1,298z M293.1,298c1.9,0.2,2.9-0.8,2.7-2.8
	C293.8,295.1,292.9,296,293.1,298z M198.6,293.5c1-0.2,2.5,0.1,2.7-0.9C200.2,292.7,198.6,292.4,198.6,293.5z M222.1,289.8
	c-1.6,0-2.4,0.8-2.7,1.8C221,291.7,221.7,290.9,222.1,289.8z M207.6,290.7c1.1-0.2,2.6,0.2,2.7-0.9
	C209.3,290,207.8,289.6,207.6,290.7z M288.5,289.8C284.8,286.6,286.3,292.8,288.5,289.8L288.5,289.8z M214.8,273.4
	C217.9,276.2,217.6,270.1,214.8,273.4L214.8,273.4z M231.2,270.8c-1.3,0.5-4.7-1.1-4.5,0.9C228,271.2,231.4,272.7,231.2,270.8z
	 M215.8,269.8C211.1,272,219,272.2,215.8,269.8L215.8,269.8z M193.9,268c0-0.9-1.6-1.1-1.8,0C193.2,267.9,193.6,269.3,193.9,268z
	 M189.4,249.9c-0.5-0.3-3.4-2.3-3.6,0C187.5,248.9,188.8,252.6,189.4,249.9z M178.5,244.4C178.5,249.2,182.4,245.3,178.5,244.4
	L178.5,244.4z M175.8,244.4c0.6,0,1.2,0,1.8,0c0-0.6,0-1.3,0-1.8c-0.6,0-1.2,0-1.8,0C175.8,243.2,175.8,243.8,175.8,244.4z
	 M168.5,242.6c0.6,0,1.3,0,1.8,0c0-0.6,0-1.2,0-1.8c-0.6,0-1.3,0-1.8,0C168.5,241.4,168.5,242,168.5,242.6z M148.5,241.6
	c0.2,1.1,1,0.6,1.8,0C150.3,240.7,148.8,240.5,148.5,241.6z M117.6,239c0.5,0,1.1,0.1,0.9,0.9c0.6,0,1.2,0,1.8,0
	C121.8,237.6,117.2,237.2,117.6,239z M124,238c1-0.2,2.5,0.2,2.7-0.9C125.6,237.3,124.1,236.9,124,238z M116.7,236.2
	c0.2,1.1,1,0.6,1.8,0C118.5,235.3,117,235.1,116.7,236.2z M115.8,235.3c-1.1,0.2-2.6-0.1-2.7,0.9
	C114.1,236.1,115.6,236.4,115.8,235.3z M142.2,232.6c-1.1,0.2-2.6-0.2-2.7,0.9C140.5,233.3,142,233.7,142.2,232.6z M164,232.6
	C159.6,230.1,161.8,235.6,164,232.6L164,232.6z M160.4,227.1C154.5,226.1,158.4,229.9,160.4,227.1L160.4,227.1z M140.3,225.3
	c-0.1,1,0.8,2.4,0.9,0.9C141.4,225.3,140.6,223.8,140.3,225.3z M62.2,224.4c0-0.9-1.6-1.2-1.8,0C61.4,224.3,61.7,225.7,62.2,224.4z
	 M55.8,219.8C58.9,222.6,58.6,216.5,55.8,219.8L55.8,219.8z M133.1,213.5C127.3,212.4,131.1,216.3,133.1,213.5L133.1,213.5z
	 M118.6,208.1c0.6,0,1.2,0,1.8,0c0-0.7,0-1.3,0-1.8c-0.6,0-1.2,0-1.8,0C118.6,206.8,118.6,207.4,118.6,208.1z M13.1,203.5
	c1.1-0.1,1.4,1.3,1.8,0C14.9,202.6,13.3,202.4,13.1,203.5z M54.9,198c1.2,0,1.9,0.5,2.7,0.9c1.6-1.8-0.7-1.8,0.9-3.6
	C55.6,194.6,55.7,196.7,54.9,198z M69.5,194.4c0,0.9,1.6,1.2,1.8,0C70.2,194.5,69.9,193,69.5,194.4z M134.9,187.2
	c-0.8-0.8-2.6,0.8-2.8,0.8C129.3,190.9,136.3,188.5,134.9,187.2z M73.1,188c0-0.9-1.6-1.1-1.8,0C72.3,187.9,72.7,189.4,73.1,188z
	 M122.2,186.2C116.4,185.2,120.2,189,122.2,186.2L122.2,186.2z M106.7,185.3c-1.4,2.3,3.1,2.7,2.7,0.9
	C108.2,186.2,108.2,185.1,106.7,185.3z M17.7,182.6c-1.1,0.2-2.6-0.1-2.8,0.9C16,183.4,17.5,183.6,17.7,182.6z M33.1,181.7
	c-1.1,0.1-2.6-0.2-2.8,0.8C31.4,182.5,33,182.7,33.1,181.7z M109.4,178.9c1.1-0.2,2.6,0.2,2.8-0.9
	C111.1,178.2,109.6,177.9,109.4,178.9z M83.1,177.1c1.4-2.7-4.7-2.4-4.5-0.8C81.1,175.5,80.9,177.5,83.1,177.1z M31.3,176.3
	c2.4-0.4,5-0.5,6.4-1.8C36.6,173.4,31.9,174,31.3,176.3z M43.1,168c-1.1,0.2-2.6-0.2-2.8,0.9C41.4,168.8,42.9,169.1,43.1,168z
	 M84.9,168c0-0.9-1.6-1.1-1.8,0C84.1,167.9,84.5,169.4,84.9,168z M34,166.2c0.3,1.2,1.1,0.6,1.8,0C35.8,165.3,34.2,165.1,34,166.2z
	 M91.3,164.4c-1.1,1.9-3.9,2.1-5.5,3.6C88.2,170,93.6,166.6,91.3,164.4z M47.6,164.4c-1,0.1-1.4-1.3-1.8,0
	C45.8,165.3,47.4,165.5,47.6,164.4z M120.3,163.5c1-0.1,1.4,1.3,1.8,0C122.2,162.6,120.6,162.3,120.3,163.5z M111.3,162.6
	c1.1-0.1,2.6,0.2,2.7-0.9C112.9,161.8,111.4,161.5,111.3,162.6z M79.5,162.6c1.2,1.2,6-1.3,2.7-1.8c0.1,0,0,0.8,0,0.8
	C81.7,161.7,78.8,161.9,79.5,162.6z M66.7,158c-1.3-0.4-1.8,0.3-2.7,0c-0.2,0-0.9-3.5-1.8-0.9c2.7,0.5-1.3,1.4-0.9,2.8
	C63.9,158.8,70.6,159.4,66.7,158z M89.4,148.1c0.8,3.3-4.1,0.8-3.6,3.6c2.4-0.3,5-0.4,6.4-1.8C90.9,149.7,90.6,148.4,89.4,148.1z
	 M103.1,145.3C100,142.6,100.4,148.6,103.1,145.3L103.1,145.3z M126.7,141.7C128.9,146.4,129.1,138.6,126.7,141.7L126.7,141.7z
	 M123.1,138.1c-1.1,0.2-2.6-0.2-2.8,0.9C121.4,138.8,122.9,139.1,123.1,138.1z M87.6,138.1c-1,0.2-2.5-0.2-2.7,0.9
	C86,138.8,87.5,139.1,87.6,138.1z M114,138.1c1.1-0.2,2.6,0.2,2.8-0.9C115.6,137.3,114.1,137,114,138.1z M54.9,137.1
	c-1.1,0.2-2.6-0.2-2.8,0.9C53.3,137.9,54.8,138.2,54.9,137.1z M113.1,135.3c2.3,0.2,3.8-0.4,4.5-1.8
	C115.9,133.9,112.1,132.3,113.1,135.3z M107.7,133.5c-1.1,0.1-2.6-0.2-2.8,0.8C106,134.3,107.5,134.5,107.7,133.5z M100.4,134.4
	c1.1-0.1,2.6,0.2,2.8-0.8C102,133.6,100.5,133.4,100.4,134.4z M124.9,128.1c-4.4-0.9-2.1,2.6-1.8,4.5c2.3-0.1,3.5-1.3,3.6-3.6
	C124,129.8,123.5,131.5,124.9,128.1z M67.6,127.2c3.3,2,6-0.7,2.8-2.8C70.2,126.1,67.4,125.1,67.6,127.2z M111.3,121.7
	c-0.3,0.6,0.4,0.9,0.9,0.9C115,122.5,112.9,118.8,111.3,121.7z M120.3,118.1c-1.1,0.1-2.6-0.2-2.7,0.8
	C118.7,118.8,120.2,119.1,120.3,118.1z M111.3,117.2C108.2,114.4,108.5,120.5,111.3,117.2L111.3,117.2z M136.7,112.6
	C143.2,114.6,141.1,109.3,136.7,112.6L136.7,112.6z M119.4,112.6c-1,0.1-1.3-1.3-1.8,0C117.6,113.6,119.2,113.7,119.4,112.6z
	 M121.3,112.6c1.4,1.4,4.3,0.3,5.5-0.9C123.6,111.7,122.9,110,121.3,112.6z M87.6,112.6c-1.6-2-4.4-2.1-6.3,0
	C82.1,113.5,87.1,114.6,87.6,112.6z M109.4,107.2c0.3,1.1,1,0.5,1.8,0C111.3,106.3,109.7,106,109.4,107.2z M144.9,107.2
	c0-3.2-3.7-3-4.6-0.9C142.6,105.8,142.3,107.9,144.9,107.2z M122.2,102.6c0.2,1.2,1,0.6,1.8,0C123.9,101.7,122.4,101.5,122.2,102.6z
	 M52.2,102.6c0.6,0,1.3,0,1.8,0c0-0.6,0-1.2,0-1.8c-0.6,0-1.3,0-1.8,0C52.2,101.4,52.2,102,52.2,102.6z M30.4,101.7
	C26,99.2,28.2,104.7,30.4,101.7L30.4,101.7z M84.9,100.8c1.7-0.9,3,2.7,3.6,0C88,100.6,85.1,98.5,84.9,100.8z M114,99
	c1.4-2.2-3-2.7-2.7-0.9c0.6,0.1,1.1,0.2,0.9,0.9C112.8,99,113.4,99,114,99z M123.1,97.2c-1,0.1-1.4-1.3-1.8,0
	C121.3,98,122.9,98.3,123.1,97.2z M79.5,96.3c1.3-0.5,4.7,1,4.5-0.9C82.6,95.9,79.3,94.3,79.5,96.3z M34,95.3
	c2.3,0.1,3.8-0.5,4.6-1.8c-1.3,0.1-2-0.4-2.8-0.9C36.1,94.4,34.6,94.4,34,95.3z M140.3,90.8C136,88.3,138.1,93.8,140.3,90.8
	L140.3,90.8z M134.9,89.9c-2.1-0.3-3.4,0.3-3.7,1.8C132.9,91.6,134.3,91.1,134.9,89.9z M52.2,89C47.8,86.4,50,92,52.2,89L52.2,89z
	 M87.6,88C90.7,90.8,90.4,84.7,87.6,88L87.6,88z M94.9,84.4c-0.3,3.2-3.4-2.3-3.6,0.9C91.8,87,98.3,86.3,94.9,84.4z M125.8,84.4
	c1.1-0.2,2.6,0.2,2.8-0.9C127.5,83.7,126,83.3,125.8,84.4z M74.9,84.4C71.8,81.7,72.2,87.8,74.9,84.4L74.9,84.4z M57.6,83.5
	C53.9,80.3,55.5,86.4,57.6,83.5L57.6,83.5z M61.2,80.8c0.1-1.5,2.5-0.5,2.8-1.8C62.2,78.2,58.4,79.7,61.2,80.8z M90.4,78.1
	C84.6,77,88.4,80.8,90.4,78.1L90.4,78.1z M75.8,69C73.6,72,78.9,66.8,75.8,69L75.8,69z M134,66.2C128.1,65.2,132,69,134,66.2
	L134,66.2z M94.9,65.4c3,2,6,1.2,9.1-0.9C99.7,65.3,97.4,64,94.9,65.4z M110.3,59.9c-1.4-0.4-0.8-2.9-3.6-1.8
	C106.1,60.1,110.1,61.9,110.3,59.9z M174,56.2c-1.1,0.2-2.6-0.2-2.7,0.9C172.3,57,173.8,57.3,174,56.2z M135.8,56.2
	c-1,0.2-2.5-0.2-2.7,0.9C134.2,57,135.7,57.3,135.8,56.2z M141.2,55.3c-1.4,2.3,3.1,2.7,2.8,0.9C142.8,56.2,142.7,55.1,141.2,55.3z
	 M191.3,51.7c0-0.9-1.6-1.2-1.8,0C190.4,51.6,190.8,53,191.3,51.7z M199.4,49C196.4,46.2,196.7,52.4,199.4,49L199.4,49z M175.8,47.2
	c0-0.9-1.6-1.2-1.8,0C174.1,48.3,175,47.8,175.8,47.2z M224,31.7C219.3,33.9,227.1,34.1,224,31.7L224,31.7z M253.3,278.2
	c6.2,12.5,12.3,39,12.6,54.2c0.1,1,0.1,2,0,2.9c0.3,0,0.6,0,0.8,0c0.8,0,1.8,0,2.7,0c-0.1,1.3-1.8,1-3.5,0.8
	c-0.7,14.2-7.4,9.3-12.5,22.5c-0.5,1.4-1,2.6-1.3,3.5c0.3,0.2,0.6,0.4,1,0.3c-0.2,0.8-0.9,0.9-1.3,0.7c-1.1,3.3-0.3,3.5,4.9,4.7
	l4.2,1c3.7,0.8,3.4,0.8,7.1,0.2c8.8-1.6,3.9,0.4,11.9-6.5c0.8-0.7,3.5-3.4,4.4-4.3c3.8-3.7,4.4-3.7,5.6-9.1c2.6-10.9,0.1-5,5-16.3
	c3.9-9,8.7-22.5,12.1-31.1l2.8-9.7c-3.1-0.5-6.2-1-9.2-1.5c-0.1,0-0.1,0.1-0.1,0.2c-0.3-0.1-0.5-0.2-0.5-0.3
	C283.4,287.4,267.9,283.4,253.3,278.2z"/>
<path class="st1" d="M364.9,0c23.7,0,46.5,2.1,68.2,6c0,0.1-0.1,0.2-0.1,0.3c1-0.1,1.4,1.2,1.8,0.1c25,4.7,48.4,11.8,69.4,21.1
	c-0.3,0.2-0.4,0.3-0.3,0.7c0-0.1,3.1,0.5,2.7,0.8c0.2-0.1,0.3-0.3,0.3-0.3c7.5,3.4,14.6,7,21.3,10.7c-0.8,0.3-0.5,0.3,0.2,0.1
	c3.1,1.8,6,3.5,9,5.4c23,14.4,41.5,31.6,54.1,50.8c-0.7,0.6-1.4,1.3-2.1,1.6c0.9,0.9,2.4,1.1,3.6,0.8c0.3,0.6,0.7,1.1,1,1.7
	c-2.2,1.3-4.4-1.6-6.5-1.6c-1.3,0-1.7,3.2-2.7,0.9c-0.3,5.3,3.8,5.1,7.2,3.6c0.3-0.1-0.2-1.7,0-1.8c0.6-0.3,1.6-0.3,2.4-0.4
	c10.2,17,15.6,35.5,15.6,54.7c0,4.4-0.3,8.6-0.8,12.8c-1.6,0.3-2.8,2.5-0.9,2.9c-0.2-1,0.3-1.5,0.8-1.8c-2.6,18.5-10.2,36-22.1,52
	c-0.3,0.2-0.4,0.3-0.4,0.6c-3,3.9-6.2,7.9-9.7,11.7c0.3-0.5,0.5-1.1,0.6-1.6c-2.1,0.3-3.9,0.9-4.5,2.8c0.8,0.8,1.7,0.8,2.4,0.4
	c-10.7,11.2-23.4,21.5-38,30.6c-7.6,4.7-15.6,9.1-24,13.2c-0.1-0.8-0.8-1.4-2.2,0.3l0,0c0.2,0.3,0.4,0.4,0.6,0.5
	c-40.9,19.4-91.8,30.9-146.9,30.9c-40,0-77.6-6-111-16.7v-1.9c-0.9,0-1.8,0-2.7,0c-0.1,0.3-0.2,0.7-0.2,0.9
	c-21.7-7.1-41.5-16.4-58.7-27.1c-22.9-14.4-41.4-31.6-54-50.7c0.7,0.3,0.8,0.1,1.8-0.4c1.8-0.8-1.3-0.8-2.4-0.4
	c-11.7-18.1-18.1-37.9-18.1-58.8c0-4.3,0.3-8.6,0.8-12.8c0.5-0.3,0.9-0.6,0.7-1.6c-0.2,0-0.3,0-0.5,0c0.1-0.6,0.2-1.3,0.3-1.8
	c0.9,0,1.8,0,2-0.8c-0.6,0.1-1.3,0-1.9,0.2c0.4-2.4,0.9-4.8,1.5-7.1c0.2,0.5,0.3,1,0.4,1.5c2.3-0.1,3.5-1.3,3.6-3.6
	c-2.7,0.8-3.2,2.5-1.8-0.9c-0.6-0.2-1-0.2-1.3-0.2c7.1-25.5,24-48.8,48.2-68.4c1.4-0.2,2.7,0,2.3-0.5c-0.1-0.2-0.4-0.4-0.8-0.7
	c6-4.7,12.4-9.2,19.2-13.5c22.4-14,49-25.3,78.6-33.1c-0.2,0.3-0.4,0.5-0.7,0.8c0.2-0.2-1.4,1.3,0,0.9c0.4-0.1,1.2-1.3,1.4-1.9
	l1.8-0.5c0.6,0.6,0,1.8-0.6,2.4c0.7,0,1.3,0,1.8,0c1.8-0.4,1.1-1.8,0.2-2.8c25.3-6.3,52.5-10,81.1-10.7c-0.2,0.3-0.3,0.5-0.3,0.8
	c1.1-0.1,2.4,0,2.7-0.8C360.6,0,362.7,0,364.9,0z M388.5,302.6c-1.3,0.7-0.2,0.9,0.9,0C390.4,301.6,389.6,301.9,388.5,302.6z
	 M423.9,295.3c-0.9-0.6-6.9-2.7-4.5-0.9C420.6,294.6,423.8,297,423.9,295.3z M227.6,280.8c-1.6,0.1-2.1-0.9-1.8-2.8
	c-2.6-1.2-5.5,1.7-2.7,2.8C223.3,278,226.8,283.9,227.6,280.8z M163.1,239.9c2.6,1.3-0.9-1.7-1.8-0.9
	C160.5,239.5,163,239.8,163.1,239.9z M155.8,227.1c0-0.6,0-1.2,0-1.8c1.3-0.2,3.4,0.3,3.6-0.8c-1.8-2.3-1.3-1.5-2.8,0
	C155.7,225.4,153.1,227.1,155.8,227.1z M585.7,215.3c-0.3-0.3-1.3-3.9-2.8-1.8C583.2,213.8,584.1,217.4,585.7,215.3z M574.8,216.2
	c2.8-0.8,4.6-0.1,5.5-0.9c-0.1-1.8-4.7-6.5-5.5-1.8c1.7,0.8,3-2.8,3.6,0C577.2,214.4,575.7,214.9,574.8,216.2z M602,188
	c-1.3-0.8-1.2,0-1.8,0c-5.4,0.3-0.3,0.2,0.9,0C600.6,188.1,604.3,189.4,602,188z M604.8,160.8c1.3,1.9,2.2-1.2,2.7,0.8
	c-0.5,0.8-2.7,4-0.8,1.8c1.6,0,3.1-4.5,1.8-4.5C609.1,161.4,604.1,158.3,604.8,160.8z M594.8,148.1c-0.3,0.1-0.7-0.1-0.9,0
	c-1.1,0.3-0.3,1.5,0.9,0.9C595.5,148.6,596.1,147.4,594.8,148.1z M132.2,140.8c-1.9-1-1.9-0.9-0.9,0.9
	C128.6,142.7,132.7,142.7,132.2,140.8z M602,139.8c2.9,0.2,5-0.3,6.4-1.8C605,139.4,603.2,137.1,602,139.8z M592,138.1
	c2.1-0.3,3.5,0.2,4.5,0.9c0.3-5,4.7-0.2,5.5-1.8c-2.4-1-3.4-3.3-6.3-3.6C596.9,137.4,593.1,136.4,592,138.1z M138.5,117.2
	C143,115.9,140,112.9,138.5,117.2L138.5,117.2z M151.2,85.4c-1-2.2-4.7,1.4-2.7,1.8C148.5,85.7,151.1,86.6,151.2,85.4z M174,68.1
	c1.3,1.4,3.7,0.7,4.5-0.9C176.2,68.7,175.3,66.1,174,68.1z M185.8,57.2c1.5-0.1,3.9,1.5,1.8,0C188.5,54.9,182.4,56.9,185.8,57.2z
	 M496.6,29c0.7-0.3,1.4-1.6,0-0.8c-0.2,0.1-0.7-0.1-0.9,0C494.6,28.4,495.4,29.6,496.6,29z M479.4,24.4c-4,0.3-6.2,2.3-9.1,3.7
	C473.6,27.2,477.5,26.9,479.4,24.4z M273.9,18C268.7,18.5,271.6,21.4,273.9,18L273.9,18z M418.5,16.3c4.1,0,8.5-0.8,10-0.9
	c-1.7-2.1-2.8-1.1-3.6-0.9c-1.1,0.2-2.3-1-2.8-0.9c-0.1,0.1-0.4,1.6-0.8,1.8C420.3,15.8,415.3,14.5,418.5,16.3z M307.6,14.4
	c1.4,0.1,0.7,2.4,2.7,1.8C311.1,14.4,307.3,12.8,307.6,14.4z M275.8,16.3C280.3,15,277.2,12,275.8,16.3L275.8,16.3z M420.3,9
	c-0.8,0.6,1.7,0.8,1.8,0.9C424.7,11.2,421.2,8.2,420.3,9z M328.5,9c-1.3,0.5-4.7-1.1-4.5,0.9c1.1,0.1,2.2,0.3,1.8,1.8
	c-0.6,0-1.1,0.7,0,0.8C325.5,10.2,329.3,11.9,328.5,9z M393,306.2c0.9-3-1.3-2.9-3.6-2.7C388.6,306.4,392.4,304.8,393,306.2z
	 M385.7,302.6v0.9c-0.4,0-3.4,0.3-2.7,0.8C384.2,305.5,389,303,385.7,302.6z M403,302.6c1-0.1,1.4,1.3,1.8,0
	C404.9,301.7,403.3,301.4,403,302.6z M428.4,300.7c-1.1,0.2-2.6-0.2-2.7,0.9C426.8,301.5,428.3,301.8,428.4,300.7z M358.4,299.8
	c1.4-2.7-4.7-2.4-4.5-0.9C355.5,300.6,356.6,297.9,358.4,299.8z M298.5,298.9c0-0.8-1.6-1.1-1.8,0
	C296.8,300.1,297.7,299.5,298.5,298.9z M312.1,298.9c2.9-0.1,0.7-3.8-0.9-0.8C310.9,298.6,311.6,299,312.1,298.9z M439.4,296.2
	c-1.1,0.2-2.6-0.2-2.7,0.9C437.7,297,439.2,297.3,439.4,296.2z M293.1,298c1.9,0.2,2.9-0.8,2.7-2.8C293.8,295.1,292.9,296,293.1,298
	z M288.5,289.8C284.8,286.6,286.3,292.8,288.5,289.8L288.5,289.8z M214.8,273.4C217.9,276.2,217.6,270.1,214.8,273.4L214.8,273.4z
	 M231.2,270.8c-1.3,0.5-4.7-1.1-4.5,0.9C228,271.2,231.4,272.7,231.2,270.8z M215.8,269.8C211.1,272,219,272.2,215.8,269.8
	L215.8,269.8z M506.6,267.1c-1,0.2-2.5-0.1-2.7,0.9C505,267.9,506.5,268.2,506.6,267.1z M526.6,262.5c-0.7,0-1.3,0-1.8,0
	c0,0.7,0,1.3,0,1.8c0.6,0,1.2,0,1.8,0C526.6,263.8,526.6,263.2,526.6,262.5z M536.6,249.9c-0.6,0-1.3,0-1.8,0c0,0.6,0,1.2,0,1.8
	c0.6,0,1.3,0,1.8,0C536.6,251,536.6,250.5,536.6,249.9z M189.4,249.9c-0.5-0.3-3.4-2.3-3.6,0C187.5,248.9,188.8,252.6,189.4,249.9z
	 M178.5,244.4C178.5,249.2,182.4,245.3,178.5,244.4L178.5,244.4z M175.8,244.4c0.6,0,1.2,0,1.8,0c0-0.6,0-1.3,0-1.8
	c-0.6,0-1.2,0-1.8,0C175.8,243.2,175.8,243.8,175.8,244.4z M168.5,242.6c0.6,0,1.3,0,1.8,0c0-0.6,0-1.2,0-1.8c-0.6,0-1.3,0-1.8,0
	C168.5,241.4,168.5,242,168.5,242.6z M164,232.6C159.6,230.1,161.8,235.6,164,232.6L164,232.6z M567.5,229
	C564.8,232,570.9,231.7,567.5,229L567.5,229z M160.4,227.1C154.5,226.1,158.4,229.9,160.4,227.1L160.4,227.1z M572.1,222.6
	C569,219.8,569.3,225.9,572.1,222.6L572.1,222.6z M591.1,203.5C585.3,202.4,589.2,206.3,591.1,203.5L591.1,203.5z M134.9,187.2
	c-0.8-0.8-2.6,0.8-2.8,0.8C129.3,190.9,136.3,188.5,134.9,187.2z M601.2,172.6C604.2,175.3,603.9,169.2,601.2,172.6L601.2,172.6z
	 M120.3,163.5c1-0.1,1.4,1.3,1.8,0C122.2,162.6,120.6,162.3,120.3,163.5z M595.7,159c-1.1,0.1-1.4-1.3-1.8,0
	C593.9,159.9,595.5,160.1,595.7,159z M603.9,158c0,0.9,1.6,1.2,1.8,0C604.7,158.1,604.3,156.7,603.9,158z M608.4,140.8
	c-1,0.2-2.6-0.2-2.7,0.9C606.7,141.5,608.2,141.8,608.4,140.8z M126.7,141.7C128.9,146.4,129.1,138.6,126.7,141.7L126.7,141.7z
	 M592,129c-0.6,0-1.2,0-1.8,0c0,0.6,0,1.2,0,1.8c0.6,0,1.2,0,1.8,0C592,130.2,592,129.6,592,129z M601.2,129c1-0.2,2.5,0.1,2.7-0.9
	C602.8,128.2,601.3,127.9,601.2,129z M603.9,125.3C601.7,128.4,606.9,123.1,603.9,125.3L603.9,125.3z M136.7,112.6
	C143.2,114.6,141.1,109.3,136.7,112.6L136.7,112.6z M144.9,107.2c0-3.2-3.7-3-4.6-0.9C142.6,105.8,142.3,107.9,144.9,107.2z
	 M593.9,104.4c0-0.6,0-1.2,0-1.8c-1.1,0.2-2.2,0.3-1.8,1.8C592.7,104.4,593.3,104.4,593.9,104.4z M578.4,93.5
	c-0.6-0.5-4.3-2.1-4.5,0C576.2,92.3,577.7,96.2,578.4,93.5z M557.5,71.7c-0.2,1.1-1.6,2.1,0,2.8C557.6,73.4,559.1,72.3,557.5,71.7z
	 M191.3,51.7c0-0.9-1.6-1.2-1.8,0C190.4,51.6,190.8,53,191.3,51.7z M199.4,49C196.4,46.2,196.7,52.4,199.4,49L199.4,49z M532.1,42.6
	C526.2,41.5,530.1,45.4,532.1,42.6L532.1,42.6z M524.8,41.7c1.3-0.2,3.4,0.3,3.6-0.9C527.1,41,525.1,40.5,524.8,41.7z M520.3,37.2
	c-1.3,2.9,5.5,2.3,5.5,0.9C524.6,37,522.5,37,520.3,37.2z M224,31.7C219.3,33.9,227.1,34.1,224,31.7L224,31.7z M456.6,19
	c-1.1,1.8,1.4,4.4,1.8,1.8C457.2,20.8,457.7,19.2,456.6,19z M330.3,11.8c3.4,0.8,2.4-5,0-1.8C330.6,9.5,331.5,11.3,330.3,11.8z
	 M363,8.1c0.3,1.1,1.1,0.6,1.8,0C364.8,7.1,363.2,7,363,8.1z M367.6,7.1c0-0.8-1.6-1.1-1.8,0C365.9,8.3,366.8,7.7,367.6,7.1z
	 M337.5,6.3c-1.2-1.2-3.4-1.3-3.6,0.8C335.3,7.1,337.3,7.5,337.5,6.3z M527.2,56c-9.7-6.1-20.3-11.7-31.7-16.5
	c-0.2-0.3-0.4-0.3-0.7-0.3c-14.7-6.3-30.6-11.6-47.5-15.6c0-0.3-0.2-0.6-0.7-0.8c0,0.3,0,0.5,0,0.7c-5.7-1.3-11.5-2.6-17.4-3.6
	c3.1-0.8,0.9-0.5-0.7-0.2c-14.2-2.5-29-4.3-44.3-5c-0.1,0-0.3-0.1-0.3-0.1c0,0,0,0,0,0.1c-5.7-0.3-11.5-0.5-17.3-0.5
	c-2.8-0.8-5.5-1.8-7.1,0c-3.2,0.1-6.3,0.2-9.4,0.3c-0.4-0.5-0.5-0.3-0.3,0.1c-4.8,0.2-9.4,0.4-14.1,0.8c-0.2-0.8-1.5-0.9-1.8,0.1
	c-10.2,0.9-20.1,2.2-29.9,3.8c-0.1-0.5-0.3-0.9-1-1c0.2,0.4,0.3,0.8,0.2,1.2c-6.5,1.2-13,2.4-19.3,3.9c-0.7-1.6-3.6-0.9-2.5,0.6
	C251.6,31.1,224.8,42,202.6,56c-1.5,0.9-2.9,1.8-4.4,2.9c-0.3,0.1-0.4,0.3-0.6,0.4c-0.9,0.6-1.9,1.3-2.9,1.9
	c-1.6-1.1-6.5,1.8-4.4,2.4c0.2-1.2,1.3-1.2,2.4-0.9c-2.1,1.4-4.1,3-6.1,4.5c-1.1-0.1-1.9-0.3-2.6-0.9c-0.7,1.2,0.2,1.8,1.2,2
	c-7.1,5.6-13.6,11.7-19.3,18c-0.1-1.3,0.4-1.9,0.9-2.7c-1.4,0.2-3.4-0.3-3.7,0.9c1.3,0.2,1.5,1.4,2.7,1.8
	c-7.3,8.1-13.4,16.6-18,25.6c-1.6-0.9-4-1.7-4.6,0.8c2,1.4,2-1.5,4.4-0.6c-4.9,9.3-8.1,19.1-9.8,29c-1.8-0.9-1.8,2.3-0.2,1.5
	c-0.6,4.1-0.9,8.3-0.9,12.5c0,27.4,12.7,53,34.6,74.7l0.1,0.1c0.3,0.4,0.4,0.6,0.5,0.5c6.5,6.3,13.7,12.3,21.6,17.8
	c0.6,3.2-3.2,1.5-1.2,2.6c0.2,1.2,2.3,0.1,3.5-1c2.3,1.6,4.5,3.1,6.9,4.5c26.7,16.7,59.9,29.3,97.2,36.1c0,0.2,0.2,0.3,0.5,0.3
	c0-0.1,0-0.2,0.1-0.2c20.5,3.7,42.1,5.7,64.5,5.7c17.7,0,35-1.3,51.6-3.6c-1,0.6,0,0.8,1-0.1l0.1-0.1c42.3-6.2,80.1-19.6,109.6-38.2
	c1.7-1.1,3.4-2.1,5-3.2c0.3,0.6,1,0.1,1.7-0.3c0-0.3-0.1-0.5-0.3-0.6c37-25.1,59.6-58.5,59.6-95.1c0-19.1-6.1-37.3-17.4-54
	c0.4-0.8,1.2-1.6-0.2-2.2c0,0.4-0.3,0.8-0.5,1.2C563.8,83.6,547.5,68.6,527.2,56z M193.9,248.5l0.6,0.4h-0.5
	C193.9,248.8,193.9,248.7,193.9,248.5z"/>
<path class="st1" d="M216.4,61.3c0.3-0.1,0.4-0.2,0.7-0.1c0.2,0.1,0.3,0.2,0.5,0.4l1.1,1.8c0.1,0.3,0.2,0.4,0.1,0.7
	c0,0.2-0.2,0.3-0.3,0.5l-0.9,0.5c-0.2,0.2-0.4,0.2-0.6,0.2c-0.3-0.1-0.4-0.3-0.6-0.4l-0.1-0.3l-1.8,1.1l8.4,13.8l0.3-0.1
	c0.2-0.2,0.4-0.2,0.6-0.2c0.3,0.1,0.4,0.2,0.5,0.4l0.6,0.8c0.1,0.3,0.2,0.4,0.1,0.7c0,0.3-0.2,0.4-0.4,0.5l-2.7,1.7
	c-0.2,0.1-0.4,0.2-0.7,0.1c-0.2-0.1-0.3-0.2-0.5-0.4l-0.5-0.8c-0.2-0.3-0.2-0.4-0.1-0.7c0-0.2,0.2-0.3,0.3-0.5l0.3-0.1l-8.4-13.8
	l-1.8,1l0.2,0.3c0.1,0.2,0.1,0.3,0.1,0.6c-0.1,0.3-0.2,0.4-0.4,0.5l-0.8,0.6c-0.3,0.1-0.4,0.1-0.7,0.1c-0.2-0.1-0.3-0.2-0.5-0.4
	l-1.1-1.8c-0.1-0.3-0.2-0.4-0.1-0.7c0.1-0.2,0.2-0.3,0.3-0.5L216.4,61.3z M228.9,54.9c1.2-0.6,2.3-0.8,3.2-0.4
	c0.9,0.3,1.7,1,2.3,2.3l1.3,2.5c-0.2,0.9,0.4,1.8,1.2,2.3l0.4,0.9c0.8,1.7,0.8,3-0.1,4.2l3.5,3.5l0.5-0.3c0.1-0.1,0.3-0.1,0.4,0
	c0.2,0.2,0.3,0.3,0.4,0.5l0.4,0.9c0.2,0.3,0.2,0.4,0.1,0.7c-0.1,0.2-0.2,0.3-0.4,0.4l-2.9,1.5c-0.3,0.1-0.5,0.2-0.7,0.1
	c-0.3-0.1-0.4-0.3-0.5-0.4l-0.4-0.9c-0.2-0.3-0.2-0.4-0.1-0.7c0.1-0.2,0.3-0.3,0.4-0.5l0.3-0.1l-3.3-3.3l-2.2,1.1l2,3.9l0.2-0.2
	c0.3-0.1,0.4-0.1,0.7,0c0.2,0,0.3,0.2,0.5,0.4l0.4,0.9c0.1,0.2,0.1,0.4,0.1,0.6c-0.1,0.3-0.3,0.4-0.4,0.5l-2.9,1.4
	c-0.3,0.1-0.4,0.2-0.7,0.1c-0.3-0.1-0.4-0.3-0.5-0.4l-0.4-0.9c-0.2-0.3-0.2-0.4-0.1-0.7c0.1-0.2,0.3-0.3,0.4-0.5l0.3-0.1l-7-13.8
	c0.3-0.1,0.4-0.3,0.4-0.6c-0.2,0-0.4,0-0.7,0l-0.1-0.1l-0.1,0.1c-0.3,0-0.6,0-0.8,0.1c-0.2-0.1-0.3-0.3-0.4-0.4l-0.4-0.9
	c-0.2-0.2-0.2-0.4-0.1-0.6c0.1-0.3,0.3-0.4,0.4-0.5L228.9,54.9z M227.4,58.7l4.1,8.1l2.7-1.3c0.4-0.2,0.7-0.4,0.8-0.8
	c0.1-0.3,0.1-0.7-0.2-1.1l-2.9-5.7c-0.2-0.4-0.4-0.7-0.8-0.8c-0.3-0.1-0.7-0.1-1,0.2L227.4,58.7z M245.8,47.6
	c1.3-0.4,2.3-0.5,3.2-0.2c0.7,0.3,1.3,0.8,1.7,1.6h-1.3c0,0.6,0,1.2,0,1.8c0.6,0,1.2,0,1.8,0v-0.6l2.4,6.1c-1,0-2.4-0.2-2.4,0.8
	c0.9-0.1,2.2,0.1,2.6-0.6l2.9,7.1l0.2-0.1c0.3-0.1,0.5-0.1,0.7,0c0.2,0.1,0.3,0.3,0.4,0.4l0.4,1c0.1,0.2,0.1,0.4,0,0.6
	c-0.1,0.3-0.3,0.4-0.5,0.5l-2.9,1.2c-0.2,0.1-0.4,0.1-0.6,0c-0.3-0.1-0.4-0.3-0.5-0.4l-0.3-1c-0.2-0.3-0.2-0.4,0-0.7
	c0.1-0.2,0.3-0.3,0.4-0.4l0.3-0.1l-1.7-4l-2.9,1.2c-0.9,0-1.9,0-2.1,0.8c0.3,0,0.7-0.1,1-0.1l1.5,3.8l0.3-0.1c0.3-0.1,0.4-0.1,0.7,0
	c0.2,0.1,0.3,0.3,0.4,0.4l0.3,1c0.1,0.2,0.2,0.4,0.1,0.6c-0.1,0.3-0.3,0.3-0.5,0.5l-2.9,1.2c-0.3,0.1-0.4,0.1-0.7,0
	c-0.2-0.1-0.3-0.3-0.4-0.5l-0.4-0.9c-0.1-0.3-0.1-0.4,0-0.7c0.1-0.2,0.3-0.3,0.5-0.4l0.2-0.1L242,53.5c-0.5-1.3-0.6-2.3-0.2-3.2
	c0.3-0.9,1.2-1.6,2.4-2.1L245.8,47.6z M245.3,50.8c-0.4,0.2-0.7,0.4-0.8,0.7c-0.2,0.3-0.1,0.7,0.1,1.1l2.9,7.2l4-1.7l-2.9-7.2
	c-0.2-0.4-0.3-0.7-0.7-0.8c-0.3-0.2-0.7-0.2-1.1,0L245.3,50.8z M263.4,41.3c1.3-0.4,2.4-0.3,3.2,0.1c0.8,0.4,1.5,1.3,1.9,2.5
	l4.3,12.8v0.2c-0.7-0.6-2.1-0.7-3-0.5l-0.9-2.9c0.8,0.2,1.2,1.2,1.5,0c0-0.8-1.2-1.1-1.7-0.4l-2.7-8.4c-0.2-0.4-0.4-0.7-0.7-0.8
	c-0.3-0.2-0.7-0.2-1.1,0l-2.9,0.9l3.4,10.5c-0.5,0.2-1.1,0.5-1.8,0.9l0,0c0.9,0.3,1.7,0.4,2.3,0.4l1.2,3.6l2.9-1
	c0.8-0.3,1.1-0.8,0.8-1.7l-0.1-0.2c1.1,0.3,1.8,0.3,2.9,0.7c0.1,0.7-0.1,1.3-0.3,1.8c-0.4,0.8-1.3,1.5-2.5,1.9l-5.7,1.8
	c-0.2,0.1-0.4,0.1-0.6,0c-0.3-0.2-0.3-0.3-0.4-0.5l-0.3-1c-0.1-0.3-0.1-0.4,0-0.7c0.2-0.2,0.3-0.3,0.5-0.3l0.3-0.1l-5.1-15.4
	l-0.2,0.1c-0.3,0.1-0.5,0.1-0.7,0c-0.2-0.1-0.3-0.3-0.4-0.5l-0.3-1c-0.1-0.3-0.1-0.4,0.1-0.6c0.1-0.3,0.3-0.3,0.5-0.4L263.4,41.3z
	 M277.3,37.3c0.3-0.1,0.5-0.1,0.7,0.1c0.2,0.1,0.3,0.3,0.3,0.5l0.3,1c0,0.2,0,0.4-0.1,0.6c-0.1,0.2-0.3,0.3-0.5,0.4l-0.3,0.1
	l3.9,14.3c-1.3-0.6-2.6-1-0.5,0.3c0.1,0,0.4,0.6,0.8,0.9v0.2l0.2-0.1c0.2,0.1,0.4,0.1,0.6,0c0.1,0,0.1,0,0.2,0.1
	c0.2,0.1,0.3,0.3,0.3,0.5l0.3,1c0.1,0.2,0.1,0.4,0,0.6c-0.2,0.3-0.3,0.3-0.6,0.4l-3,0.8c-0.3,0.1-0.4,0.1-0.7-0.1
	c-0.2-0.1-0.3-0.3-0.3-0.5l-0.3-1c-0.1-0.3,0-0.4,0.1-0.6c0.2-0.3,0.3-0.3,0.5-0.4l0.3-0.1l-4.3-15.6l-0.3,0.1
	c-0.3,0.1-0.4,0-0.7-0.1c-0.2-0.1-0.3-0.3-0.3-0.5l-0.3-1c-0.1-0.3-0.1-0.4,0-0.7c0.2-0.2,0.3-0.3,0.6-0.3L277.3,37.3z M295,33.2
	c0.3-0.1,0.5,0,0.7,0.1c0.2,0.2,0.3,0.3,0.3,0.6l0.4,2c0.1,0.3,0,0.5-0.1,0.7c-0.1,0.2-0.3,0.3-0.6,0.3l-1,0.3c-0.2,0-0.4,0-0.6-0.2
	c-0.2-0.1-0.3-0.3-0.3-0.5l-0.1-0.3l-2,0.4l3.4,15.9l0.2-0.1c0.3,0,0.5,0,0.7,0.2c0.2,0.1,0.3,0.3,0.3,0.5l0.3,1
	c0,0.3,0,0.4-0.2,0.7c-0.1,0.2-0.3,0.3-0.5,0.3l-3.1,0.7c-0.3,0-0.4,0-0.7-0.2c-0.2-0.1-0.3-0.3-0.3-0.5l-0.3-1c0-0.3,0-0.5,0.2-0.7
	c0.1-0.2,0.3-0.3,0.5-0.3h0.3l-3.3-15.9l-2,0.4l0.1,0.3c0,0.3,0,0.4-0.1,0.7c-0.2,0.2-0.3,0.3-0.6,0.3l-1,0.2
	c-0.3,0.1-0.4,0.1-0.6-0.1c-0.3-0.1-0.3-0.3-0.4-0.5l-0.4-2.1c0-0.3,0-0.4,0.2-0.7c0.1-0.2,0.3-0.3,0.5-0.3L295,33.2z M304.8,31.3
	c0.3-0.1,0.5,0,0.7,0.1c0.2,0.2,0.3,0.3,0.3,0.6l0.2,1c0.1,0.2,0,0.4-0.1,0.6c-0.2,0.2-0.3,0.3-0.6,0.3l-0.3,0.1l0.8,3.9
	c-0.3,0.3-0.7,0.6-1,1c0.5,0.1,0.9,0.2,1.3,0.3l1.9,10.7l0.3-0.1c0.3,0,0.5,0,0.7,0.2c0.2,0.1,0.3,0.3,0.3,0.5l0.2,1
	c0.1,0.3,0,0.4-0.1,0.7c-0.2,0.2-0.3,0.3-0.6,0.3l-3.1,0.6c-0.3,0-0.5,0-0.7-0.2c-0.2-0.1-0.3-0.3-0.3-0.5l-0.2-1
	c-0.1-0.3,0-0.5,0.1-0.7c0.2-0.2,0.3-0.3,0.6-0.3h0.3l-2.9-15.9h-0.3c-0.3,0.1-0.4,0-0.7-0.1c-0.2-0.2-0.3-0.3-0.3-0.6l0,0v-0.3l0,0
	l-0.2-0.8c-0.1-0.3,0-0.4,0.2-0.6c0.1-0.3,0.3-0.3,0.5-0.3L304.8,31.3z M317.3,29.3c1.3-0.2,2.4,0,3.2,0.6c0.8,0.6,1.3,1.5,1.4,2.8
	l2,13.4c0.2,1.3,0,2.4-0.6,3.1s-1.5,1.3-2.9,1.4l-1.7,0.3c-1.3,0.3-2.4,0-3.1-0.5c-0.8-0.6-1.3-1.6-1.5-2.9l-1.9-13.3
	c-0.3-1.3,0-2.4,0.5-3.2c0.6-0.8,1.6-1.3,2.9-1.4L317.3,29.3z M316.1,32.2c-0.4,0-0.8,0.2-0.9,0.4c-0.3,0.3-0.3,0.7-0.3,1.1l0.2,0.9
	c-0.8,0.5-1,1.2-0.2,1.6c0.1-0.3,0.2-0.4,0.3-0.5l1.7,11.3c0.1,0.4,0.3,0.8,0.5,0.9c0.3,0.3,0.6,0.3,1,0.3l1.7-0.3
	c0.5-0.1,0.8-0.3,1-0.5c0.2-0.3,0.3-0.6,0.2-1.1l-1.8-12c0.3-0.2,0.7-0.5,0.8-0.8c-0.3-0.1-0.7-0.2-1-0.2l-0.1-0.3
	c-0.1-0.4-0.2-0.8-0.4-0.9c-0.3-0.2-0.7-0.3-1.1-0.2L316.1,32.2z M339.3,27.1c0.3-0.1,0.5,0,0.7,0.2c0.2,0.2,0.3,0.3,0.3,0.6l0.1,1
	c0,0.3-0.1,0.4-0.2,0.6c-0.2,0.2-0.3,0.3-0.6,0.3h-0.3l1.2,16.2l0.3-0.1c0.3,0,0.4,0.1,0.6,0.3c0.2,0.1,0.3,0.3,0.3,0.6v1
	c0.1,0.3,0,0.4-0.2,0.6c-0.1,0.2-0.3,0.3-0.6,0.3l-3.8,0.3c-0.3,0-0.4-0.1-0.6-0.3c-0.2-0.1-0.3-0.3-0.3-0.5l-0.1-1.1
	c-0.1-0.3,0-0.4,0.2-0.6c0.2-0.2,0.3-0.3,0.6-0.3l0.3-0.1l-4.5-9.7l0.8,10.1h0.2c0.3-0.1,0.5,0,0.7,0.2c0.2,0.1,0.3,0.3,0.3,0.6
	l0.1,1c0,0.3-0.1,0.4-0.2,0.6c-0.2,0.2-0.3,0.3-0.6,0.3l-3.2,0.2c-0.3,0.1-0.4,0-0.6-0.2c-0.2-0.2-0.3-0.3-0.3-0.6l-0.1-1
	c0-0.3,0.1-0.4,0.3-0.6c0.1-0.2,0.3-0.3,0.6-0.3h0.2l-1.2-16.1h-0.3c-0.2,0-0.4-0.1-0.6-0.3c-0.2-0.1-0.3-0.3-0.3-0.5l-0.1-1.1
	c-0.1-0.3,0-0.4,0.2-0.6c0.2-0.2,0.3-0.3,0.6-0.3l3.8-0.3c0.3,0,0.5,0.1,0.7,0.3c0.2,0.1,0.3,0.3,0.3,0.6l0.1,1
	c0,0.3-0.1,0.4-0.2,0.6c-0.2,0.2-0.3,0.3-0.6,0.3l-0.3,0.1l4.4,9.7L336.6,30l-0.3,0.1c-0.3,0-0.4-0.1-0.7-0.3
	c-0.2-0.2-0.3-0.3-0.3-0.6l-0.1-1c0-0.3,0.1-0.4,0.2-0.6c0.2-0.2,0.4-0.3,0.6-0.3L339.3,27.1z M352.7,26.3c1.3-0.1,2.4,0.3,3.1,0.9
	c0.7,0.7,1.1,1.6,1.2,2.9l0.3,4.6c-3-0.5-2.2,1.7,0.1,1.4l0.4,8.8h0.3c0.3-0.1,0.5,0,0.7,0.2c0.1,0.2,0.3,0.3,0.3,0.6v0.6
	c-0.7,0.1-1.2,0.2-1.3,0.8c0.3-0.1,0.8-0.1,1.3-0.1c-0.1,0.1-0.1,0.2-0.2,0.3c-0.2,0.2-0.3,0.3-0.6,0.3l-3.2,0.2
	c-0.3,0-0.4-0.1-0.6-0.3c-0.2-0.2-0.3-0.3-0.3-0.6v-1c0-0.3,0-0.4,0.2-0.6c0.2-0.2,0.3-0.3,0.6-0.3l0.3-0.1l-0.3-4.4l-4.4,0.3
	l0.3,4.4h0.3c0.3,0,0.4,0.1,0.6,0.2c0.2,0.2,0.3,0.3,0.3,0.6l0.1,1.1c0,0.2-0.1,0.4-0.3,0.6c-0.1,0.2-0.3,0.3-0.6,0.3l-3.2,0.2
	c-0.2,0-0.4-0.1-0.6-0.2c-0.2-0.2-0.3-0.3-0.3-0.6l-0.1-1c0-0.3,0.1-0.5,0.3-0.7c0.2-0.2,0.3-0.3,0.6-0.3h0.3l-0.1-1
	c0.4-0.1,0.7-0.4,0.6-0.9c-0.2,0-0.4,0.1-0.7,0.1l-0.7-13c-0.1-1.3,0.3-2.4,0.9-3c0.6-0.8,1.6-1.2,2.9-1.3L352.7,26.3z M351.1,29
	c-0.5,0.1-0.8,0.2-1,0.4s-0.3,0.6-0.3,1l0.4,7.8l4.4-0.3l-0.4-7.7c-0.1-0.5-0.2-0.8-0.4-1s-0.6-0.3-1-0.3L351.1,29z M368.6,26.3
	c0.3,0,0.5,0.1,0.6,0.3c0.2,0.2,0.3,0.4,0.3,0.7v1c0,0.3-0.1,0.4-0.3,0.6c-0.2,0.2-0.3,0.3-0.6,0.3h-0.3L368,45.2l4.4,0.1l0.1-2.6
	c0-0.3,0.1-0.4,0.3-0.6c0.2-0.2,0.3-0.3,0.6-0.3l1,0.1c0.3,0,0.5,0.1,0.7,0.3c0.1,0.1,0.2,0.3,0.2,0.6l-0.1,4.4
	c0,0.3-0.1,0.4-0.3,0.6c0,0.1-0.1,0.1-0.1,0.2c-0.3,0-0.6,0-0.8,0.1l-8.9-0.2c-0.3,0-0.4-0.1-0.6-0.3c-0.2-0.2-0.3-0.3-0.3-0.6v-1
	c0-0.3,0.1-0.5,0.3-0.6c0.2-0.2,0.3-0.3,0.6-0.3h0.3l0.3-16.2h-0.3c-0.3,0-0.4-0.1-0.6-0.3c-0.2-0.2-0.3-0.3-0.3-0.6v-1
	c0-0.3,0.1-0.5,0.3-0.7c0.2-0.1,0.3-0.2,0.6-0.2H368.6z M401.2,28.2c0.1,0.1,0.1,0.3,0.1,0.5l-0.1,1c0,0.3-0.1,0.4-0.3,0.6
	s-0.3,0.3-0.6,0.3l-0.3-0.1l-1.2,16.2h0.2c0.3,0,0.5,0.1,0.6,0.3c0.2,0.2,0.3,0.4,0.3,0.7l-0.1,1c0,0.3-0.2,0.4-0.3,0.6
	c-0.2,0.2-0.4,0.2-0.7,0.2l-3.2-0.3c-0.3,0-0.4-0.1-0.6-0.3c-0.1-0.2-0.2-0.3-0.2-0.6l0.1-1c0-0.3,0.1-0.5,0.3-0.6
	c0.2-0.2,0.4-0.3,0.7-0.3l0.2,0.1l0.6-7.8l-4.4-0.3l-0.6,7.8h0.3c0.3,0,0.4,0.1,0.6,0.3c0.2,0.2,0.2,0.4,0.2,0.7l-0.1,1
	c0,0.3-0.1,0.4-0.3,0.6c-0.2,0.1-0.3,0.2-0.6,0.2l-3.2-0.3c-0.3,0-0.4-0.1-0.6-0.3c-0.2-0.2-0.3-0.4-0.2-0.6v-1.1
	c0.1-0.3,0.2-0.4,0.3-0.6c0.2-0.1,0.3-0.2,0.6-0.2h0.3l1.2-16.1H390c-0.2-0.1-0.4-0.2-0.5-0.3c-0.2-0.2-0.3-0.3-0.3-0.6l0.1-1
	c0-0.3,0.1-0.5,0.3-0.6c0.2-0.2,0.3-0.3,0.6-0.3l3.2,0.3c0.3,0,0.4,0.2,0.6,0.3c0.1,0.2,0.2,0.4,0.2,0.7l-0.1,1
	c0,0.3-0.1,0.4-0.3,0.6c-0.2,0.2-0.4,0.3-0.7,0.2h-0.3l-0.4,5.7l4.1,0.3c0,0.1,0,0.2,0,0.3c2.3,1.4,2.7-3.1,0.9-2.7
	c0,0.5-0.3,0.8-0.5,1.2l0.3-4.4h-0.3c-0.3,0-0.4-0.2-0.6-0.3c-0.2-0.2-0.3-0.3-0.2-0.6l0.1-1c0-0.3,0.1-0.4,0.3-0.6
	c0.2-0.2,0.3-0.3,0.6-0.2l1.1,0.1C399,28.3,400.2,28.5,401.2,28.2z M413.8,29.5c0.3,0.1,0.4,0.1,0.6,0.2c0.2,0.1,0.3,0.2,0.4,0.3
	c0,0,0-0.1,0.1-0.2c0.5,0.2,0.9,0.4,1.3,0.8c-0.3,0.5-0.2,0.5,0.2,0.3c0.1,0.1,0.2,0.2,0.3,0.3c0.6,0.8,0.8,1.8,0.6,3.1l-1.9,13.3
	c-0.3,1.3-0.7,2.3-1.5,2.9c-0.8,0.6-1.8,0.8-3.1,0.6l-1.7-0.3c-1.3-0.2-2.3-0.7-2.9-1.4c-0.6-0.8-0.8-1.8-0.6-3.2l1.9-13.3
	c0.3-1.3,0.8-2.2,1.5-2.8c0.8-0.6,1.8-0.8,3.1-0.7L413.8,29.5z M411.8,31.9c-0.2,0-0.3,0-0.3,0c0.1-0.5,0.5-1,1.5-1.1
	c-1.7,0.2-3,0.6-3.6,1.8c0.4-0.1,0.7,0.1,0.8,0.3v0.1l-1.9,13.3c-0.1,0.4,0,0.8,0.2,1c0.2,0.3,0.5,0.5,0.9,0.5l1.8,0.3
	c0.4,0.1,0.8,0,1-0.2c0.3-0.2,0.4-0.5,0.5-0.9l0.7-4.4c3.6,0.2,1.8-1.2,0.1-0.8l1.2-8.1c0.1-0.5,0-0.8-0.2-1.1
	c-0.2-0.3-0.5-0.4-0.9-0.5L411.8,31.9z M429.4,32c1.1,0.2,1.9,0.6,2.5,1.1c0.6,0.6,0.9,1.3,0.9,2.3c0,0.3-0.1,0.5-0.3,0.6
	c-0.2,0.2-0.4,0.3-0.7,0.2l-1.3-0.2c-0.3-0.1-0.4-0.3-0.5-0.6c-0.2-0.3-0.5-0.6-1.2-0.8l-1.7-0.3c-0.4-0.1-0.8,0-1,0.2
	c-0.3,0.2-0.4,0.5-0.5,0.9l-1.7,10c-0.9,0-1.8,0.1-1.9,0.8c0.6-0.1,1.3,0,1.8-0.1l-0.4,2.6c-0.1,0.4,0,0.8,0.2,1
	c0.2,0.3,0.5,0.5,0.9,0.5l1.7,0.3c0.4,0.1,0.8,0,1.1-0.2c0.3-0.2,0.4-0.5,0.5-0.9l1.3-7.7h-0.3c-0.2-0.1-0.4-0.2-0.5-0.3
	c-0.2-0.3-0.2-0.4-0.2-0.7l0.2-1c0.1-0.3,0.2-0.4,0.3-0.5c0.2-0.2,0.4-0.2,0.7-0.2l2,0.3c0.3,0.1,0.5,0.2,0.6,0.3
	c0.2,0.2,0.2,0.4,0.2,0.7l-1.7,9.5c-0.2,1.3-0.7,2.3-1.5,2.8c-0.8,0.6-1.8,0.8-3.1,0.6l-1.7-0.3c-1.3-0.2-2.3-0.7-2.8-1.5
	c-0.6-0.8-0.8-1.8-0.6-3.1L423,35c0.3-1.3,0.8-2.3,1.5-2.8c0.8-0.6,1.8-0.8,3.2-0.6L429.4,32z M455.4,38.1c1.3,0.3,2.1,1,2.6,1.8
	c0.5,0.8,0.5,1.8,0.2,3.2l-1.8,6.1c-0.6,1.8-1.5,2.8-2.9,3l0.2,5l0.5,0.2c0.2,0.1,0.3,0.2,0.3,0.3c0.1,0.2,0.1,0.4,0,0.7l-0.3,0.9
	c0,0.3-0.2,0.4-0.3,0.5c-0.2,0.2-0.4,0.2-0.7,0.1l-3.2-0.9c-0.3,0-0.4-0.2-0.5-0.3c-0.1-0.3-0.2-0.4-0.1-0.7l0.3-1
	c0-0.3,0.2-0.4,0.3-0.5c0.3-0.1,0.4-0.1,0.7-0.1l0.3,0.1l-0.3-4.6l-2.3-0.7l-1.2,4.2l0.2,0.1c0.3,0.1,0.4,0.3,0.5,0.4
	c0.2,0.2,0.2,0.4,0.1,0.7l-0.3,0.9c-0.1,0.3-0.3,0.4-0.4,0.5c-0.2,0.2-0.4,0.2-0.7,0.1l-3-0.8c-0.3-0.1-0.4-0.3-0.5-0.4
	c-0.1-0.2-0.2-0.4-0.1-0.7l0.3-0.9c0.1-0.3,0.3-0.4,0.4-0.6c0.3-0.1,0.4-0.1,0.7,0l0.3,0.1l4.4-15.6l-0.3-0.1
	c-0.2,0-0.3-0.2-0.4-0.3c0-0.1-0.1-0.2-0.1-0.3c-0.1-0.2-0.1-0.3-0.1-0.5l0.3-1c0.1-0.3,0.2-0.4,0.3-0.5c0.3-0.1,0.4-0.2,0.7-0.1
	L455.4,38.1z M451.7,39.9l-2.5,8.7l2.9,0.8c0.4,0.2,0.8,0.2,1,0c0.3-0.2,0.5-0.4,0.7-0.9l1.8-6.1c0.1-0.4,0.1-0.8-0.1-1.1
	c-0.2-0.3-0.4-0.5-0.8-0.6L451.7,39.9z M470.9,42.9c1.3,0.3,2.1,1,2.6,1.8c0.4,0.9,0.4,1.9,0.1,3.2l-4.1,12.9
	c-0.4,1.2-1.1,2.1-1.9,2.5c-0.8,0.4-1.9,0.5-3.2,0.1l-1.6-0.5c-1.3-0.4-2.1-1.1-2.6-1.9c-0.4-0.8-0.4-1.9-0.1-3.2l4.1-12.8
	c0.4-1.3,1.1-2.1,1.9-2.6c0.8-0.4,1.9-0.4,3.2-0.1L470.9,42.9z M468.5,44.9c-0.4-0.1-0.8-0.1-1,0c-0.3,0.2-0.5,0.4-0.7,0.9
	l-4.1,12.8c-0.1,0.4-0.1,0.8,0,1c0.2,0.3,0.4,0.5,0.9,0.7l1.6,0.5c0.4,0.2,0.8,0.2,1,0c0.3-0.2,0.5-0.4,0.7-0.8l4.1-12.9
	c0.1-0.3,0.1-0.8,0-1c-0.2-0.3-0.4-0.5-0.9-0.7L468.5,44.9z M487.4,48.9c1.3,0.5,2.1,1.2,2.4,2.1c0.4,0.9,0.3,1.9-0.1,3.2l-5.5,13.8
	l0.3,0.1c0.2,0.1,0.3,0.3,0.4,0.4s0.1,0.4,0,0.7l-0.3,0.9c-0.1,0.3-0.3,0.3-0.4,0.5c-0.3,0.1-0.4,0.1-0.7,0l-3-1.2
	c-0.2-0.1-0.3-0.3-0.4-0.5c-0.1-0.2-0.1-0.4,0-0.6l0.3-1c0.1-0.2,0.3-0.3,0.5-0.4c0.2-0.1,0.4-0.1,0.6,0l0.3,0.1l0.7-1.8
	c0.7-0.1,1.3-0.3,1.4-0.8c-0.3-0.3-0.6-0.4-0.8-0.6l0.3-0.9l-4.1-1.6l-1.6,4.1l0.3,0.1c0.3,0.1,0.3,0.3,0.5,0.4
	c0.1,0.2,0.1,0.4-0.1,0.7l-0.3,0.9c-0.1,0.3-0.3,0.3-0.4,0.5c-0.3,0.1-0.4,0.1-0.7,0l-2.9-1.2c-0.3-0.1-0.4-0.3-0.5-0.5
	c-0.1-0.2-0.1-0.4,0-0.6l0.4-1c0.1-0.2,0.2-0.3,0.4-0.4c0.2-0.1,0.4-0.1,0.6,0l0.3,0.1l5.5-13.8c0.5-1.2,1.2-2,2.1-2.4
	c0.2-0.1,0.3-0.1,0.5-0.2c-0.3,0.3-0.3,0.6-0.3,1c1.5,0.3,2.4-0.2,3.1-0.6L487.4,48.9z M484.9,50.9c-0.4-0.2-0.8-0.2-1.1-0.1
	c-0.3,0.2-0.5,0.4-0.7,0.8l-1.9,4.9c-0.5,0.4-0.8,0.8-1,1.6c0.2-0.1,0.3-0.2,0.5-0.3l-0.4,1l4.1,1.6l1.3-3.3
	c0.8-0.1,1.4-0.3,1.8-0.9c-0.3-0.1-0.8-0.2-1.3-0.3l1.1-2.8c0.2-0.4,0.2-0.8,0-1c-0.1-0.3-0.3-0.6-0.8-0.8L484.9,50.9z M503.1,56.2
	c1.2,0.6,1.9,1.3,2.3,2.2c0.4,0.8,0.3,1.8-0.3,2.9l-0.3,0.8c-0.2,0.2-0.3,0.3-0.5,0.4c-0.2,0.1-0.4,0.1-0.7-0.1l-0.9-0.4
	c-0.2-0.1-0.3-0.3-0.4-0.5c-0.1-0.2-0.1-0.4,0.1-0.6l0.3-0.8c0.3-0.6,0.1-1.1-0.8-1.5l-1.5-0.8c-0.4-0.2-0.8-0.2-1.1-0.1
	c-0.3,0.1-0.5,0.3-0.8,0.8l-1.3,2.7c-0.4,0.8-0.3,1.4,0.6,1.8l1.5,0.8c1.3,0.5,2,1.3,2.3,2.2c0.3,0.9,0.3,2-0.3,3.2l-2.2,4.6
	c-0.6,1.2-1.3,1.9-2.3,2.3c-0.9,0.3-1.9,0.2-3.1-0.4l-0.3-0.2c1.6-0.5,3.3-1.1,0.4-0.1l0,0l-0.4,0.1l-1.3-0.5
	c-1.2-0.6-1.9-1.3-2.3-2.3s-0.2-2,0.4-3.2l0.5-1.1c0.1-0.2,0.3-0.3,0.4-0.4c0.3-0.1,0.5-0.1,0.7,0.1l0.9,0.4
	c0.3,0.1,0.4,0.3,0.4,0.5c0.1,0.2,0.1,0.4,0,0.6l-0.5,1.1c-0.3,0.4-0.3,0.8-0.2,1.1c0.1,0.3,0.3,0.5,0.8,0.8l1.5,0.7
	c0.4,0.3,0.8,0.3,1.1,0.2s0.6-0.3,0.8-0.8l2.2-4.6c0.4-0.8,0.2-1.4-0.6-1.8l-1.6-0.8c-1.2-0.6-1.9-1.3-2.3-2.3
	c-0.3-0.9-0.2-1.9,0.4-3.1l1.3-2.8c0.6-1.2,1.3-1.9,2.3-2.3c0.9-0.3,1.9-0.2,3.2,0.3L503.1,56.2z M521.8,66.3
	c0.3,0.2,0.4,0.3,0.4,0.5c0.1,0.3,0.1,0.4-0.1,0.7l-1.1,1.8c-0.1,0.2-0.3,0.3-0.5,0.4c-0.2,0-0.4,0-0.6-0.2l-0.9-0.5
	c-0.2-0.1-0.3-0.3-0.3-0.5c-0.1-0.2-0.1-0.4,0.1-0.6l0.1-0.3l-1.8-1l-3.8,6.5c-0.8-0.6-0.7-2.1-1.7-2.4l3.1-5.4l-1.8-1l-0.1,0.2
	c-0.1,0.3-0.3,0.3-0.5,0.4c-0.2,0.1-0.4,0-0.7-0.1l-0.8-0.5c-0.3-0.2-0.3-0.3-0.4-0.5c-0.1-0.3,0-0.5,0.1-0.7l1.1-1.8
	c0.1-0.2,0.3-0.3,0.5-0.4c0.3,0,0.4,0,0.6,0.2L521.8,66.3z M512.4,74.8l-3.4,6l0.3,0.1c0.2,0.2,0.3,0.3,0.3,0.5
	c0.1,0.3,0.1,0.4-0.1,0.7l-0.5,0.9c-0.1,0.2-0.3,0.3-0.5,0.3c-0.2,0.1-0.4,0.1-0.7-0.1l-2.7-1.6c-0.3-0.1-0.3-0.3-0.4-0.5
	c-0.1-0.3,0-0.4,0.1-0.7l0.5-0.8c0.2-0.3,0.3-0.3,0.5-0.4c0.3-0.1,0.4,0,0.7,0.1l0.2,0.2l2.7-4.6C510.1,75,511.4,75.1,512.4,74.8z"
	/>
<path class="st1" d="M197.5,210.9c0.2,0.2,0.2,0.4,0.2,0.6c0,0.3-0.1,0.4-0.3,0.6l-0.8,0.7c-0.2,0.2-0.3,0.2-0.5,0.2
	c-0.3,0-0.4-0.1-0.6-0.3l-0.5-0.5l-13.4,8.4c0.2,0.2,0.2,0.3,0.2,0.5c-0.1,0.2-0.2,0.3-0.3,0.5l-0.8,0.7c-0.2,0.1-0.3,0.2-0.6,0.2
	c-0.2,0-0.3-0.1-0.5-0.3l-1.8-1.9c-0.2-0.1-0.3-0.3-0.3-0.5c0.1-0.3,0.2-0.4,0.3-0.6l0.7-0.7c0.2-0.2,0.3-0.3,0.5-0.3
	c0.2-0.1,0.3-0.1,0.4,0.1l7-10l-10.5,6.1c0.1,0.2,0.2,0.3,0.1,0.4c-0.1,0.2-0.2,0.3-0.3,0.5L175,216c-0.2,0.2-0.3,0.3-0.5,0.3
	c-0.3,0-0.4-0.2-0.6-0.3l-1.7-1.8c-0.2-0.2-0.3-0.3-0.3-0.6c0-0.2,0.1-0.3,0.3-0.5l0.8-0.7c0.2-0.2,0.3-0.3,0.5-0.3
	c0.2,0,0.3,0,0.4,0.2l9.5-12.7l-0.5-0.6c-0.2-0.2-0.3-0.3-0.3-0.6c0.1-0.2,0.2-0.4,0.3-0.5l0.7-0.7c0.2-0.2,0.4-0.3,0.6-0.3
	c0.3,0,0.4,0.1,0.6,0.3l2.2,2.4c0.2,0.2,0.3,0.4,0.3,0.6c0,0.3-0.1,0.4-0.3,0.6l-0.8,0.7c-0.2,0.2-0.3,0.3-0.6,0.3
	c-0.2,0-0.3-0.1-0.4-0.2l-6.7,8.5l9.4-5.5c-0.1-0.1-0.1-0.3,0-0.4c0-0.2,0.2-0.3,0.3-0.5l0.7-0.7c0.2-0.2,0.4-0.3,0.6-0.3
	c0.3,0.1,0.4,0.2,0.6,0.3l2.1,2.3c0.2,0.3,0.3,0.4,0.3,0.6c0,0.3-0.1,0.4-0.3,0.6l-0.8,0.7c-0.1,0.1-0.2,0.2-0.3,0.2
	c-0.3-1.2-1.8-2.2-2.7-0.1c-0.1,0.3,0.5,1,1,1.4l-5.3,7.6l9-6c-0.1-0.1-0.2-0.3-0.1-0.4c0-0.3,0.1-0.4,0.3-0.6l0.8-0.7
	c0.2-0.1,0.4-0.2,0.6-0.2c0.3,0,0.4,0.1,0.6,0.3L197.5,210.9z M399.4,265.3c-0.2,0.2-0.3,0.3-0.4,0.5
	C399.1,265.7,399.2,265.6,399.4,265.3z M470.2,247.1c-0.2,0.2-0.7-0.1-0.9,0c-1.1,0.3-0.3,1.5,0.9,0.9
	C470.9,247.7,471.7,246.4,470.2,247.1z M546.6,208.1c-0.3,0.1-0.7-0.1-0.9,0c-1.1,0.3-0.3,1.5,0.9,0.8
	C547.3,208.6,548,207.3,546.6,208.1z M552.1,208.9c-0.1,0.1-0.2,0-0.2,0C551.9,209,552,209,552.1,208.9z M347.5,277.1
	c0.3,1.1,1,0.5,1.8,0C349.4,276.2,347.8,276,347.5,277.1z M384.8,264.4c-1,0.2-2.5-0.2-2.7,0.9C383.2,265.1,384.7,265.5,384.8,264.4
	z M249.4,248.9C247.2,252,252.4,246.8,249.4,248.9L249.4,248.9z M493.3,235.8c1.2-0.6,2.2-0.8,3-0.5c0.8,0.3,1.6,0.9,2.1,1.9
	l0.5,1.1c0.1,0.2,0.1,0.3,0,0.6c-0.1,0.2-0.2,0.3-0.4,0.4l-0.8,0.5c-0.3,0.1-0.4,0.1-0.7,0c-0.2-0.1-0.3-0.2-0.4-0.4l-0.5-1
	c-0.3-0.6-0.8-0.7-1.6-0.3l-1.5,0.8c-0.3,0.2-0.6,0.4-0.7,0.7c-0.1,0.3-0.1,0.7,0.1,1.1l5.7,11.7c0.2,0.3,0.4,0.6,0.7,0.7
	c0.3,0.1,0.7,0.1,1.1-0.1l1.4-0.8c0.3-0.2,0.6-0.4,0.8-0.7c0.1-0.3,0-0.7-0.2-1l-0.5-1.1c-0.1-0.2-0.1-0.4,0-0.6
	c0.1-0.3,0.2-0.3,0.4-0.5l0.8-0.4c0.3-0.1,0.4-0.1,0.7,0c0.2,0,0.3,0.2,0.4,0.4l0.5,1c0.6,1.2,0.7,2.2,0.3,3c-0.3,0.9-1,1.6-2.1,2.2
	l-1.5,0.7c-0.3,0.2-0.4,0.3-0.7,0.3c0.1-0.5-0.3-0.9-0.9-1c-0.1,0.8-0.7,0.9-1.2,1.2c-0.1-0.1-0.2-0.1-0.3-0.1
	c-0.9-0.3-1.6-1-2.2-2.2l-5.7-11.7c-0.5-1.1-0.7-2.1-0.3-3c0.3-0.9,1-1.6,2.2-2.2L493.3,235.8z M506.9,228.5c1.1-0.7,2-0.8,2.9-0.7
	c0.9,0.3,1.8,0.9,2.4,2l6.7,11.1c0.7,1.1,0.8,2.1,0.6,3c-0.2,0.9-0.8,1.7-1.9,2.4l-1.4,0.8c-1.1,0.7-2.1,0.8-2.9,0.7
	c-0.9-0.3-1.8-0.9-2.4-2l-6.7-11.1c-0.7-1.1-0.8-2.1-0.6-3c0.2-0.9,0.8-1.7,1.9-2.4L506.9,228.5z M506.8,231.6
	c-0.3,0.2-0.6,0.4-0.7,0.8c-0.1,0.3,0,0.6,0.3,1l6.6,11.1c0.3,0.3,0.5,0.6,0.8,0.7c0.3,0.1,0.7,0,1-0.3l1.4-0.8
	c0.3-0.2,0.6-0.4,0.7-0.8c0.1-0.3,0-0.6-0.3-1l-6.6-11.1c-0.3-0.3-0.5-0.6-0.8-0.7c-0.3-0.1-0.7,0-1,0.2L506.8,231.6z M528.2,235.8
	c0.2-0.1,0.4-0.2,0.6-0.2c0.3,0.1,0.4,0.2,0.5,0.3l0.9,1.3c0.2,0.3,0.3,0.4,0.2,0.6c0,0.3-0.1,0.4-0.3,0.6l-1.3,0.9
	c-0.2,0.1-0.3,0.2-0.6,0.2c-0.2-0.1-0.3-0.2-0.5-0.3l-0.9-1.3c-0.2-0.3-0.2-0.4-0.2-0.6c0.1-0.3,0.2-0.4,0.3-0.6L528.2,235.8z
	 M533,209.9c0.2-0.2,0.3-0.3,0.6-0.2c0.2,0,0.3,0.1,0.5,0.3l0.6,0.8c0.2,0.2,0.3,0.3,0.3,0.6c-0.1,0.2-0.2,0.3-0.3,0.5l-0.2,0.2
	l8.8,11.2c0.1,0.1,0.2,0.3,0.3,0.3c-0.3,0.1-0.5,0.3-0.5,0.8c0.5-0.1,0.8,0.3,1.1,0.4c0.2,0.4,0.2,0.9,0.2,1.3
	c-0.2,0.9-0.7,1.8-1.7,2.6l-1.3,1c-1,0.8-2,1.1-2.9,1c-0.9-0.2-1.8-0.7-2.5-1.7l-8.8-11.2l-0.3,0.2c-0.2,0.2-0.3,0.2-0.6,0.2
	c-0.2,0-0.3-0.1-0.5-0.3l-0.6-0.8c-0.2-0.2-0.3-0.3-0.3-0.6c0.1-0.3,0.2-0.4,0.3-0.5l2.4-1.9c0.2-0.2,0.3-0.2,0.6-0.2
	c0.2,0,0.4,0.2,0.5,0.3l0.7,0.8c0.1,0.2,0.2,0.3,0.2,0.6c-0.1,0.3-0.2,0.4-0.3,0.5l-0.2,0.2l2.8,3.5c-0.3,0-0.5,0.1-0.7,0
	c0,0-0.8-1.7-0.9-1.8c-0.8-0.4-2.4,0.7-0.9,0.9c2.1-0.3,1,2.6,2.8,2.7c0-0.4,0.1-0.8,0.3-1.1l1,1.3c-0.3,0.1-0.4,0.3-0.5,0.7
	c0.3-0.1,0.7-0.1,1-0.1l3.9,5c0.3,0.3,0.5,0.5,0.8,0.5c0.3,0.1,0.6,0,1-0.3l1.3-1c0.3-0.3,0.5-0.5,0.5-0.8c0.1-0.3,0-0.6-0.3-0.9
	l-2.6-3.4c0.3,0.1,0.8,0.2,0.8,0.2c2.4,1.2-0.3-1.1-1.5-1l-0.6-0.8c0.4,0,0.8,0,1.2-0.1c1.3-1.8,0-1.5-2-1l-4-5.1l-0.2,0.2
	c-0.2,0.1-0.3,0.2-0.6,0.2c-0.2,0-0.4-0.2-0.5-0.3l-0.7-0.8c-0.1-0.2-0.2-0.4-0.2-0.6c0.1-0.3,0.2-0.4,0.3-0.5L533,209.9z
	 M543.8,198.6c0.2-0.2,0.3-0.3,0.6-0.3c0.2,0,0.3,0.1,0.5,0.3l0.8,0.7c0.2,0.2,0.3,0.3,0.3,0.5c0,0.3-0.1,0.4-0.2,0.6l-0.2,0.2
	l2.8,5.2l2.8,1.8c0.2,0.6,0.5,1.3,0.8,1.4c-0.1-0.1,0-0.4,0.3-0.8l4.8,2.9l0.2-0.2c0.2-0.2,0.3-0.3,0.6-0.3c0.2,0,0.3,0,0.6,0.2
	l0.7,0.7c0.2,0.2,0.3,0.3,0.3,0.6c0,0.3,0,0.4-0.2,0.6l-2.2,2.3c-0.2,0.2-0.3,0.3-0.5,0.3c-0.3,0-0.4-0.1-0.6-0.2l-0.8-0.7
	c-0.2-0.2-0.3-0.4-0.3-0.6c0-0.3,0.1-0.4,0.3-0.6l0.2-0.2l-4.2-2.6c0.3-0.1,0.7-0.3,1.1-0.6l0,0c-2-0.9-2.9-0.9-2.9-0.5l-1.6-1
	l-1.5,1.6l6.5,6l0.1-0.2c0.2-0.2,0.4-0.3,0.6-0.3c0.3,0,0.4,0.1,0.6,0.3l0.8,0.7c0.2,0.2,0.3,0.3,0.3,0.5c0,0.3-0.1,0.4-0.3,0.6
	l-2.1,2.3c-0.2,0.2-0.3,0.3-0.6,0.3c-0.2,0-0.3-0.1-0.5-0.3l-0.8-0.7c-0.2-0.2-0.3-0.3-0.3-0.5c0-0.3,0.1-0.4,0.3-0.6l0.1-0.2
	l-11.3-10.7l-0.2,0.2c-0.2,0.2-0.3,0.3-0.6,0.3c-0.2,0-0.3,0-0.5-0.2l-0.8-0.7c-0.2-0.2-0.3-0.3-0.3-0.6c0-0.3,0.1-0.4,0.3-0.6
	l2-2.2c0.2-0.3,0.4-0.3,0.6-0.3c0.3,0,0.4,0.1,0.6,0.3l0.8,0.7c0.1,0.2,0.3,0.3,0.3,0.6c0,0.2-0.1,0.4-0.3,0.6l-0.2,0.2l3.1,2.9
	l1.6-1.7l-2.2-3.9l-0.1,0.2c-0.2,0.2-0.3,0.3-0.6,0.3c-0.3,0-0.4,0-0.6-0.2l-0.8-0.7c-0.2-0.2-0.3-0.4-0.3-0.6
	c0-0.3,0.1-0.4,0.3-0.6L543.8,198.6z M214.3,223.1c0.3,0.2,0.3,0.3,0.3,0.5c0.1,0.3,0,0.4-0.1,0.7l-0.6,0.8
	c-0.2,0.2-0.3,0.3-0.5,0.3c-0.3,0.1-0.4,0-0.7-0.2l-0.6-0.4l-11.3,11.1c0.2,0.1,0.3,0.3,0.3,0.4s-0.1,0.4-0.3,0.6l-0.5,0.8
	c-0.2,0.3-0.3,0.3-0.5,0.4c-0.3,0-0.4-0.1-0.7-0.2l-2.1-1.5c-0.2-0.1-0.3-0.3-0.3-0.5c0-0.3,0-0.4,0.2-0.6l0.6-0.8
	c0.1-0.2,0.3-0.3,0.4-0.3c0.2-0.1,0.3-0.1,0.4,0l2.7-6.4c0.3,0.6,0.9,0.8,2.1-0.6l0,0c-0.7-0.6-1.2-0.8-1.5-0.8l1.4-3.4l-8.9,8.1
	c0.1,0.1,0.2,0.3,0.1,0.4c0,0.2-0.1,0.3-0.2,0.5l-0.6,0.8c-0.2,0.2-0.3,0.3-0.5,0.3c-0.3,0-0.4,0-0.6-0.2l-2.1-1.4
	c-0.2-0.2-0.3-0.3-0.3-0.5c0-0.3,0-0.4,0.2-0.7l0.6-0.8c0.1-0.3,0.3-0.3,0.4-0.4c0.2-0.1,0.3,0,0.4,0.1l6.5-14.4l-0.6-0.4
	c-0.2-0.2-0.3-0.3-0.3-0.5c0-0.3,0.1-0.4,0.2-0.6l0.6-0.8c0.2-0.2,0.3-0.3,0.5-0.3c0.3,0,0.4,0,0.6,0.2l2.7,1.8
	c0.3,0.2,0.3,0.3,0.3,0.6c0.1,0.2,0,0.3-0.1,0.6l-0.6,0.8c-0.2,0.3-0.3,0.3-0.5,0.4c-0.2,0-0.3,0-0.5-0.1l-4.8,9.7l8.1-7.5
	c-0.1,0-0.2-0.2-0.1-0.3c0-0.2,0.1-0.4,0.2-0.6l0.6-0.8c0.2-0.3,0.3-0.3,0.5-0.3c0.3-0.1,0.4,0,0.6,0.1l2.6,1.8
	c0.2,0.2,0.3,0.3,0.3,0.5c0.1,0.3,0,0.4-0.2,0.6l-0.5,0.8c-0.2,0.2-0.3,0.3-0.5,0.4c-0.2,0.1-0.3,0-0.4-0.1l-4.3,10.1l7.6-7.7
	c-0.1-0.1-0.2-0.3-0.2-0.4c-0.1-0.2,0-0.4,0.2-0.6l0.6-0.8c0.1-0.2,0.3-0.3,0.5-0.3c0.2,0,0.4,0.1,0.6,0.2L214.3,223.1z
	 M233.8,234.5c0.3,0.2,0.3,0.3,0.4,0.5c0.1,0.2,0,0.4-0.1,0.6l-0.5,0.9c-0.1,0.2-0.3,0.3-0.4,0.3c-0.3,0.1-0.4,0.1-0.7,0l-0.6-0.4
	l-4.3,5.3c-1,0.2-1.6,0.8-1.9,1.8c0.3,0,0.4,0,0.5,0l-4.3,5.3c0.2,0.1,0.3,0.3,0.3,0.4c0.1,0.2,0,0.3-0.1,0.6l-0.5,0.8
	c-0.1,0.3-0.3,0.3-0.4,0.4c-0.3,0.1-0.4,0-0.7-0.1l-2.3-1.3c-0.2-0.1-0.3-0.3-0.3-0.4c-0.1-0.3-0.1-0.4,0-0.7l0.5-0.8
	c0.1-0.2,0.3-0.3,0.4-0.4c0.1-0.1,0.3-0.1,0.3-0.1l3.4-11.6l-8,9.1c0.2,0.1,0.3,0.2,0.3,0.3c0,0.3-0.1,0.4-0.2,0.6l-0.5,0.9
	c-0.1,0.2-0.3,0.3-0.4,0.3c-0.3,0.1-0.4,0.1-0.7-0.1l-2.2-1.2c-0.3-0.1-0.3-0.3-0.4-0.5c-0.1-0.2,0-0.3,0.1-0.6l0.4-0.8
	c0.2-0.3,0.3-0.3,0.4-0.4c0.2-0.1,0.3-0.2,0.4-0.1l4.9-15l-0.7-0.3c-0.2-0.2-0.3-0.3-0.3-0.5c-0.1-0.3-0.1-0.4,0-0.6l0.5-0.9
	c0.1-0.2,0.3-0.3,0.5-0.4c0.2,0,0.4,0,0.6,0.1l2.9,1.6c0.2,0.1,0.3,0.3,0.3,0.5c0.1,0.2,0.1,0.3-0.1,0.6l-0.4,0.8
	c-0.2,0.3-0.3,0.4-0.4,0.4c-0.2,0.1-0.3,0.1-0.5,0l-3.6,10.2l7.1-8.3c-0.2-0.1-0.2-0.2-0.2-0.3c-0.1-0.3,0-0.4,0.1-0.6l0.5-0.9
	c0.1-0.2,0.3-0.3,0.5-0.3c0.2-0.1,0.3-0.1,0.6,0.1l2.8,1.5c0.3,0.1,0.3,0.3,0.4,0.4c0.1,0.3,0,0.4-0.1,0.7l-0.5,0.8
	c-0.1,0.2-0.3,0.3-0.4,0.4c-0.1,0.1-0.3,0.1-0.4,0l-2.9,10.2l0,0c-1.3-0.1-3.5,0.2-1.8,0.9s2.5-1.1,2.5-1.6l5.9-7.6
	c-0.2-0.1-0.3-0.2-0.3-0.4c0-0.2,0-0.3,0.2-0.6l0.4-0.8c0.2-0.3,0.3-0.3,0.5-0.4c0.3,0,0.4,0,0.6,0.1L233.8,234.5z M234.5,254.3
	c0.3,0.1,0.4,0.3,0.4,0.4c0.1,0.2,0.1,0.4,0,0.7l-0.7,1.3c-0.1,0.3-0.3,0.4-0.4,0.5c-0.2,0.1-0.4,0-0.6-0.1l-1.4-0.6
	c-0.3-0.2-0.3-0.3-0.4-0.5c-0.1-0.2-0.1-0.4,0-0.6l0.7-1.4c0.1-0.3,0.3-0.3,0.4-0.4c0.2-0.1,0.4-0.1,0.6,0L234.5,254.3z
	 M254.4,243.7c1.2,0.5,1.9,1.2,2.4,2c0.3,0.8,0.3,1.8-0.2,3l-0.6,1.5c-0.3,0.6-0.5,1-0.9,1.5c0.9,1,1.1,2.3,0.4,3.9l-2.3,5.8
	c-0.5,1.2-1.2,1.9-2,2.3c-0.8,0.4-1.8,0.3-3-0.1l-5.8-2.4c-0.2-0.1-0.3-0.2-0.4-0.4c-0.1-0.2-0.1-0.4,0-0.6l0.3-0.9
	c0.1-0.3,0.3-0.4,0.4-0.4c0.3-0.1,0.4-0.1,0.7,0l0.2,0.1l5.8-14.5l-0.3-0.1c-0.2-0.1-0.3-0.2-0.4-0.4c-0.1-0.2-0.1-0.4,0-0.6
	l0.3-0.9c0.1-0.3,0.3-0.4,0.4-0.4c0.3-0.1,0.4-0.1,0.6,0L254.4,243.7z M249.2,251.6l-3.2,8.1l3.1,1.3c0.4,0.2,0.8,0.2,1,0.1
	c0.3-0.2,0.5-0.4,0.7-0.8l1.9-4.8c0.1-0.1,0.3-0.2,0.3-0.3l0,0l-0.2-0.2l0.2-0.6c0.2-0.3,0.2-0.7,0.1-1c-0.1-0.3-0.4-0.5-0.8-0.7
	L249.2,251.6z M251.7,245.4l-1.5,3.9l1.7,0.7c0.4,0.2,0.8,0.2,1,0.1c0.3-0.2,0.5-0.4,0.7-0.8l0.6-1.5c0.3-0.8,0.1-1.3-0.8-1.7
	L251.7,245.4z M271.7,249.6c1.2,0.4,2,1,2.4,1.8c0.4,0.8,0.4,1.8,0.1,3.1l-4.4,13.5l0.2,0.1c0.3,0.1,0.4,0.3,0.5,0.4
	c0.1,0.2,0.2,0.4,0.1,0.6l-0.3,0.9c-0.1,0.3-0.2,0.4-0.3,0.5c-0.3,0.1-0.4,0.2-0.7,0.1l-1.9-0.7c-0.5-0.5-1.1-1.1-1.5-1.2
	c0-0.1,0-0.1,0-0.1l0.3-1c0.1-0.2,0.2-0.3,0.3-0.4c0.3-0.2,0.4-0.2,0.7-0.1l0.2,0.1l1.3-4l-4-1.3l-1.3,4l0.3,0.1
	c0.3,0,0.4,0.2,0.5,0.3c0.1,0.2,0.1,0.4,0,0.7l-0.3,0.9c-0.1,0.2-0.3,0.3-0.4,0.4c-0.2,0.2-0.4,0.2-0.6,0.1l-2.9-0.9
	c-0.3-0.1-0.3-0.3-0.5-0.4c-0.1-0.2-0.1-0.4,0-0.6l0.3-0.9c0.1-0.3,0.3-0.4,0.4-0.5s0.4-0.1,0.6-0.1l0.3,0.1l4.4-13.6
	c0.3-1.2,1-2,1.8-2.4s1.8-0.4,3-0.1L271.7,249.6z M269.3,251.6c-0.4-0.2-0.8-0.2-1,0c-0.3,0.2-0.5,0.4-0.7,0.8l-2.3,7.1l4,1.3
	l2.3-7.1c0.2-0.4,0.2-0.8,0-1c-0.2-0.3-0.4-0.5-0.8-0.6L269.3,251.6z M287.7,254.1c1.2,0.3,2,0.8,2.5,1.6c0.6,0.8,0.7,1.7,0.4,2.8
	l-0.3,1.2c0,0.2-0.2,0.3-0.3,0.5c-0.2,0.1-0.3,0.1-0.6,0.1l-0.9-0.3c-0.3-0.1-0.4-0.2-0.5-0.3c-0.2-0.3-0.2-0.4-0.2-0.7l0.3-1.1
	c0.1-0.6-0.3-1-1.1-1.3l-1.6-0.3c-0.3-0.1-0.7-0.1-1,0.1c-0.3,0.2-0.4,0.4-0.5,0.8l-3,12.7c-0.2,0.3-0.1,0.7,0.1,1
	c0.2,0.3,0.4,0.4,0.8,0.5l1.6,0.4c0.4,0.1,0.8,0,1-0.2c0.3-0.1,0.4-0.4,0.5-0.8l0.3-1.1c0-0.3,0.2-0.4,0.3-0.5
	c0.2-0.1,0.4-0.2,0.6-0.1l1,0.3c0.2,0,0.3,0.2,0.5,0.3c0.1,0.2,0.1,0.4,0.1,0.6l-0.3,1.2c-0.3,1.2-0.9,2-1.7,2.5
	c-0.8,0.5-1.8,0.6-3,0.3l-1.6-0.4c-1.3-0.3-2.1-0.8-2.6-1.6c-0.5-0.8-0.6-1.8-0.3-3.1l3.1-12.6c0.3-1.3,0.8-2.1,1.6-2.6
	c0.8-0.4,1.8-0.6,3.1-0.3L287.7,254.1z M303.1,257.6c1.3,0.3,2.1,0.8,2.7,1.5c0.5,0.8,0.7,1.8,0.5,3l-1.4,7.7h-0.1
	c0.1,0.1,0.1,0.2,0.1,0.3l-0.8,4.7c-0.2,1.3-0.7,2.1-1.5,2.7c-0.8,0.5-1.8,0.7-3,0.5l-1.6-0.3c-1.3-0.2-2.1-0.7-2.7-1.4
	c-0.5-0.8-0.7-1.8-0.4-3l1.3-7.6c0.2-0.2,0.4-0.3,0.6-0.4c0.9-0.8,0.4-0.8-0.4-0.3l0.8-4.5c0.3-1.3,0.7-2.2,1.5-2.7
	c0.8-0.6,1.8-0.8,3-0.5L303.1,257.6z M301,259.9c-0.4-0.1-0.8,0-1,0.2c-0.3,0.2-0.4,0.5-0.5,0.9l-2.2,12.8c-0.1,0.4,0,0.8,0.2,1
	c0.2,0.3,0.5,0.4,0.9,0.5l1.6,0.3c0.4,0.1,0.8,0,1-0.2s0.4-0.4,0.5-0.8l2.2-12.8c0.1-0.3,0-0.7-0.2-1c-0.2-0.3-0.4-0.4-0.9-0.4
	L301,259.9z M324.5,260.9c0.3,0.1,0.4,0.2,0.6,0.3c0.1,0.2,0.2,0.3,0.1,0.6l-0.1,1c-0.1,0.2-0.2,0.3-0.3,0.5
	c-0.2,0.2-0.3,0.2-0.6,0.2l-0.3-0.1l-2.3,15.4h0.3c0.3,0.1,0.4,0.2,0.6,0.3c0.1,0.2,0.2,0.3,0.1,0.6l-0.1,0.9
	c-0.8,0.1-1.8,0-2.1,0.6L318,281c-0.3-0.1-0.4-0.2-0.5-0.3c-0.2-0.2-0.3-0.4-0.2-0.6l0.1-1c0.1-0.3,0.2-0.4,0.3-0.5
	c0.2-0.2,0.4-0.2,0.6-0.2h0.3l-2.2-10.1l-1.4,9.6l0.3,0.1c0.3,0,0.4,0.1,0.5,0.3c0.2,0.2,0.2,0.4,0.2,0.6l-0.2,1
	c0,0.3-0.1,0.4-0.3,0.5c-0.2,0.2-0.4,0.3-0.7,0.2l-3-0.4c-0.2,0-0.4-0.2-0.5-0.3c-0.2-0.2-0.2-0.3-0.2-0.6l0.2-1
	c0-0.2,0.1-0.4,0.3-0.5c0.2-0.1,0.3-0.2,0.6-0.2l0.2,0.1l2.3-15.4h-0.3c-0.2,0-0.3-0.2-0.5-0.3c-0.2-0.2-0.2-0.3-0.2-0.6l0.2-1
	c0-0.2,0.2-0.4,0.3-0.5c0.2-0.2,0.3-0.2,0.6-0.2l3.6,0.6c0.3,0,0.4,0.1,0.5,0.3c0.2,0.2,0.2,0.4,0.2,0.6l-0.2,1
	c0,0.3-0.1,0.4-0.3,0.5c-0.2,0.2-0.4,0.3-0.7,0.2h-0.2l2.2,10.1l1.3-9.6h-0.2c-0.3-0.1-0.4-0.2-0.6-0.3c-0.1-0.2-0.2-0.4-0.1-0.6
	l0.1-1c0.1-0.3,0.2-0.4,0.3-0.5c0.2-0.2,0.4-0.2,0.6-0.2L324.5,260.9z M336.6,262.1c1.3,0.1,2.2,0.4,2.8,1.1
	c0.7,0.7,0.9,1.6,0.8,2.7l-0.1,0.9c0,0.3-0.1,0.4-0.3,0.6c-0.2,0.1-0.3,0.2-0.6,0.2l-1-0.1c-0.3,0-0.4-0.1-0.5-0.3
	c-0.2-0.2-0.3-0.4-0.3-0.6l0.1-0.9c0.1-0.6-0.3-1-1.2-1l-1.7-0.2c-0.4,0-0.8,0.1-1,0.3c-0.2,0.2-0.3,0.5-0.3,0.9l-0.3,2.9
	c-0.1,0.8,0.3,1.3,1.2,1.3l1.7,0.2c0.6,0,1.2,0.2,1.7,0.4l-0.2,0.2c0.6,0,1.1,0.1,0.9,0.9c-1.1,0.1-2.6-0.2-2.7,0.8
	c1.7,0.8,2.8,0,3.2-0.9c0.5,0.7,0.7,1.6,0.6,2.8l-0.3,4.9c-0.1,1.3-0.5,2.2-1.3,2.8c-0.7,0.6-1.7,0.8-2.9,0.8l-1.6-0.1
	c-1.3-0.1-2.3-0.5-2.9-1.3c-0.6-0.7-0.8-1.7-0.8-2.9l0.1-1.2c0-0.3,0.1-0.4,0.3-0.5c0.2-0.2,0.4-0.3,0.6-0.2h1
	c0.3,0.1,0.4,0.2,0.6,0.3c0.1,0.1,0.2,0.3,0.2,0.6l-0.1,1.1c-0.1,0.4,0,0.8,0.3,1c0.2,0.3,0.5,0.3,0.9,0.4l1.6,0.1
	c0.4,0.1,0.8,0,1-0.3c0.3-0.2,0.4-0.5,0.4-0.9l0.3-4.9c0.1-0.8-0.3-1.3-1.2-1.3l-1.6-0.2c-1.3-0.1-2.2-0.5-2.9-1.2
	c-0.6-0.8-0.8-1.8-0.8-3l0.3-2.9c0.1-1.3,0.5-2.2,1.2-2.9c0.8-0.6,1.8-0.8,3-0.8L336.6,262.1z M357.7,263.2c0.2,0,0.4,0.1,0.5,0.3
	c0.2,0.2,0.3,0.3,0.3,0.6l-0.1,1c0,0.3-0.1,0.4-0.3,0.6c-0.2,0.1-0.3,0.2-0.6,0.2h-0.3l-0.2,5.2c-0.3,0.1-0.4,0.3-0.4,0.7
	c0.1-0.1,0.3,0,0.3,0l-0.4,9.7h0.3c0.3,0,0.4,0.1,0.6,0.3c0.2,0.2,0.2,0.3,0.2,0.6v1c0,0.3-0.1,0.4-0.3,0.6
	c-0.2,0.1-0.3,0.2-0.6,0.2l-3.1-0.1c-0.2-0.1-0.4-0.2-0.5-0.3c-0.2-0.2-0.3-0.4-0.3-0.6l0.1-1c0-0.3,0.1-0.4,0.3-0.6
	c0.2-0.2,0.3-0.2,0.6-0.2h0.2l0.3-7.5l-4.2-0.2l-0.3,7.5h0.3c0.3,0,0.4,0.1,0.6,0.3c0.1,0.2,0.2,0.3,0.2,0.6v0.9
	c-0.1,0.3-0.1,0.4-0.3,0.6c-0.2,0.2-0.3,0.3-0.6,0.3l-3.1-0.2c-0.2,0-0.4-0.1-0.5-0.3c-0.2-0.2-0.3-0.3-0.3-0.6l0.1-1
	c0-0.3,0.1-0.4,0.3-0.5c0.2-0.2,0.3-0.3,0.6-0.3h0.2l0.7-15.5h-0.2c-0.3,0-0.4-0.1-0.6-0.3c-0.2-0.2-0.3-0.3-0.3-0.6l0.1-1
	c0-0.3,0.1-0.4,0.3-0.6c0.2-0.1,0.3-0.2,0.6-0.2l3,0.2c0.3,0,0.5,0.1,0.6,0.3c0.2,0.1,0.3,0.3,0.3,0.6l-0.1,0.9
	c0,0.3-0.1,0.4-0.3,0.6c-0.2,0.2-0.3,0.3-0.6,0.3l-0.3-0.1l-0.3,5.5l4.3,0.2l0.3-5.5h-0.1c0.1-0.2,0.2-0.3,0.2-0.4c-0.3,0-0.7,0-1,0
	c-0.1-0.1-0.1-0.3-0.1-0.5v-0.9c0-0.3,0.1-0.4,0.3-0.6c0.2-0.2,0.3-0.2,0.6-0.2L357.7,263.2z M370.6,263.2c1.3,0,2.2,0.3,2.9,0.9
	c0.7,0.7,1,1.7,1,2.9l0.2,12.9c0,1.3-0.3,2.3-1,2.9s-1.6,1-2.9,1h-1.6c-1.3,0-2.3-0.3-2.9-0.9c-0.7-0.7-1-1.7-1-2.9l-0.2-12.9
	c0-1.3,0.3-2.3,1-2.9c0.7-0.7,1.6-1,2.9-1H370.6z M368.9,265.8c-0.4,0-0.7,0.1-0.9,0.3c-0.3,0.2-0.3,0.5-0.3,0.9v1
	c-0.9,0-1.8,0-1.9,0.8c0.6-0.1,1.4,0,1.9-0.2l0.2,11.3c0,0.4,0.1,0.8,0.3,0.9c0.2,0.3,0.5,0.3,0.9,0.3h1.7c0.4,0,0.7-0.1,0.9-0.3
	s0.3-0.5,0.3-1v-1.6c0.8-0.8,1.1-2.2,0.1-2.2c0,0.3,0,0.5-0.1,0.7l-0.2-9.8c0-0.4-0.1-0.8-0.3-0.9c-0.2-0.3-0.5-0.3-0.9-0.3H368.9z
	 M386.9,262.5c1.1,0,2,0.2,2.7,0.6c0.7,0.4,1.1,1.1,1.3,1.9c0.1,0.3,0.1,0.4-0.1,0.6c-0.2,0.3-0.4,0.3-0.7,0.3l-1.3,0.1
	c-0.2,0-0.4-0.2-0.6-0.4c-0.2-0.3-0.6-0.5-1.2-0.5l-1.7,0.1c-0.4,0.1-0.7,0.2-0.9,0.4c-0.2,0.2-0.3,0.5-0.3,1l0.6,12.9
	c0.1,0.4,0.2,0.8,0.4,0.9c0.3,0.3,0.6,0.3,1,0.3h1.6c0.4-0.1,0.8-0.2,0.9-0.4c0.3-0.3,0.3-0.6,0.3-1l-0.4-7.5l-0.2,0.1
	c-0.3,0-0.4-0.1-0.6-0.3c-0.2-0.2-0.3-0.3-0.3-0.6l-0.1-0.9c0-0.3,0.1-0.4,0.2-0.6c0.2-0.2,0.3-0.3,0.6-0.3l2-0.2
	c0.3,0,0.4,0.1,0.6,0.3c0.2,0.1,0.3,0.3,0.3,0.6l0.5,9.2c0,1.3-0.3,2.2-0.8,2.9c-0.7,0.7-1.6,1.1-2.9,1.1l-1.7,0.1
	c-1.3,0.1-2.2-0.2-2.9-0.8c-0.7-0.6-1.1-1.6-1.1-2.9l-0.7-12.9c-0.1-1.3,0.3-2.3,0.8-2.9c0.7-0.7,1.6-1.1,2.9-1.2L386.9,262.5z
	 M403.8,261c1.3-0.1,2.3,0.1,3,0.7c0.7,0.6,1.1,1.5,1.3,2.8l0.7,6.1c0.2,1.8-0.3,3-1.5,3.8l2,4.4l0.5-0.1c0.2,0,0.3,0,0.4,0.2
	c0.1,0.2,0.2,0.3,0.2,0.6l0.2,0.9c0,0.3-0.1,0.4-0.2,0.6c-0.2,0.3-0.3,0.3-0.6,0.3l-3.1,0.3c-0.3,0-0.4,0-0.7-0.2
	c-0.2-0.1-0.3-0.3-0.3-0.5l-0.1-1c-0.1-0.3,0-0.4,0.2-0.6c0.1-0.2,0.3-0.3,0.5-0.3h0.3l-1.8-4l-2.4,0.3l0.5,4.2h0.3
	c0.3-0.1,0.4,0,0.6,0.2c0.2,0.1,0.3,0.3,0.3,0.5l0.2,1c0,0.3-0.1,0.4-0.2,0.6c-0.2,0.2-0.3,0.3-0.6,0.3l-3,0.3
	c-0.3,0.1-0.4,0-0.6-0.2c-0.2-0.1-0.3-0.3-0.3-0.5l-0.1-1c0-0.3,0-0.4,0.2-0.6c0.2-0.2,0.3-0.3,0.6-0.3l0.2-0.1l-1.5-13.8
	c0.1,0,0.2-0.1,0.3-0.1c-0.1,0-0.2,0-0.3-0.1l-0.2-1.5h-0.3c-0.1,0.1-0.2,0.1-0.3,0c-0.3-0.7-0.3-1.3-0.5-0.8c0,0.2,0,0.3-0.1,0.3
	c0-0.1,0-0.2-0.1-0.3l-0.1-1c0-0.2,0.1-0.4,0.2-0.6c0.2-0.2,0.3-0.3,0.6-0.3L403.8,261z M401.2,264l0.9,8.7l2.9-0.3
	c0.4-0.1,0.7-0.3,0.9-0.4c0.2-0.3,0.3-0.6,0.2-1l-0.7-6.1c0-0.4-0.2-0.8-0.4-0.9c-0.3-0.3-0.6-0.3-1-0.3L401.2,264z M419.8,258.8
	c1.3-0.3,2.3-0.1,3,0.4c0.8,0.6,1.3,1.4,1.5,2.7l2.3,12.8c0.3,1.3,0.1,2.3-0.4,3c-0.6,0.8-1.4,1.3-2.7,1.5l-1.6,0.3
	c-1.3,0.2-2.3,0-3-0.5c-0.8-0.5-1.3-1.4-1.5-2.7l-2.3-12.8c-0.3-1.3-0.1-2.3,0.4-3c0.6-0.8,1.4-1.3,2.7-1.5L419.8,258.8z
	 M418.6,261.6c-0.3,0.1-0.7,0.3-0.8,0.5c-0.2,0.3-0.3,0.6-0.2,1l2.3,12.8c0.1,0.4,0.3,0.7,0.5,0.8c0.3,0.2,0.6,0.3,1,0.2l1.7-0.3
	c0.3-0.1,0.7-0.3,0.8-0.5c0.2-0.3,0.3-0.6,0.2-1l-2.3-12.8c-0.1-0.4-0.3-0.8-0.5-0.9c-0.3-0.2-0.6-0.3-1-0.2L418.6,261.6z
	 M437.1,255.3c1.2-0.3,2.2-0.1,3,0.4c0.8,0.5,1.3,1.3,1.5,2.6l2.9,13.9h0.3c0.3-0.1,0.4,0,0.6,0.1c0.2,0.1,0.3,0.3,0.3,0.5l0.3,1
	c0,0.2,0,0.4-0.1,0.6c-0.2,0.2-0.3,0.3-0.6,0.3l-2.9,0.7c-0.3,0-0.4,0-0.7-0.2c-0.2-0.1-0.3-0.3-0.3-0.5l-0.2-0.9
	c-0.1-0.3,0-0.5,0.1-0.7c0.2-0.2,0.3-0.3,0.5-0.3h0.3l-0.8-4.1l-2.9,0.6c0.1-0.1,0.2-0.3,0.2-0.4c-1,0.2-2.5-0.2-2.7,0.9
	c0.4-0.1,0.9-0.1,1.3-0.1l0.8,3.9l0.2-0.1c0.3,0,0.5,0,0.7,0.2c0.2,0.1,0.3,0.3,0.3,0.5l0.2,0.9c0.1,0.3,0,0.4-0.1,0.7
	c-0.1,0.2-0.3,0.3-0.5,0.3l-3,0.6c-0.3,0.1-0.4,0-0.6-0.1c-0.2-0.2-0.3-0.3-0.3-0.5l-0.3-1c0-0.3,0-0.4,0.2-0.6
	c0.1-0.2,0.3-0.3,0.5-0.3l0.2-0.1l-2.9-13.9c-0.3-1.3-0.2-2.3,0.3-3c0.5-0.8,1.4-1.3,2.6-1.6L437.1,255.3z M436,258.2
	c-0.4,0.1-0.7,0.3-0.9,0.6c-0.2,0.3-0.2,0.6-0.1,1l1.5,7.3l4.1-0.9l-1.5-7.3c-0.1-0.3-0.3-0.7-0.5-0.8c-0.3-0.2-0.6-0.3-1-0.2
	L436,258.2z M452.8,251.3c1.3-0.3,2.3-0.3,3,0.1c0.8,0.4,1.4,1.2,1.7,2.3l0.3,0.8c0.1,0.3,0.1,0.4-0.1,0.7c-0.1,0.2-0.3,0.3-0.5,0.3
	l-0.9,0.3c-0.2,0.1-0.4,0.1-0.6,0c-0.2-0.2-0.3-0.3-0.4-0.5l-0.2-0.8c-0.3-0.7-0.8-0.8-1.5-0.6l-1.6,0.4c-0.4,0.1-0.7,0.3-0.8,0.6
	c-0.2,0.3-0.2,0.6-0.1,1l0.8,2.8c0.3,0.8,0.8,1.2,1.6,0.9l1.6-0.4c1.3-0.3,2.3-0.3,3.1,0.2c0.8,0.5,1.3,1.3,1.7,2.5l1.3,4.7
	c0.3,1.2,0.3,2.3-0.2,3c-0.4,0.8-1.3,1.4-2.5,1.8l-1.6,0.4c-1.2,0.3-2.3,0.3-3-0.2c-0.8-0.4-1.4-1.3-1.8-2.5l-0.3-1.1
	c-0.1-0.3,0-0.4,0.1-0.6c0.1-0.3,0.3-0.3,0.5-0.4l0.9-0.3c0.3-0.1,0.4,0,0.7,0.1c0.2,0.1,0.3,0.3,0.3,0.5l0.3,1.1
	c0.1,0.4,0.3,0.7,0.5,0.8c0.3,0.2,0.7,0.2,1.1,0.1l1.5-0.5c0.4-0.1,0.8-0.3,0.8-0.5c0.2-0.3,0.3-0.7,0.1-1.1l-1.3-4.7
	c-0.3-0.8-0.8-1.1-1.6-0.8l-1.6,0.4c-1.3,0.3-2.3,0.3-3.1-0.2c-0.8-0.5-1.3-1.3-1.7-2.5l-0.8-2.9c-0.3-1.2-0.3-2.2,0.3-3
	c0.4-0.8,1.3-1.4,2.5-1.8L452.8,251.3z M471.6,245.1c0.3-0.1,0.5-0.1,0.7,0c0.2,0.1,0.3,0.3,0.4,0.5l0.7,1.8c0.1,0.3,0.1,0.4,0,0.7
	c-0.1,0.2-0.3,0.3-0.5,0.4l-0.9,0.3c-0.2,0-0.4,0-0.6-0.1c-0.3-0.1-0.3-0.3-0.4-0.4l-0.1-0.3l-1.8,0.7l5.3,14.6l0.3-0.1
	c0.2-0.1,0.4,0,0.6,0.1c0.2,0.1,0.3,0.2,0.4,0.4l0.3,0.9c0.1,0.3,0.1,0.4,0,0.7c-0.1,0.2-0.3,0.3-0.5,0.4l-2.9,1
	c-0.3,0.1-0.4,0.1-0.6,0c-0.3-0.1-0.3-0.3-0.4-0.5l-0.3-0.9c-0.1-0.3-0.1-0.4,0-0.6c0.1-0.3,0.3-0.3,0.4-0.4l0.3-0.1l-5.3-14.6
	l-1.8,0.6l0.1,0.3c0.1,0.3,0.1,0.4,0,0.6c-0.1,0.3-0.3,0.3-0.5,0.4l-0.9,0.3c-0.2,0.1-0.4,0.1-0.6,0c-0.2-0.1-0.3-0.3-0.4-0.4
	l-0.7-1.9c-0.1-0.3-0.1-0.4,0-0.7c0.1-0.2,0.3-0.3,0.5-0.3L471.6,245.1z M487.8,257.6c0.2-0.1,0.3-0.1,0.5,0
	c-0.5,0.6-0.2,1.8,0.8,1.3l0.3,0.6c0.1,0.2,0.1,0.4,0,0.6c-0.1,0.2-0.3,0.3-0.4,0.4l-1.5,0.6c-0.2,0.1-0.3,0.1-0.6,0
	c-0.2-0.1-0.3-0.3-0.4-0.4l-0.6-1.4c-0.1-0.3-0.1-0.5,0-0.7c0.1-0.2,0.3-0.3,0.4-0.4L487.8,257.6z"/>
<path class="st1" d="M364.9,58.1c13.4,0,26.5,0.8,39.2,2.4c-0.1,0.1-0.2,0.2-0.2,0.3c0,0.9,1.6,1.2,1.8,0c-0.3,0.1-0.6-0.1-0.8-0.3
	c9.9,1.3,19.5,2.9,28.6,5c-2.2,0.2-5,0.6-6,2.6c1.7,0.5,3.8-2.7,4.5,0c-0.7,0.2-1.8,0-1.8,0.9c2.9,0.2,3.6-1.9,5.3-3
	c10.8,2.5,21.2,5.6,30.7,9.1c0.3,0.3,0.6,0.5,0.9,0.4c2.2,0.8,4.4,1.7,6.5,2.5H473c0,0.6,0,1.3,0,1.8c0.6,0,1.2,0,1.8,0v-1.3
	c1.8,0.8,3.7,1.5,5.5,2.4c-1.7,0.7-3.1,1.6-4.5,2.6c4.8-1.3,7.3,1.4,10.7,0.3c1.5,0.8,2.9,1.5,4.4,2.3c1.8,1,3.6,2,5.4,3
	c-1-0.4-2.2-0.7-2.3,0.8c0.3,0.2,0.7,0.4,0.9,0.7c-0.8,0.5-1.3,1.1-1.9,1.7c-1.3-0.8-2.8-1.5-4.2-2.3c-9.3-5-19.8-9.5-31.1-13.3
	c0.5-0.2,0.8-0.3,0.8-0.4c-0.6-1.2-2.8,0-4.5-1.8c0,0.3,0,0.7,0,1c-11.2-3.5-23.1-6.5-35.7-8.6c-0.2-0.3-0.3-0.6-0.7-0.7
	c-0.1,0.2-0.2,0.3-0.3,0.5c-1.4-0.3-2.9-0.5-4.4-0.8c0.5-0.4,1.1-0.8,2,0.3c0.2-2.4-2.6-6.4-4.5-3.6c2.4,0.5-0.1,1.6-0.2,3
	c-14.4-2.1-29.5-3.2-45.2-3.2c-2.2,0-4.4,0-6.6,0.1c-1.8-0.9-2.7-0.5-2.8,0c-6.7,0.3-13.3,0.6-19.7,1.2c0.1-0.8,1.5-2.4,0.8-3.8
	c-0.4,0.1-1.1-0.2-1.8-0.5c1-0.1,2-0.2,3-0.3c-0.3,0.8,2.4,0.8,2.3-0.2C348.2,58.4,356.5,58.1,364.9,58.1z M481.6,81.5
	c1,0.5,2,1,3,1.4c-1.6-0.1-3.1-0.4-4.4-1.3C480.7,81.7,481.2,81.6,481.6,81.5z M333.7,64c-4.2,0.3-8.3,0.8-12.4,1.4
	c-0.3-0.4-0.8-0.9-0.9-0.9c-3.9-1.1-8-0.5-10-1.8c2.7-0.5,5.4-0.9,8.1-1.3v0.3c0.6,0,1.2,0,1.8,0v-0.6c3.9-0.5,7.8-1,11.8-1.3
	c-0.1,0.3-0.1,0.6-0.1,1c1.7,0.3,2.3-1.3,2.8,0C335.4,62.1,334.4,63.3,333.7,64z M318.2,65.8c-29.5,4.4-56,12.8-77,24.2
	c-1,0.5-2.1,1.1-3.1,1.7c-1.3-0.9-2.9-1.7-4.4-2.4c1.8-1,3.6-2.1,5.5-3.1c0.6-0.3,1.2-0.6,1.8-0.9c0.8,0.9,1.5,1.8,0.3,2.9
	c1.8-0.1,3.1-0.6,3.7-1.8c-1.7,0.1-2.3-0.8-2.9-1.7c15.8-8.1,34.2-14.6,54.6-19.2c-0.3,0.9-1.3,1.1-1.8,1.8c1.7,1.7,2.7-1.2,4.5-1.8
	c-0.3-0.1-0.7-0.1-0.8-0.4c1.5-0.3,3.1-0.6,4.6-0.9c-0.1,0.1-0.1,0.3-0.1,0.4C307.3,65.1,313,65,318.2,65.8z M306,63.5
	c1.1-0.2,2.3-0.4,3.4-0.6C309.2,64,307.5,63.6,306,63.5z M388.5,249.9C383.2,247.3,386.1,252,388.5,249.9L388.5,249.9z M254,227.1
	c0.7-0.5-5.3-2.9-1.8-0.9C252.4,226.3,253,227.9,254,227.1z M396.6,61.7C391,59.6,393.9,64.4,396.6,61.7L396.6,61.7z M395.7,248.9
	c0.7,0,1.3,0,1.8,0c0-0.6,0-1.3,0-1.8c-0.6,0-1.2,0-1.8,0C395.7,247.7,395.7,248.4,395.7,248.9z M443.9,239.9
	c-0.9,0-1.1-0.8-1.8-0.9c0,0.9-0.8,1.1-0.9,1.8c0.9,0,1.1,0.8,1.8,0.9C443,240.7,443.7,240.5,443.9,239.9z M259.4,231.7
	c0.1-1.6-0.7-2.4-1.8-2.7C256.3,230.3,256.9,231.8,259.4,231.7z M277.6,72.6c1-0.2,2.5,0.2,2.7-0.9
	C279.2,71.8,277.7,71.5,277.6,72.6z M398.5,62.6c2.6-1.3,4.6,2.5,5.5,0C402,62.1,399,59.5,398.5,62.6z M384.8,61.7
	c0-0.1,3.1,0.6,2.8,0.9C389.8,60.4,384.5,60.3,384.8,61.7z M360.3,61.7c0.6,0,1.2,0,1.8,0c0-0.6,0-1.2,0-1.8c-0.7,0-1.3,0-1.8,0
	C360.3,60.5,360.3,61.1,360.3,61.7z M353.9,60.8c1.1-0.1,2.6,0.2,2.8-0.8C355.6,60,354.1,59.8,353.9,60.8z M344.8,60.8
	c0,0,3.1,0.6,2.7,0.9C349.7,59.5,344.6,59.3,344.8,60.8z M530.9,191.2c-9.1,12.5-22.9,23.7-40.1,33c-20.9,11.2-46.9,19.6-76,24.2
	c0-0.1,0-0.2,0-0.3c-1.2-0.1-1.3-1.2-2.8-0.9c-0.5,0.8-0.3,1.3,0.3,1.7c-14.6,2.1-29.8,3.4-45.6,3.4c0.8-0.7,1.6-1.8-0.1-0.6l0,0
	c-0.2,0.3-0.3,0.4-0.3,0.6h-1.4c-2.3,0-4.4-0.1-6.7-0.1c1.8-0.6,3.4-1.3,4.8-2.3c-2.1,0.8-5.8-0.2-6.3,2.3
	c-13.6-0.3-26.8-1.5-39.4-3.4c1.2-0.2,2.5-0.9,3.1-1.6c-4.5,0.6-3.9,0.4-7.3-0.9c0.2,0.8-0.2,1.4-0.3,1.8
	c-28.1-4.7-53.3-12.9-73.6-23.8c-2.3-1.3-4.4-2.4-6.5-3.7c0.2,0,0.3,0,0.4-0.1h0.1c1.1,0,2.2-0.3,3.1-0.6l0.6-0.2
	c0.3-0.1,0.6-0.2,0.9-0.3c0.4-0.1,0.8-0.2,1.2-0.3c0.8,0.4,1.5,0.8,2.3,1.3c25.3,13.6,58.5,23.1,95.5,26.4c1,0.4,1.8,0.9,2.4,0.2
	c8.4,0.7,17,1,25.9,1c34.6,0,66.7-5.4,93.8-14.6c1.4,1,5.1,0.3,5.2-0.7c-0.6-0.4-1.1-0.6-1.4-0.7c9.4-3.4,18.2-7.3,26.2-11.6
	c4-2.2,7.9-4.4,11.6-6.8c1.5,0,2.3-0.8,2.7-1.8l0,0c10.1-7,18.3-14.6,24.4-22.9v0.1c0.3,0.2,0.6,0.3,0.8,0.4
	c0.2,0.2,0.4,0.3,0.6,0.3C529.4,190.2,530.2,190.7,530.9,191.2z M315.6,248.4c-0.8-0.1-1.4-0.2-2.2-0.3c0.4-0.4,0.9-0.8,1.5-1
	C315,247.8,315.1,248.2,315.6,248.4z"/>
<path class="st1" d="M543.8,143.9c-1.2-1.1-2.3-2.1-3.3-2.9c-1.3-1-2.7-2-3.9-3c-1.3-1-2.6-2-3.9-3c-1.9-1.3-3.6-2.7-5.1-4v-0.1
	c0.3-0.3,1.3,0.1,0.9-0.9c-0.8-0.1-1.3,0-1.8,0.1l-0.3-0.3c-0.6-0.5-1.1-1-1.6-1.5l0.1-0.1l0,0l-0.3-0.1c-0.8-0.8-1.7-1.7-2.4-2.5
	c-0.3-0.3-0.4-0.4-0.6-0.7c0.2-0.2,0.3-0.3,0.6-0.4c-0.4,0-0.7,0-1,0c-0.9-1.1-1.8-2.3-2.8-3.5c-1.5-2.4-2.6-5.3-3.1-8.5
	c-0.1-1,0-2,0.2-3.1c0.2-1.7,0.6-3.3,1.3-4.9c1.6-0.1,1.5-1.4,0.9-1.8c0.4-0.8,1-1.7,1.7-2.5c0.9-1.4,2.3-2.5,4.1-3.3
	c1-0.4,2-0.7,2.9-0.8c1-0.2,1.9-0.1,2.9,0.2c0.8,0.1,1.3,0.2,1.6,0.3c1,0.1,1.8,0.3,2.6,0.7c0.8,0.3,1.5,0.7,2.4,1
	c1.4,0.8,1.4,1.5,0,2.3c-0.7,0.3-1.3,0.6-1.9,0.9c-0.7,0.3-1.3,0.6-2.1,0.8c-0.5,0.2-0.9,0.5-1.4,0.8c-0.4,0.6-0.8,1.2-1.3,1.8
	c-0.4,0.5-0.7,1.2-0.8,1.9c-0.1,0.3-0.2,0.6-0.3,0.8c-0.1,0.3-0.2,0.5-0.3,0.8c-0.4,1-0.4,2.3,0,3.6c0.2,0.4,0.4,0.8,0.6,1.2
	s0.4,0.8,0.8,1c0.1,0.1,0.2,0.2,0.2,0.3c0.5,0.8,1.1,1.4,1.8,2c0.8,0.6,1.4,1.2,2,1.8c0.3,0.2,0.5,0.4,0.8,0.6
	c0.3,0.2,0.6,0.3,0.8,0.5c1.4,1.1,2.9,2.1,4.4,3c1.4,0.9,2.9,1.9,4.4,3.1c0.8,0.6,1.6,1.3,2.4,1.9c0.7,0.7,1.4,1.3,2.3,2
	c0.5,0.4,1,0.8,1.4,1.3c0.4,0.6,0.9,1,1.4,1.4c0.3,0.3,0.6,0.5,0.9,0.7c0.3,0.2,0.6,0.4,0.9,0.7c0.8-0.5,1.4-1.1,2-1.8
	c0.3-0.3,0.6-0.6,1-0.9c0.7-0.6,1.3-1.2,1.8-1.8c0.5-0.7,1-1.3,1.5-2.1c0.5-0.5,0.9-0.9,1.3-1.3c0.5-0.4,0.9-0.9,1.3-1.4
	c0.8-0.8,1.5-1.7,2.3-2.4c0.8-0.8,1.4-1.7,1.9-2.7c0.2-0.2,0.3-0.3,0.4-0.5c0.2-0.2,0.3-0.3,0.5-0.6c0.4-0.5,1-0.7,1.7-0.4
	c0.4,0.1,0.8,0.2,1.2,0.2c0.4,0,0.8,0.1,1.3,0.1c0.8,0.2,0.9,0.7,0.5,1.3l-0.4,0.5c-0.3,0.3-0.3,0.7-0.4,1.1c0,0.4-0.3,0.8-0.7,1
	c-0.4,0.1-0.8,0.3-1,0.7c-0.3,0.3-0.6,0.6-0.9,0.9c-0.5,0.3-0.8,0.8-1.1,1.3c-0.3,0.4-0.5,0.9-0.9,1.3c-0.2,0.2-0.3,0.4-0.5,0.6
	c-0.2,0.3-0.3,0.4-0.5,0.7c-0.3,0.3-0.7,0.8-1.3,1.5c-0.3,0.7-0.8,1.4-1.5,2.1c-0.3,0.3-0.6,0.5-0.8,0.8c-0.3,0.3-0.4,0.6-0.4,1.1
	c0,0.1-0.1,0.2-0.3,0.3c-0.1,0.1-0.3,0.2-0.3,0.3c-0.4,0.3-0.8,0.6-0.8,0.7c-0.4,0.5-0.8,1-1.2,1.5c-0.3,0.4-0.8,0.9-1.2,1.4
	c-0.6,0.4-0.5,0.9,0.1,1.5c0.3,0.3,0.4,0.5,0.7,0.8c0.2,0.3,0.4,0.5,0.7,0.8c0.2,0.2,0.3,0.3,0.3,0.5c0.1,0.2,0.3,0.3,0.4,0.5
	c0.8,0.8,1.4,1.6,1.8,2.5c0.4,0.9,0.9,1.9,1.5,2.9c0.3,1.1,0.5,2,0.5,2.9c-0.1,1,0.2,1.8,0.6,2.8c0.8,1.3,1.3,2.6,1.6,4.2
	c0.3,1.5,0.3,3.1,0.3,4.7c-0.1,1.5-0.2,3-0.4,4.5c-1.8,0.1-1.7-1.7-4.1-0.9c-0.2,0.7,0,1.8-0.9,1.8c-5-0.1-1.4,1.7,0.9,0.9
	c0.7-0.2,0.9-2.5,2.8-1.8c0,0.6,0.8,0.9,1.3,0.7c-0.2,1.4-0.4,2.9-0.7,4c-0.6,2.5-1.6,4.7-2.9,6.5c-0.3,0.1-0.4,0.3-0.5,0.6
	c-0.1,0.2-0.3,0.3-0.4,0.5c-1.8,1.9-3.7,3.9-5.8,6.1c-1.3,1.5-3,2.5-5.3,3.1c-2.3,0.7-4.3,1-6,1.1c-2.1,0.1-4-0.3-5.6-1
	c-1.7-0.8-3.3-1.8-4.9-3c-0.2-0.3-0.5-0.5-0.9-0.6c-0.3-0.2-0.6-0.3-0.8-0.5c-0.3-0.3-0.6-0.5-0.8-0.8c-0.3-0.4-0.8-0.8-1.3-1
	c-0.3-0.3-0.7-0.7-0.9-1.4c-0.9-3.4-0.9-7.1,0-11c1-3.9,2.6-7.5,4.9-10.7c0.3-0.4,0.7-0.8,0.9-1.3c0.3-0.4,0.5-0.9,0.8-1.4
	c0.4-0.5,0.8-1,1.2-1.5c0.3-0.5,0.7-1,1.1-1.5c1-1.2,1.9-2.3,2.9-3.4c0.9-1.1,1.8-2.3,2.7-3.5c0.2-0.2,0.4-0.4,0.6-0.6
	C543.4,144.3,543.6,144.1,543.8,143.9z M237.6,208.9c0.9,0,1.8,0,2.8,0c1.1-4.3-5-4.2-0.9-1.8C238.3,207.2,237.2,207.4,237.6,208.9z
	 M237.6,188c-0.1,0.3-1.7,0.9-0.9,1.8C237.2,190.5,239.6,184.6,237.6,188z M197.6,183.5c2-1.3,3.4,2.4,3.6,0c-1.1-0.2-0.6-1,0-1.8
	C199.6,181.9,196.7,180.8,197.6,183.5z M317.6,181.7c1.1-1,0.3-0.7-0.9,0C315.4,182.4,316.5,182.6,317.6,181.7z M314.9,164.4
	c-0.4-1.6,1.3-2.4,0-2.8C309.9,163.7,311.9,162.9,314.9,164.4z M314,155.4c1-1.9,0.9-1.9-0.9-0.9C312,151.7,312,155.8,314,155.4z
	 M249.4,146.2c-1.2,0-0.8-1.6-1.8-1.8c0,1.2-1.6,0.8-1.8,1.8c1.3,0.3,1.5,1.1,2.7,0C248.5,146.7,249.3,147.3,249.4,146.2z
	 M347.5,138.1c-1.1,0.3-0.3,1.5,0.9,0.9c0.7-0.3,1.4-1.6,0-0.9C348.2,138.2,347.8,138,347.5,138.1z M434.8,129c0.1,0-0.1,0.8,0,0.8
	c-0.4,0-1.7-1-1.8-0.8C430.8,130.4,438.7,131.7,434.8,129z M529.3,127.2c2.6,3.9,6.6-3.7,2.8-0.9C535,128.5,529.3,124.4,529.3,127.2
	z M483.9,117.2c0.3-1,1.1-2.2,0-0.9c-3.3-0.1,1.9-3-0.9-2.8c0,1.3-1.6,0.8-1.8,1.8C482.5,115.6,482.7,116.8,483.9,117.2z M214,95.3
	c-1-0.3-2.2-1.1-0.9,0c-0.3,3.2-3.4-2.3-3.7,0.9C210.6,97.4,213.8,97.6,214,95.3z M218.5,205.3c1-0.1,1.4,1.3,1.8,0
	C220.3,204.4,218.7,204.2,218.5,205.3z M259.4,195.3c0.6,0,1.2,0,1.8,0c1-1.3,0.9-2.2-0.9-2.7C260.3,193.8,259.9,194.6,259.4,195.3z
	 M551.2,185.3c1.3-2.9-5.5-2.3-5.5-0.9C548.5,183.7,548.4,186,551.2,185.3z M254,182.6c1.1-0.1,2.6,0.2,2.8-0.8
	C255.6,181.8,254.1,181.5,254,182.6z M553.8,178.9c-1,0.1-1.3-1.3-1.8,0C552.1,179.9,553.7,180.1,553.8,178.9z M557.5,175.3
	c1.1-0.2,2.6,0.2,2.7-0.9C559.2,174.6,557.7,174.2,557.5,175.3z M200.3,174.4c-1.1,0.2-2.6-0.2-2.7,0.9
	C198.6,175.2,200.2,175.5,200.3,174.4z M473,173.5c0,1.2-1.6,0.8-1.8,1.8C472.3,177.5,475.4,174.3,473,173.5z M306.7,172.6
	c0,0.9,1.6,1.2,1.8,0C307.5,172.6,307.1,171.3,306.7,172.6z M477.5,170.8C473.9,167.6,475.4,173.7,477.5,170.8L477.5,170.8z
	 M340.3,169.9c0.3,2.5,1.6,1.6,3.6,3.6c0.1-1.7,3-0.6,2.8-2.7C343.6,171.9,341.8,167.2,340.3,169.9z M345.8,169
	c-1.1-0.2-2.1-1.6-2.8,0C344.1,169.1,345.1,170.5,345.8,169z M296.7,166.2c0.4,2.6-3.4-2.3-3.6,0.9
	C293.2,170.3,299.4,168.1,296.7,166.2z M271.2,163.5c0-0.9-1.6-1.2-1.8,0C270.4,163.4,270.8,164.8,271.2,163.5z M474.8,161.7
	c0.6,0.3,3.5,2.3,3.7,0C477.9,161.4,474.9,159.4,474.8,161.7z M340.3,160.8c-0.6,0-1.3,0-1.8,0c0,0.6,0,1.2,0,1.8c0.6,0,1.3,0,1.8,0
	C340.3,162,340.3,161.4,340.3,160.8z M439.4,160.8C437.2,163.8,442.4,158.5,439.4,160.8L439.4,160.8z M558.5,154.4
	C556.2,157.5,561.5,152.3,558.5,154.4L558.5,154.4z M541.2,153.5c0-0.9-1.6-1.2-1.8,0C540.3,153.4,540.7,154.9,541.2,153.5z
	 M553.8,151.7c-1.3-0.3-1.5-1.1-2.7,0c0.2,0.8,0,1.8,0.9,1.8C552.1,152.3,553.7,152.7,553.8,151.7z M554.8,147.1
	c0.3,1.1,1,0.6,1.8,0C556.6,146.2,555,146,554.8,147.1z M311.2,143.5c2.3,0.1,4.4,0.2,4.5-1.8C314,142.1,310.3,140.4,311.2,143.5z
	 M553,138.1c1-0.1,1.4,1.3,1.8,0C554.8,137.1,553.2,136.9,553,138.1z M222.1,139c1.8,0,1.2,2.4,3.6,1.8c-0.1-1.7-0.6-3-1.8-3.6
	C224,138.3,222.4,138,222.1,139z M201.2,127.2c-0.6,0-1.2,0-1.8,0c0,0.6,0,1.2,0,1.8c0.7,0,1.3,0,1.8,0
	C201.2,128.3,201.2,127.7,201.2,127.2z M389.4,127.2c0,0.9,1.6,1.1,1.8,0C390.2,127.2,389.8,125.8,389.4,127.2z M526.6,125.3
	C524.5,128.4,529.7,123.1,526.6,125.3L526.6,125.3z M474.8,123.5c0.3,1.1,1,0.5,1.8,0C476.6,122.6,475,122.4,474.8,123.5z
	 M565.7,121.7C571.6,123.6,570.2,118.4,565.7,121.7L565.7,121.7z M437.5,118.9C435.3,122,440.6,116.7,437.5,118.9L437.5,118.9z
	 M478.5,118.1c0.2,1.1,1,0.5,1.8,0C480.2,117.2,478.6,116.9,478.5,118.1z M478.5,107.2C474.8,104,476.3,110,478.5,107.2L478.5,107.2
	z M531.2,100.8c1.1-0.2,2.6,0.2,2.7-0.9C532.9,100,531.3,99.7,531.2,100.8z M225.8,98c0.3,1.1,1,0.6,1.8,0
	C227.6,97.1,226,96.9,225.8,98z M196.7,95.3C192,97.5,199.8,97.7,196.7,95.3L196.7,95.3z M281.9,154.4c-0.6,0.7-1.2,1.3-1.7,2.1
	c-0.8,1-1.7,2.1-2.6,3.1c-0.8,0.9-1.9,1.7-3.1,2.2c0.3-1.3-3.5-1.3-3.3-0.1c0,0,1.6,0.3,2.4,0.6c-0.1,0.1-0.1,0.2-0.2,0.3
	c-0.8,0.5-1.5,1-2.3,1.6c-0.8,0.6-1.5,1.2-2.3,1.7c-1,0.8-1.3,1.8-1,2.9c0.8,3.2,1.2,6.3,0.9,9.5c-0.2,0.4-0.3,0.8-0.2,1.3
	c0,0.4,0,0.8-0.1,1.2c0.1,0.3,0.1,0.6,0.1,0.8c0.1,0.3-0.2,0.4-0.6,0.6c-0.2,0.2-0.3,0.3-0.3,0.5c0,0.2,0,0.3-0.1,0.5
	c-0.4,1.1-0.8,2.2-1,3.4c-0.3,1.2-0.8,2.3-1.4,3.4c-0.5,0.8-1,1.6-1.6,2.4c-0.6,0.8-1.2,1.6-1.7,2.4c-0.2,0.3-0.3,0.7-0.6,0.9
	c-0.2,0.3-0.4,0.8-0.7,1.2c-0.6,1.1-1.4,2.1-2.4,2.9c-0.9,0.8-2,1.7-3.1,2.4c-1.7,1.3-3.3,2.6-5,4c-1.5,1.5-3.3,2.5-5.2,3.3
	c-1,0.4-1.9,0.8-2.9,1.2c-1,0.3-2,0.6-3,0.7c-0.3,0-0.6,0.1-0.9,0.3c-0.6,0.5-1.3,0.8-2.1,1c-0.8,0.2-1.6,0.3-2.3,0.6
	c-0.7,0.3-1.4,0.3-2.4,0.1c-1.2-0.2-2.3-0.3-3.4-0.4c-1.2-0.1-2.3-0.2-3.5-0.2c-0.8-0.1-1.5-0.2-2.3-0.3c-0.8-0.1-1.6-0.3-2.4-0.8
	c-0.2-0.1-0.3-0.3-0.5-0.4c-0.2-0.1-0.3-0.3-0.4-0.4c-0.7-2.4-0.9-4.7-0.7-7c0.2-2.2,1.2-4.4,2.9-6.5c1.6-1.8,3.3-3.5,5.1-5.1
	l0.6-0.4h1.5v-1.3c1.3-0.9,2.5-1.8,3.9-2.8c2.9-1.8,5.9-3.8,8.7-5.6c2.9-1.9,5.8-3.8,8.7-5.8c0.1,0,0.2,0,0.3-0.1
	c0-0.1,0.1-0.2,0.2-0.2c1-0.4,1.6-0.9,1.8-1.5c0.1-0.3,0.2-0.6,0.2-0.9c0.2,0.4,0.3,0.8,0.8,0.8c1.7-0.8,0.3-2.9-0.9-2.7
	c-0.2-1.6-0.5-3.1-0.8-4.6c0.7,0.3,1.8,0.3,2.7-0.9l0,0c-1.6-0.3-2.4-0.2-2.9,0c-0.1-0.4-0.2-0.9-0.3-1.3c-0.6-2.4-1.6-4.8-2.9-7.1
	c-1-1.8-2.1-3.6-3.4-5.2c-1.3-1.7-2.7-3.4-4.1-5c-0.5-0.6-1.1-1-1.8-1.3c-0.7-0.3-1.4-0.6-2.2-0.8c-2.2-0.7-4.3-1.2-6.4-1.7
	c-2.2-0.4-4.3-0.8-6.5-0.9c-2.6-0.3-5.4-0.3-8.3,0c-0.9,0.1-1.8,0.3-2.7,0.4c-0.8,0.3-1.8,0.4-2.8,0.5c-0.7,0.1-1.5,0.2-2.4,0.3
	c-0.8,0.1-1.6,0.2-2.3,0.3c-0.6,0.1-1.1,0.3-1.6,0.4c-0.6,0.2-1.1,0.3-1.7,0.5c-0.2,0.2-0.3,0.4-0.4,1c-0.2,0.4-0.3,0.8-0.3,1.2
	c0,0.4-0.1,0.8-0.1,1.2c0,0.6,0.2,1.8,0.3,3.6c0.2,1.8,0.3,3.9,0.5,6c0.3,2.2,0.3,4.3,0.5,6.5c0.1,2.1,0.1,3.8,0,5
	c0,0.8,0,1.5,0.2,2.3c0.3,1.3,0.5,2.5,0.6,3.8c0.1,1.2,0.1,2.4,0,3.8c-0.2,0.7-0.2,1.1,0,1.4c0.3,0.9,0.5,1.9,0.5,2.9
	s-0.1,1.9-0.3,2.9c-0.1,0.4-0.1,0.8-0.2,1c0,0.3,0,0.7-0.1,1c0.1,0.8-0.3,1.3-1,1.4c-0.2,0-0.4,0-0.7-0.2c-0.3-0.1-0.5-0.3-0.8-0.4
	c-0.1,0.1-0.2,0-0.2,0c-0.1,0-0.2-0.1-0.3,0c-0.1,0.1-0.3,0.1-0.8,0c-0.4-0.1-1-0.3-1.6-0.4c-0.6-0.3-1.2-0.5-1.8-0.8
	c-0.5-0.3-0.8-0.8-1-1.3c-0.5-1.6-0.9-3.2-1.3-4.7c-0.2-0.8-0.3-1.7-0.3-2.5c0.2,0.3,0.7,0.5,1.3,0.2c0.7-0.3,1.4-1.6,0-0.9
	c-0.3,0.1-0.7-0.1-0.9,0c-0.2,0.1-0.3,0.2-0.4,0.3c0-0.6,0-1.3,0.1-1.8c0.2-0.9,0.3-1.8,0.5-2.9c0.3-1,0.3-1.9,0-2.9
	c-0.6-2.3-1.2-5.1-1.8-8.4c-0.6-3.3-1.1-6.7-1.7-10.4c-0.4-2.8-0.8-5.6-1.3-8.4c0.9-0.3,1.7-1.6,2.8-1c0.3,0.1-1.6,2.4,0,2.7
	c3.9,0.3,2.4-4.2,1.8-4.5c0.4,1.3-3.1,0.9-2.7,0c-0.1,0.2,2.5-0.6,1.8-0.9c-1.3-0.6-3.4,1.3-4.2,0.2c-0.5-3.2-0.8-6.2-1.2-8.9
	c-0.4-3-0.7-5.6-0.8-7.6l-0.1-0.9c0.7,0.1,1.3-0.2,1.7-0.8c-0.4-0.1-1.1-0.3-1.8-0.7c-0.1-0.7-0.1-1.2-0.1-1.5c0-0.1,0-0.3,0.1-0.3
	c0-0.1,0-0.2,0-0.3c-0.2-1.5-0.2-3,0.3-4.5c0.3-1.4,0.6-3,0.8-4.5c0.1-0.4,0.1-0.9,0-1.8c1.5-0.8,3.4-1.3,5.4-1
	c2.1,0.2,3.8,0.8,5.2,2c0.5,0.4,0.8,0.9,1,1.4s0.3,1.1,0.5,1.7c0.1,0.6,0.3,1.3,0.6,1.9c0.6,1.7,1.1,3.4,1.3,5.2
	c0.3,1.8,0.3,3.5,0.2,5.4c-0.2,2.1-0.3,4.3-0.3,6.4c0,1.8,0,3.6-0.1,5.5c-1.4-0.3-2.7-0.3-3,1.6c1.3-0.5,2.3-0.4,2.9-0.3
	c0,0.3,0,0.7,0,1c0,0.4-0.1,0.9-0.1,1.3c0.3,0.1,0.6,0.2,0.6,0.2c1.5-0.3,3-0.5,4.4-0.8c1.4-0.2,2.9-0.6,4.4-1.1
	c2.1-0.8,4.1-1.7,6-2.8c1.8-1.2,3.6-2.4,5.2-3.8c0.8-0.8,1.5-1.5,1.8-2.4c0.4-0.8,0.8-1.7,1.2-2.5c0.2-0.6,0.3-0.9,0.3-1
	c0.2-0.2,0.3-0.4,0.5-0.7c2,0.3,3.3-0.3,3.5-1.8c-1.3,0.1-2.4,0.4-3,1c0.1-0.3,0.2-0.5,0.3-0.8c0.2-0.8,0.3-1.6,0.4-2.5
	c0-0.9,0.2-1.8,0.5-2.8c0.3-0.8,0.5-1.4,0.6-2.1c0.1-0.8,0.2-1.5,0.3-2.3c0-0.8-0.1-1.6-0.3-2.4c1.4,0.5,3.9,0,3.9-0.9
	c-2.5,0.7-2.4-1.2-4.4-0.9c-0.4-1.3-1.2-2.5-2.1-3.7c-2.3-2.6-5.2-4.1-9-4.7c-1.5-0.2-2.9-0.3-4.4-0.5c-1.3-0.2-2.4-0.3-3.8-0.3
	c-0.2-0.8-1.3-0.9-1.7-0.1c-1.6-0.2-3.1-0.2-4.7-0.1c-1.8,0-3.7,0.1-5.5,0.1c-2.1,0-4.2,0.1-6.2,0.3c-0.8,0.2-1.6,0.3-2.5,0.4
	c-0.8,0.1-1.7,0.3-2.5,0.5s-1.6,0.6-2.4,0.9c-1.1,0.1-2.4-0.2-2.5,0.8c0.2,0,0.3,0,0.5,0l-0.3,0.1c-1.5,0.8-2.9,1.6-4.3,2.5
	c-0.8,0.7-1.5,1.3-2.2,1.9c-0.7,0.6-1.2,1.3-1.6,2.1c-0.4,1.1-0.9,2.1-1.4,3c-0.4,0.8-0.8,1.5-1.1,2.3c-0.7,0.2-0.9,0.3-0.2,0.7
	l-0.1,0.1c-0.3,0.9-0.6,1.9-0.7,2.9c-0.1,0.8,0.1,1.6,0.6,2.4l-0.3,0.2l0,0c-1.2,1.6-0.3,0.9,0.4,0.2c0.1,0.1,0.1,0.2,0.2,0.3
	c0.3,0.3,0.3,0.5,0.4,0.8c0.1,0.3,0.2,0.6,0.3,0.9c0.8,1.5,2,2.7,3.9,3.4c0.3,0.1,0.6,0.3,0.8,0.3c0.3,0.2,0.6,0.3,0.8,0.4
	c-1,0.9-2.1,1.1-3.3,0.5c-2.5-1.2-4.4-2.7-5.6-4.5c-0.6-0.6-1-1.2-1.3-1.9c-0.3-0.7-0.7-1.3-1.1-2c-0.2-0.1-0.3-0.4-0.3-0.8
	c-0.1-3,0.3-5.9,1.3-8.6c1-2.7,2.9-5.1,5.8-7.2c4.9-3.7,10.3-6.5,16.4-8.4c2.2-0.8,4.4-1.3,6.5-1.8c2.3-0.4,4.5-0.8,6.8-1.2
	c1.3-0.3,2.4-0.3,3.6-0.4c1.1-0.1,2.4-0.2,3.6-0.2c1.3-0.1,2.4-0.1,3.5-0.1c1.2,0.1,2.4,0.1,3.7,0.1c2.5,0,4.9,0.3,7.2,0.8
	c2.3,0.6,4.5,1.3,6.7,2.3c0.9,0.3,1.8,0.8,2.5,1.2c-0.1,0.1-0.2,0.3-0.3,0.5c0.9-0.1,1.3,1,1.7,0.3c1.5,0.9,2.8,2,3.9,3.3
	c0.6,0.5,1,1.1,1.5,1.6c0.4,0.6,0.9,1.1,1.4,1.7c0.3,0.4,0.5,1,0.8,1.8c0.2,0.6,0.3,1.3,0.4,1.8c0.2,0.7,0.3,1.3,0.2,1.9
	c-0.1,0.8-0.1,1.7,0.1,2.5s0.3,1.7,0.4,2.5c0.1,1.5,0,2.9-0.4,4.4v0.1c-0.4,0.2-0.7,0.3-0.8,0.8c0.2,0.2,0.3,0.3,0.5,0.4
	c-0.3,1-0.7,2-1.1,3c-0.4,0.9-0.8,1.8-1.3,2.6c-0.4,0.8-0.9,1.8-1.4,2.6c-1.7,3.1-3.9,5.7-6.6,7.8c-0.3,0.3-0.6,0.6-0.7,0.8
	c0.3,0.2,0.6,0.3,0.9,0.4c1.7,0.3,3.2,0.8,4.6,1.1c1.5,0.3,3,0.7,4.6,1c2.7,0.6,5.1,1.5,7.3,2.8c2.1,1.3,4.1,2.8,6,4.4
	c1.1,0.9,2.2,1.9,3.2,2.9c1,0.9,1.9,2,2.8,3.2c0.5,0.8,1,1.6,1.5,2.4c0.4,0.8,0.9,1.7,1.4,2.4c0.3,0.6,0.7,1.2,1,1.6
	c0.3,0.5,0.6,1,0.9,1.6c0.3,0.5,0.7,1,1,1.4c0.3,0.5,0.6,1,0.9,1.6c0.3-0.1,0.7-0.3,1.2-0.7c1.5-1.2,3-2.4,4.5-3.7s2.9-2.6,4-4.1
	c0.3-0.4,0.8-0.8,1.2-1.2c0.4-0.3,0.8-0.7,1.3-1c1.1-0.9,2.2-1.8,3.2-2.8l0.3-0.3l0.6-2.4c0.2-0.8,0.4-1.8,0.8-2.6
	c0.3-0.8,0.4-1.8,0.6-2.6c0.7-3.4,2.2-6.6,4.4-9.6c0.7-0.8,1.4-1.8,2.1-2.9c0.5-0.8,1.2-1.4,1.9-2c0.8-0.6,1.6-1,2.4-1.4l3.4-1.6
	c1.1-0.5,2.1-0.8,3.1-0.9c1-0.2,2-0.4,3-0.8c0.6,0,1-0.2,1.3-0.3c0.8-0.4,1.6-0.6,2.4-0.7c0.8,0,1.7,0,2.6,0.1
	c0.7,0.1,1.3,0.3,1.8,0.6c0.5,0.3,1.1,0.8,1.6,1.3c0.3,0.5,0.7,0.8,1,1.3c0.4,0.4,0.7,0.8,0.9,1.3c1,1.4,0.9,2.9-0.3,4.1
	c-0.3,0.3-0.8,0.5-1.4,0.5c-0.3,0.2-0.7,0-0.9-0.6c-0.3-1.1-0.8-2-1.5-2.7c-0.8-0.8-1.5-1.4-2.4-2.2l-0.4-0.4
	c-1.8-0.3-3.4-0.3-5,0.3c-1.3,0.4-2.5,0.9-3.6,1.6c-1.2,0.7-2,1.7-2.7,3c-0.9,1.8-1.7,3.9-2.2,5.9c-0.5,2.1-1.1,4.1-1.8,6
	c-0.3,0.9-0.6,1.9-0.8,2.9c-0.3,1-0.5,1.9-0.8,2.9c-0.6,2.3-1,4.5-1.3,6.7c-0.3,2.2-0.1,4.4,0.7,6.6c0.4,1.3,1.4,2.3,3,2.9
	c1.6,0.7,3,0.6,4.2-0.1c1.6-0.9,2.9-2.4,4.2-4.6c1.3-2.3,2.3-4.1,3-5.7c0.2-0.5,0.3-1,0.3-1.6c0-0.5,0.1-1,0.3-1.6
	c0.8,0.8,1.9,1,2.2-0.3c-1.1,0.2-1.6-0.3-1.9-0.8c0-0.3,0.1-0.5,0.1-0.7c0-0.7,0.2-1.2,0.3-1.7c0.1-0.8,0.3-1.8,0.6-2.6
	c0.3-0.8,0.5-1.8,0.8-2.6c0.2-0.9,0.4-1.8,0.7-2.8c0.3-0.8,0.5-1.8,0.6-2.7c0.4-1.6,1.2-2.4,2.3-2.7c0.5-0.2,0.9-0.3,1.3-0.5
	c0.5-0.1,0.9-0.2,1.4-0.3c1.1-0.2,1.8,0.2,2.3,1.2l0.5,0.8c0.3,0.8,0.2,1.4-0.2,2.1c-0.3,0.6-0.3,1.3,0.2,2c0.1,0.3,0.2,0.7,0.2,1
	c-0.1,0.3-0.1,0.7,0,1.1c0.1,1.4,0,3.1-0.3,5c-0.3,1.8-0.5,3.5-0.7,5.1c-0.2,1.7-0.3,3.2-0.3,4.4c0,1.3-0.1,2.9-0.3,4.5
	c-0.2,0.6-0.3,1.1-0.3,1.7c-0.1,0.5-0.2,1-0.2,1.6c-0.2,1.1-0.3,2.1-0.3,3.2s-0.1,2.2-0.2,3.3c-0.1,0.5-0.1,0.9-0.1,1.4
	c-0.1,0.4,0,0.8,0,1.3c0,0.3,0,0.8,0,1.7c-0.1,0.8,0,1.6,0.1,2.4s0.4,1.3,0.8,1.7c0.5,0.4,1.3,0.3,2.3-0.3c0.5-0.3,1.3-1.2,2.5-2.4
	c1.1-1.2,1.8-2,2.2-2.5c0.7-1.1,1.5-2.5,2.4-4.1c0.9-1.7,1.7-3.1,2.2-4.4c0.9-2.4,2-5.3,3.3-8.6c1.2-3.1,2.2-5.8,3.1-8.1
	c0.1-1.3,0.3-2.6,0.6-3.9c0.3-1.6,0.6-3.3,0.7-5c0.1-0.3,0.1-0.3,0.1-0.4c0,0,0.1-0.2,0.2-0.3c0.1-0.8,0.3-1.6,0.4-2.4
	c0.2-0.8,0.4-1.7,0.8-2.4c0.3-0.9,0.7-1.8,1-2.7c0.3-0.8,0.6-1.7,0.9-2.4c0.3-0.8,0.7-1.5,0.9-2.1c0.3-0.6,0.7-1.3,1-1.9
	c0.2-0.4,0.2-0.7,0.2-0.8c0.4-0.8,0.9-1.4,1.5-2c0.5-0.6,1.2-1.2,1.8-1.7c0.9-0.6,1.8-1.1,2.7-1.6c0.8-0.4,1.7-0.9,2.6-1.4
	c0.5-0.2,1-0.4,1.5-0.6c0.5-0.1,1.1-0.3,1.6-0.6c0.5-0.1,1-0.3,1.6-0.3c0.6-0.2,1.1-0.3,1.6-0.4c0.3-0.1,0.9-0.3,1.7-0.3
	c1.5-0.3,3-0.4,4.4-0.2s2.8,0.6,4.2,1.1c0.2,0.1,0.4,0.2,0.7,0.3s0.4,0.3,0.7,0.4c0.5,0.3,0.8,0.6,0.8,1.2c0.1,0.3,0.2,0.5,0.3,0.8
	c0.1,0.3,0.2,0.5,0.3,0.8c0.3,0.4,0.4,0.9,0.6,1.3c0.2,0.4,0.3,0.9,0.2,1.5c-0.2,0.3-0.2,0.4,0.1,0.8c0.1,0.7,0,1.4-0.2,2
	c-0.3,0.7-0.4,1.3-0.7,1.8c-0.3,0.6-0.9,1-1.8,1.3c-0.8,0.3-1.4,0.4-1.9,0.3c-0.4-0.2-0.6-0.4-0.5-0.7c0.1-0.5,0.1-0.9,0.1-1.4
	c-0.1-0.4,0-0.9,0.2-1.4c0.2-0.6,0.2-1.1,0-1.6c-0.1-0.5-0.3-1-0.4-1.6c0-0.4-0.3-0.8-0.8-1.3c-0.3-0.2-0.7-0.3-0.9-0.6
	c-0.3-0.2-0.8-0.3-1.3-0.5c-0.5-0.1-0.9-0.3-1.3-0.4c-0.3-0.1-0.8-0.3-1.3-0.4c-0.6-0.2-1.1-0.2-1.4,0.2c-0.3,0.3-0.7,0.7-1,0.9
	c-0.3,0.3-0.7,0.5-1,0.8c-0.4,0.3-0.7,0.7-0.8,1.1c-0.4,1.7-1.2,3.2-2.3,4.6c-0.8,1.1-1.4,2.4-1.8,3.9c-0.1,0.8-0.3,1.4-0.5,2
	c-0.3,0.7-0.4,1.3-0.6,2.1c-0.2,0.4-0.3,0.8-0.3,1c-0.1,1-0.3,1.9-0.4,2.9c-0.2,0.8-0.3,1.8-0.6,2.8c-0.2,0.6-0.3,1.2-0.4,1.8
	c-0.2,0.7-0.3,1.3-0.3,1.9c0,0.3,0,0.4-0.1,0.8c-0.1,0.3-0.2,0.5-0.3,0.8c-0.3,1.3-0.6,2.7-0.7,4.1c0,0.8-0.1,1.5-0.2,2.2
	c-0.1,0.8-0.3,1.4-0.3,2.2c-0.1,0.2-0.2,0.3-0.2,0.6c0,1.1,0,2,0,2.9c0.1,0.9,0.1,1.9,0.2,2.9c-0.1,0.4,0.1,1,0.3,1.8
	c0.1,0.4,0.1,0.7,0.1,0.7c-0.2,0.6-0.1,1.2,0.1,1.7c0.2,0.6,0.3,1.1,0.3,1.7v0.3c-0.9,0-2.2,0.4-2.9,0.2c-0.6-0.2-0.7-1.8-1.8-1.8
	c-1,0.1-3.5,1.2-2.7,2.7c3.8-1.5,5.4,0.1,7.6,1.8c0.1,0.4,0.3,0.8,0.4,1.2c0.3,0.3,0.4,0.6,0.4,0.9c0.1,0.3,0.3,0.6,0.5,1
	c0.1,0.3,0.3,0.7,0.3,1.1c0.2,0.3,0.3,0.8,0.5,1.2c0.3,0.6,0.8,1.2,1.4,1.7c1.1,0.6,2,0.7,2.9,0.3c0.5-0.3,0.9-0.4,1.3-0.4
	c1.2-0.3,2.4-0.8,3.5-1.4c1.1-0.6,2.2-1.3,3.4-2c0.4-0.3,0.8-0.7,1.2-1.1c0.3-0.4,0.8-0.9,1.1-1.4c0.5-0.7,1-1.3,1.6-2
	c0.5-0.6,1-1.2,1.6-1.8c0.7-0.8,1.4-1.7,2.1-2.5c0.8-0.8,1.4-1.8,2.2-2.5c0.9-1.3,1.9-2.5,2.9-3.7c0.9-1.2,1.8-2.4,2.6-3.6
	c-0.1-0.3-0.2-0.7-0.2-1h0.1c0-2.8,5.7,1.3,2.7-0.9c0.1-1.3-1.8-1.3-3-0.8c-0.1-0.9-0.1-1.9-0.1-2.9c0.1-1.7,0.3-3.4,0.7-5.2
	c0.2,0.1,0.4,0,0.7-0.2c0.1-0.2-0.1-0.4-0.5-0.7c0.1-0.3,0.2-0.8,0.3-1.1c0.4-1.8,0.9-3.4,1.5-5.1c0.7-1.6,1.3-3.3,1.9-5
	c0.3-0.9,0.8-1.9,1.7-2.9c0.4-0.5,0.8-1.1,1.3-1.7c0.3-0.6,0.8-1.2,1.2-1.8c0.5-0.6,0.9-1,1.4-1.4c0.5-0.3,1-0.8,1.4-1.2
	c0.8-0.7,1.5-1.3,2.3-1.8c0.8-0.6,1.6-1.2,2.4-1.8c0.6-0.4,1.3-0.7,2.1-0.7c1.5,0.1,2.9,0.3,4.2,1c0.1,0.6,0,1.3-0.3,1.8
	c-2.6-0.6-2.4,1.3-1.1,1.4c-0.1,0.2-0.2,0.3-0.2,0.4c-0.2,0.4-0.3,0.8-0.6,1.2c-1.3-0.7-3.2-1.3-0.8,0c0.1,0.1,0.2,0.3,0.3,0.5
	l-0.1,0.1c-0.2,0.5-0.4,0.9-0.7,1.3c-0.3,0.3-0.5,0.8-0.7,1.2c-0.2,0.6-0.4,1.2-0.6,1.8c-0.3,0.7-0.4,1.3-0.5,2.1
	c-0.3,1.5-0.6,3.1-0.8,4.6s-0.6,3-0.9,4.5c-0.3,1.1-0.6,2.1-0.8,3.1c-0.2,1-0.3,2-0.6,3.1c-0.2,1.1-0.5,2-0.8,2.9s-0.6,1.9-0.8,3
	c0.1,0.1,0,0.3-0.2,0.7c-0.6,0.8-0.8,1.7-0.9,2.6c-0.1,0.8,0,1.8,0.2,2.7c0.2,1,0.3,2,0.4,2.9c0.1,0.9,0.3,1.8,0.6,2.9
	c0,0.7,0.4,1.2,1.1,1.5c0.3,0.3,0.7,0.5,1,0.8c0.3,0.3,0.7,0.5,1,0.8c0.8,0.5,1.4,0.5,2.2,0.2c1.3-0.6,2.4-1.2,3.5-1.7
	c1.1-0.5,2.2-1.2,3.2-2.2c0.4-0.4,1-0.8,1.6-1.2s1.1-0.8,1.5-1.3c0.4-0.3,0.7-0.5,0.9-0.8c0.2-0.3,0.4-0.6,0.8-0.9
	c1.1-1.3,2-2.7,2.7-3.9c0.1-0.1,0.2-0.2,0.2-0.3c0.3-0.9,0.6-1.8,1.1-2.5c0.1-0.3,0.2-0.4,0.1-0.5c0-0.2,0.1-0.3,0.2-0.5
	c-0.5-0.2-1-0.3-1.3-0.6c-0.4-0.3-0.9-0.4-1.4-0.7c-2.7-1.4-5-3-6.7-4.9c-0.4-0.4-0.8-0.8-1.2-1.3c-0.4-0.5-0.8-0.9-1.1-1.3
	c-1.1-1.7-1.8-3.4-2-5.1c-0.3-1.8-0.3-3.6,0.1-5.5c0.1-1.2,0.3-2.3,0.8-3.3c0.4-1,0.8-2.1,1.2-3.1c0.1-0.3,0.2-0.3,0.2-0.3
	c0.6-0.3,1-0.6,1.3-1.1c0.3-0.5,0.8-0.8,1.5-1c0.3-0.1,0.7-0.2,1.1-0.3c-0.2,0.2-0.2,0.6-0.2,1.2c-5.2-0.3-0.6,2.1,0.9,0
	c0.1-0.7-0.1-1.2-0.3-1.3l0.3-0.1c1-0.3,1.9-0.3,2.8,0h0.1c-0.3,0.7-0.1,1.3,0.8,1.4c0.5,0,0.9-0.3,1.3-0.6l0.3,0.1
	c1.1,0.5,2.2,0.9,3.4,1.4c1.2,0.5,2.1,1.3,2.7,2.3c0.6,0.8,1,1.6,1.3,2.4c-0.3,0-0.5,0-0.8-0.1c0.3-1.4-1.3-2.4-1.8-0.8
	c0.3,1,1.7,1.4,2.8,1.5c0.3,0.7,0.4,1.5,0.5,2.4c0.2,0.4,0.3,0.8,0.3,1.2c0.1,0.3,0.2,0.6,0.3,1c0.3,0.8,0.5,1.7,0.6,2.7
	c0.2,0.9,0.2,1.8,0.2,2.7c-0.1,0.8-0.3,1.4-0.5,2c-0.3,0.6-0.5,1.3-0.5,1.8c-0.2,0.5-0.3,1-0.3,1.4c0.1,0.5,0,1-0.2,1.6
	c0.3,0,0.4,0,0.6,0.1c0.1,0.1,0.3,0.1,0.5,0.1c0.4-0.1,0.9-0.2,1.4-0.3c0.4-0.1,0.9-0.2,1.4-0.3c2.9-0.8,5.5-2.1,8.1-3.9
	c1.1-0.8,2.2-1.6,3.2-2.5v-0.3c-0.2-1.2-0.3-2.4-0.4-3.4l-0.1-1.4h0.3c1.5-0.8,0.7-1.6-0.4-2v-0.1c0-0.4-0.1-0.8-0.1-1.2
	c0-0.3-0.1-0.7-0.3-1.2l-0.1-0.9c0.1-1.9,0.1-3.9,0-5.8c0-1.9,0-3.9,0-5.9c0-1.1,0-2.3,0-3.4c0.1-1.2,0.1-2.4,0.3-3.4
	c0-0.5,0.1-1,0.2-1.5c0-0.5,0.2-1,0.3-1.5c0-0.7,0.4-1.1,1.3-1.4c1.8-0.5,3.6-0.4,5.2,0.2c0.2-0.1,0.3,0,0.3,0.3
	c0.2,0.3,0.5,0.6,0.8,0.8c0.3,0.1,0.7,0.3,1,0.4c0.1,0.3,0.2,0.6,0.3,0.8c0.1,0.3,0.3,0.7,0.3,0.9c0.3,0.2,0.3,0.3,0.3,0.3
	c1.2,0.4,1.9,1.3,2.2,2.7c0.1,0.8,0.2,1.7,0.2,2.6c0,0.8,0.2,1.7,0.6,2.5c0.2,0.7,0.5,1.4,0.8,2.1c0.3,0.6,0.4,1.3,0.3,2.1
	c-0.1,1-0.1,2,0,2.9c0,0.9-0.1,1.8-0.2,2.8c-0.1,0.7-0.2,1.3-0.2,1.9c-0.6,0.2-0.8,0.7-0.7,1.6c0.2,0,0.4,0,0.6,0
	c-0.1,1,0,2,0.2,3.1c0,0.4,0.2,0.8,0.3,1.2c0.2,0.4,0.3,0.8,0.3,1.3c0.1,0.4,0.1,0.9,0,1.5c-0.1,0.5,0,1,0.1,1.4
	c0.3,1.3,0.3,2.5,0.3,3.8c0,0.5,0.1,1.1,0.1,1.6c0.1,0.5,0.2,1,0.3,1.6c0.3-0.1,0.5-0.2,0.5-0.3c0-0.1,0.1-0.3,0.2-0.5
	c0.5-1.1,1-2.2,1.4-3.3c0.4-1.1,0.9-2.3,1.4-3.4c0.2-0.3,0.3-0.7,0.4-1c0.2-0.3,0.3-0.6,0.4-1c0.2-0.4,0.4-1.1,0.8-2
	c0.2-0.5,0.3-1.1,0.5-1.6c0.3-0.6,0.4-1.2,0.7-1.7c0.3-0.4,0.6-1,0.9-1.8l4.1-8.9l0.5-0.9c1-0.1,2.3,0.1,2.4-0.9
	c-0.7,0.1-1.5,0-2.1,0.2l0.3-0.6c0.4-0.8,0.8-1.5,1.3-2.4c0.4-0.8,0.8-1.5,1.3-2.3c0.4-0.8,0.9-1.5,1.3-2.4c1-1.5,2-2.8,2.9-3.7
	c1.8-2,4.3-3,7.3-3.2l3.4-0.3c1-0.3,2.1,0,3.1,0.6c0.5,0.4,1,0.8,1.4,1.2c0.5,0.4,1,0.8,1.5,1.2c0.6,0.7,0.9,1.2,0.8,1.6
	c-0.1,0.5,0,0.8,0.1,1.2c0.1,0.3,0.3,0.7,0.5,1.2c0.6,1.3,1,3,1.2,5c0.3,2,0.3,3.9,0.3,5.5c-0.1,0.7-0.1,1.3-0.2,1.9
	c-0.1,0.7-0.2,1.3-0.3,2c-0.6,3.3-1.1,6.5-1.7,9.7s-1.1,6.5-1.5,9.8c-0.4,3.3-0.7,6.6-0.7,10c0,3.4,0.1,6.7,0.2,10
	c-0.1,0.6-0.1,1.3-0.1,1.8c0,0.6,0,1.2,0.2,1.8c0,0.3-0.1,0.6-0.2,1c0,0.3,0,0.5,0.1,0.6c0.1,0.2,0.3,0.4,0.6,0.8l0.3-0.5
	c0.3-0.2,0.3-0.3,0.3-0.4c0.1-0.2,0.2-0.3,0.3-0.5c0.8-1.3,1.6-2.8,2.4-4.2c0.8-1.3,1.4-2.8,2.1-4.1c0.9-2,1.8-3.9,2.6-5.8
	c0.8-1.8,1.7-3.8,2.5-5.7c0.2-0.3,0.3-0.8,0.5-1.1c0.4,0.3,1.2,0.1,1.3-0.7c-0.4,0-0.7-0.2-0.9-0.3c0.5-0.8,1-1.8,1.6-2.7
	c0.5-0.8,1-1.7,1.4-2.6c0.4-0.9,0.8-1.8,1.3-2.8c0.4-0.8,0.8-1.5,1-2.3c0.2-0.3,0.3-0.6,0.4-0.9c0.8,0.2,1.8,0.4,1.5,0.7
	c1.3-1.3,0.2-1.8-0.9-1.8l0.1-0.2c0.3-0.5,0.5-1,0.8-1.5s0.5-1,0.8-1.5c0.1-0.2,0.2-0.4,0.3-0.7v2c1.8,0.2,2.7-0.5,2.8-2v0.3
	c-0.1,1.3-0.3,2.4-0.8,3.4c-0.3,0.9-0.6,1.8-0.8,2.7c-0.2,0.8-0.4,1.7-0.8,2.4c-0.3,0.8-0.7,1.5-0.9,2.2c-0.3,0.8-0.7,1.4-1.1,2.1
	c-1,2-1.9,4-2.8,6c-0.7,1.7-1.3,3.3-2,4.9c-0.3-0.2-0.5,0-0.8,0.7c0.1,0,0.1,0.3,0.3,0.7c-1,2.2-1.9,4.4-2.9,6.7s-2.2,4.4-3.7,6.6
	c-1.4,2-3.4,3.9-5.8,5.5c-2.4,1.6-5,2.4-7.6,2.2c-1.7-0.2-2.9-1.1-3.9-2.7c-0.2-0.5-0.5-1.1-0.8-1.6c-0.1-0.2-0.2-0.4-0.3-0.6
	c0-0.2,0-0.3-0.1-0.4h-0.1c-0.1-0.3-0.2-0.5-0.3-0.8c-0.8-2.9-1.3-6-1.5-9.2l-0.3-2.9c0.5,0.1,1.2,0.2,1.2,0.3
	c2.3,1.1,0.1-0.9-1.3-1.1c-0.1-5,0.3-10.2,1-15.4c0.2-1.1,0.3-2.2,0.3-3.3c0.2-1,0.3-2.1,0.3-3.2c0.2-1.3,0.3-2.7,0.3-4
	c0.2-1.4,0.3-2.9,0.4-4.1c0.1-1.1,0.2-2.1,0.3-3.2c0.1-1.1,0.2-2.2,0.3-3.2c0.1-1.3,0.2-2.6,0.3-3.8c0.1-1.2,0.1-2.4,0-3.7v-0.8
	c-0.8,0.4-1.3,0.8-1.8,1.2c-0.2,0.2-0.3,0.4-0.5,0.8c-0.2,0.3-0.3,0.5-0.4,0.8c0,0.3-0.2,0.6-0.3,0.8c-0.2,0.3-0.3,0.4-0.3,0.5
	c0,0.2-0.2,0.3-0.3,0.6c-1,0.8-1.8,1.8-2.4,3.1c-0.6,1.3-1.2,2.5-1.8,3.6c-0.8,1.4-1.6,2.8-2.4,4.1c-0.9,1.3-1.8,2.6-2.6,4
	c-0.8,1.3-1.5,2.6-2,3.9c-0.6,1.3-1.2,2.7-1.8,4c-0.5,1.3-1,2.5-1.6,3.8s-1.1,2.5-1.5,3.8c0.1,0.1,0,0.1-0.1,0.1
	c-0.4,0.6-0.8,1.1-0.8,1.8c-0.1,0.6-0.2,1.3-0.3,1.9c-0.1,0.4-0.2,0.8-0.3,1.3c-0.2,0.4-0.3,0.8-0.5,1.2c-0.2,0.5-0.3,0.9-0.5,1.3
	c-0.2,0.4-0.1,0.8,0.1,1.3c0.1,0.2,0,0.4-0.2,0.8c-0.2,0.5-0.4,1-0.7,1.5c-0.3,0.6-0.5,1.2-0.7,1.8c-0.3,0.5-0.7,0.7-1.3,0.7
	c-0.6-0.1-1.2,0-1.8,0.5c-0.3,0.3-0.4,0.4-0.5,0.4c-0.6,0-1.1,0.1-1.5,0.4c-0.4,0.3-0.8,0.5-1.3,0.8c-0.8,0.4-1.4,0.7-2.1,0.7
	s-1.4-0.1-2.2-0.2c-0.5-0.1-1-0.5-1.4-1.3c-0.1-0.3-0.2-0.6-0.3-0.8c0-0.2,0-0.4-0.1-0.6c0.2,0,0.3,0,0.6,0c0.4-0.8-0.2-1.3-0.9-1.6
	c-0.1-0.2-0.1-0.4-0.1-0.6c-0.2-0.7-0.2-1.3-0.3-2c-0.1-0.7-0.2-1.2-0.3-1.4c0-0.2,0-0.3,0-0.6c0.1-0.3,0-0.5-0.1-0.7
	c-0.3-1.2-0.5-2.4-0.6-3.5c-0.1-1.1-0.2-2.3-0.3-3.5c-0.1-0.5-0.1-0.9-0.3-1.3c-0.2-0.7-0.3-1.5-0.3-2.4l-0.1-1.1
	c-0.2,0.1-0.3,0.2-0.4,0.2c-1.3,0.7-2.5,1.3-3.6,2.2c-1.1,0.8-2.3,1.5-3.6,2.2c-1.1,0.6-2.2,1-3.2,1.3c-1.5-2.5-6.5-2.3-8.8-0.8
	c0.7,1.5,0.9,2.6,1.1,3.4l-0.1,0.2c-0.3,0.7-0.7,1.4-0.8,2.1c-0.3,0.7-0.5,1.4-0.8,2.2c-0.4,1.1-1,1.9-1.8,2.7
	c-0.8,0.8-1.4,1.6-1.9,2.5c-0.5,0.6-0.9,1.2-1.3,1.8c-0.4,0.7-0.9,1.3-1.5,1.7c-0.6,0.5-1.2,1-1.7,1.6c-0.5,0.5-1,1-1.7,1.6
	c-0.8,0.5-1.7,1.1-2.5,1.7c-0.1,0.1-0.2,0.2-0.3,0.3c0.1-0.2,0-0.4-0.2-0.8c0.2,0.3-5.2-2.9-2.8-0.9c0.1,0.1,2,1.8,2.7,1.9
	c-0.7,0.3-1.4,0.5-2.2,0.6c-1.1,0-2.2-0.2-3.3-0.6c-1.1-0.4-2.2-0.8-3.1-1.1c-1.7-0.7-3.3-1.6-5-2.6c1.5,0,2.5-0.6,2.7-1.9
	c-1.3-0.3-1.8-1.3-3.7-0.8v2.1l0,0c-1.9-1.4-3.5-2.9-4.7-4.7c-0.6-1-1-2-1.3-3.1c-0.1-0.3-0.2-0.6-0.3-0.8c-0.2,0.2-0.3,0.4-0.4,0.7
	c-0.3,0.6-0.8,1.2-1.2,1.7l-0.1,0.2c-0.6,1.2-1.4,2.2-2.4,3c-0.9,0.8-1.8,1.8-2.6,2.8l-1.2,1.8c-0.7,1.1-1.4,2.2-2.3,3.1
	c-0.8,1-1.8,1.8-2.9,2.7c-1.3,0.9-2.6,1.8-3.9,2.8c-1.3,0.9-2.8,1.7-4.4,2.4c-1.3,0.5-2.4,0.9-3.7,1.4c-1.2,0.4-2.5,0.8-3.8,1.2
	c-1,0.1-1.8,0.1-2.2,0c-0.8-0.3-1.4-0.5-1.8-0.5c-1.4-0.5-2.9-1.3-4-2.3c-0.5-0.5-0.8-0.8-0.8-0.8c-1-0.8-1.8-1.6-2.4-2.6
	c-0.6-0.9-1.1-1.9-1.6-3c-0.2-0.3-0.3-0.7-0.4-0.9c-0.1-0.3-0.2-0.6-0.4-0.9c-0.3-0.9-0.6-1.9-0.7-3c-0.2-1.1-0.3-2.3-0.3-3.4
	c-0.1-1.1-0.2-2.2-0.3-3.2c-0.3-0.9-0.4-1.8-0.3-2.5v-0.3l-0.2,0.4c-0.8,2.3-1.7,4.6-2.7,7.1c-0.9,2.5-2.1,5-3.4,7.3
	c-1.3,2.4-2.9,4.6-4.5,6.5c-1.8,1.9-3.8,3.5-6.1,4.6c-1.2,0.5-2.6,0.8-4.4,0.8c-1.7,0-3.1-0.3-4.1-1.1c-0.6-0.3-1.1-0.8-1.4-1.4
	c-1.1-1.3-1.8-2.9-2.1-4.4c-0.3-1.6-0.4-3.3-0.5-5c0-1.3,0-2.6,0-3.9c0-1.3,0.1-2.7,0.2-3.9l-0.1-1.3c-0.3,0.2-0.4,0.3-0.6,0.5
	c-0.2,0.2-0.3,0.3-0.5,0.6c-0.8,0.8-1.7,1.6-2.7,2.4c-0.9,0.7-2.1,1.2-3.4,1.4c-0.8,0.2-1.7,0.4-2.5,0.8c-0.8,0.3-1.6,0.6-2.4,0.8
	h-0.2c0.1-0.1,0.2-0.3,0.3-0.4c0-0.9-1.6-1.2-1.8,0c0.6-0.1,0.9,0.3,1.3,0.5c-1.4,0.2-2.9,0.2-4.2-0.2c-1.4-0.3-2.8-1.1-3.9-2.5
	c-0.2-0.2-0.3-0.3-0.5-0.6h1c1-1.6-0.9-2.3-2-1.9l-0.2-0.3c-1.1-3.1-1.4-6.1-1-9.3C281.8,155.7,281.9,155,281.9,154.4z M189.2,143.4
	v-0.3c0,0.1,0.1,0.2,0.2,0.3C189.4,143.4,189.3,143.4,189.2,143.4z M347.8,168L347.8,168c0,0.2,0,0.3,0,0.4
	c-0.2-0.1-0.3-0.3-0.3-0.4C347.5,168.1,347.7,168,347.8,168z M502.5,131.7c0.3-0.4,0.4-0.8,0.6-1.3c0.1-0.3,0.2-0.6,0.3-0.8
	c0.7-0.2,1.3-0.3,1.9-0.5v0.1c-0.3,0.5-0.4,1-0.4,1.4s-0.1,0.8-0.1,1.3v-0.2H502.5z M505.2,127.2c0.3,0,0.6,0.1,0.9,0.2l-0.1,0.1
	C505.7,127.4,505.4,127.3,505.2,127.2z M250.7,187.2c0.4-1.2,0.8-2.3,1.1-3.3c0.3-1.1,0.3-2.2,0.3-3.4l-0.4-0.2
	c-0.9,0.6-2,1.3-3.1,1.8c-1.1,0.6-2.1,1.3-3,1.9c-1.5,1-2.9,2-4.4,3c-1.4,1.1-2.9,2.1-4.4,3.2c-1.3,0.8-2.4,1.6-3.5,2.4
	c-1.1,0.8-2.3,1.5-3.5,2.4c-0.7,0.4-1.3,0.9-1.8,1.4c-0.6,0.5-1.2,1-1.9,1.4c-1.5,1.3-2.3,3.1-2.3,5c-0.1,0.8-0.1,1.6,0.2,2.3
	c0.2,0.7,0.4,1.4,0.7,2.2c0,0.1,0,0.2,0.1,0.3c0,0.1,0.1,0.1,0.1,0.2c0.5,0.6,1.3,1,2.4,1.3c1.2,0.3,2.2,0.3,3.2,0
	c0.3-0.1,0.5-0.2,0.8-0.3c0.1,0.2,0.1,0.3,0.1,0.2c0.3,0.8,0.4,0.8,0.9,0c-0.3,0.4-0.4,0.2-0.5-0.3c1.6-0.6,3.2-1.3,4.7-2.1
	c3.5-2,6.4-4.8,8.6-8.2c0.3-0.5,0.6-1.1,0.8-1.6c0.2-0.5,0.5-1.1,0.9-1.7C248.2,192.5,249.5,189.9,250.7,187.2z M411.7,147
	c0.3-0.4,0.5-0.8,0.8-1.1c0-0.1,0.1-0.2,0.1-0.3c2.4,1.6,2.2-2.9,0-0.9v-0.1c0-0.3,0-0.7,0.1-0.8c0.5-0.7,0.8-1.6,0.9-2.6
	c0.1-1.1,0-1.9-0.2-2.7c-0.2-1-0.3-2.1-0.4-3.4c-0.2-1.3-0.6-2.4-1.3-3.4c-0.3-0.3-0.6-0.8-0.9-1.1c1-0.1,2.1,0,2.2-0.9
	c-0.8,0.2-2,0-2.5,0.4c-0.3-0.5-0.6-1.1-0.8-1.8v-0.2c-0.3-0.1-0.3-0.2-0.4-0.3c-0.1-0.1-0.2-0.1-0.3-0.1c-0.4,0.1-0.7,0.3-0.7,0.7
	c-0.1,0.2-0.2,0.4-0.2,0.7c-0.1,0.2-0.1,0.3-0.1,0.4c-0.6-0.4-0.5-1.5-1.3-1.7c-0.6,1.1,0.1,2.5,0.8,2.8c-0.4,1.3-0.8,2.6-0.8,4
	c0,0.2-0.1,0.4-0.3,0.8c-0.7,1.8-0.8,3.6,0,5.4c0.7,1.8,1.7,3.3,2.9,4.5c0.4,0.3,0.8,0.7,1.2,0.9C410.8,146.9,411.2,147,411.7,147z
	 M509.2,96.6c-0.4-0.2-0.8-0.3-1.1-0.5s-0.8-0.3-1.3-0.3c-0.4-0.3-0.7-0.3-0.8,0c-0.4,0.2-0.8,0.2-1.4,0.1c-0.5-0.1-1.1-0.2-1.6-0.2
	c-2.4-0.4-4.3,0.3-5.4,2.4c0.3,1.3,0.6,2.7,0.8,4c0.3,1.3,0.6,2.7,1,4c0.8,0.8,1.5,1.6,1.9,2.2c0.2,0,0.3,0.1,0.4,0.3
	c0.7,0,1.4,0,2.2,0.1c0.3,0,0.5-0.1,0.7-0.1c-0.9,1.8-2.8,3.8-3.1,4.6c-0.1,0.3-0.1,0.4-0.1,0.6l0,0c0.3,0.3,0.4,0.6,0.7,0.8
	c0.5-0.1,1,0.3,1,0.8l0.3,0.2c0.5-0.3,0.9-0.6,1.3-1c0.3-0.5,0.8-0.8,1.3-1.1c1.3-0.8,2.1-2.2,2.4-3.9c0.4-0.7,0.7-1.8,0.8-3.5
	c0-0.3,0.2-5.8,0.2-5.8c-0.2-0.6-0.2-1.2,0-1.8C509.4,97.8,509.4,97.2,509.2,96.6z M547,147.5c-0.7,0.3-1.2,0.8-1.7,1.3
	c-0.4,0.6-0.8,1.2-1.3,1.7s-0.7,0.9-0.9,1.3c-0.3,0.3-0.7,0.8-1.1,1.2c-0.3,0.3-0.6,0.6-0.9,0.9c-0.3,0.3-0.6,0.7-0.8,1.1
	c-0.1,0.3-0.4,0.7-0.9,1.1c-1,0.8-1.8,1.8-2.6,2.7c-0.7,0.9-1.3,1.8-2.1,2.9c-0.3,0.5-0.7,1-0.9,1.4c-0.3,0.5-0.6,1-0.7,1.6v0.1
	c-0.4,0.4-0.6,0.9-0.7,1.3c-0.1,0.5-0.2,1-0.3,1.4c-0.1,0.6-0.3,1.2-0.3,1.7c-0.1,0.3-0.2,0.7-0.2,1.1c-0.3,0.1-0.3,0.3-0.4,0.6
	c0.1,0,0.2-0.1,0.3-0.1v0.1c-0.1,0.3-0.1,0.7-0.2,0.9h-0.1c-1.6,3.6-2,2.9-2.8,6.3c1.8-0.2,2,1,3.7,0.9c-0.1-0.3-0.2-0.7-0.2-1
	c0.3,0.3,0.5,0.6,0.8,0.8c0.6,0.3,1.3,0.4,2,0.2c0.5-0.1,1-0.3,1.6-0.5c0.2-0.1,0.3-0.2,0.5-0.2c0.3,0,0.4-0.1,0.6-0.3
	c1.8-0.4,3.2-1.2,4.4-2.3c0.8-0.6,1.5-1.1,2.2-1.7c0.7-0.5,1.3-1.1,2.1-1.6c0.5-0.4,1.1-0.8,1.8-1.1c0.1,0,0.3-0.1,0.4-0.2
	c0.2,0.6,0.2,1.3,0,2.4c3.6-0.1,2.4-1.6,1.2-3.1c0.3-0.3,0.8-0.7,1.2-1c0.3-0.3,0.5-0.8,0.8-1.3c2.1,0.3,3.8,0.8,0.2-0.7
	c0.5-1.9,0.7-3.7,0.4-5.4c-0.1-1.5-0.3-3-0.5-4.4c-0.3-1.5-0.7-2.9-1.3-4.2c-0.2-0.2-0.2-0.4-0.3-0.6c0-0.2-0.1-0.3-0.2-0.5
	c-0.5-1.7-1.4-3.2-2.7-4.6C547.4,147.7,547.3,147.6,547,147.5z"/>
</svg>
